<?xml version="1.0" encoding="UTF-8" standalone="no"?>
<!-- Uploaded to: SVG Repo, www.svgrepo.com, Generator: SVG Repo Mixer Tools -->

<svg
   width="800px"
   height="800px"
   viewBox="0 0 24 24"
   fill="none"
   version="1.1"
   id="svg150"
   sodipodi:docname="burgermenu.svg"
   inkscape:version="1.2.2 (732a01da63, 2022-12-09)"
   xmlns:inkscape="http://www.inkscape.org/namespaces/inkscape"
   xmlns:sodipodi="http://sodipodi.sourceforge.net/DTD/sodipodi-0.dtd"
   xmlns="http://www.w3.org/2000/svg"
   xmlns:svg="http://www.w3.org/2000/svg">
  <defs
     id="defs154" />
  <sodipodi:namedview
     id="namedview152"
     pagecolor="#505050"
     bordercolor="#ffffff"
     borderopacity="1"
     inkscape:showpageshadow="0"
     inkscape:pageopacity="0"
     inkscape:pagecheckerboard="1"
     inkscape:deskcolor="#505050"
     showgrid="false"
     inkscape:zoom="0.35974058"
     inkscape:cx="330.79393"
     inkscape:cy="575.41466"
     inkscape:window-width="1920"
     inkscape:window-height="1017"
     inkscape:window-x="-8"
     inkscape:window-y="-1"
     inkscape:window-maximized="1"
     inkscape:current-layer="svg150" />
  <path
     style="fill:#e6e6e6;fill-opacity:1;stroke-width:0.0100292"
     d="M 3.7297296,7.9037388 C 3.4829802,7.8280533 3.2340354,7.6153056 3.106359,7.3710072 3.0477189,7.2588048 3.0370272,7.1951031 3.0370782,6.9582309 c 6e-5,-0.2466351 0.00943,-0.2977104 0.078518,-0.4275183 0.09442,-0.1774158 0.2859244,-0.3666942 0.4667134,-0.4612902 L 3.7149876,6 H 12 20.285012 l 0.132678,0.069422 c 0.180789,0.094596 0.372294,0.2838744 0.466714,0.4612902 0.0691,0.1298427 0.07846,0.1808169 0.07846,0.4275183 0,0.2467014 -0.0094,0.2976756 -0.07846,0.4275183 -0.09442,0.1774158 -0.285925,0.3666942 -0.466714,0.4612902 l -0.132678,0.069422 -8.240786,0.00494 C 7.5117936,7.924121 3.7702704,7.916171 3.7297296,7.903735 Z"
     id="path5286" />
  <path
     style="fill:#e6e6e6;fill-opacity:1;stroke-width:0.0100292"
     d="M 3.7592426,13.119676 C 3.5124932,13.04399 3.2635484,12.831242 3.135872,12.586944 c -0.05864,-0.112202 -0.069332,-0.175904 -0.069281,-0.412776 6e-5,-0.246635 0.00943,-0.297711 0.078518,-0.427519 0.09442,-0.177415 0.2859244,-0.366694 0.4667134,-0.46129 l 0.132678,-0.06942 h 8.2850124 8.285012 l 0.132678,0.06942 c 0.180789,0.0946 0.372294,0.283875 0.466714,0.46129 0.0691,0.129843 0.07846,0.180817 0.07846,0.427519 0,0.246701 -0.0094,0.297675 -0.07846,0.427518 -0.09442,0.177416 -0.285925,0.366694 -0.466714,0.46129 l -0.132678,0.06942 -8.240786,0.0049 c -4.5324324,0.0027 -8.2739556,-0.0052 -8.3144964,-0.01767 z"
     id="path5286-3" />
  <path
     style="fill:#e6e6e6;fill-opacity:1;stroke-width:0.0100292"
     d="M 3.7592426,18.335565 C 3.5124932,18.25988 3.2635484,18.047132 3.135872,17.802834 3.077232,17.690631 3.06654,17.62693 3.066591,17.390057 c 6e-5,-0.246635 0.00943,-0.29771 0.078518,-0.427518 0.09442,-0.177416 0.2859244,-0.366694 0.4667134,-0.46129 l 0.132678,-0.06942 h 8.2850126 8.285012 l 0.132678,0.06942 c 0.180789,0.0946 0.372294,0.283875 0.466714,0.461291 0.0691,0.129842 0.07846,0.180817 0.07846,0.427518 0,0.246701 -0.0094,0.297676 -0.07846,0.427518 -0.09442,0.177416 -0.285925,0.366694 -0.466714,0.46129 l -0.132678,0.06942 -8.240786,0.0049 c -4.5324326,0.0027 -8.2739558,-0.0052 -8.3144966,-0.01767 z"
     id="path5286-8" />
</svg>
