<?xml version="1.0" encoding="UTF-8" standalone="no"?>
<!-- Created with Inkscape (http://www.inkscape.org/) -->

<svg
   width="151.42262mm"
   height="32.26265mm"
   viewBox="0 0 151.42262 32.262649"
   version="1.1"
   id="svg5"
   inkscape:version="1.2.2 (732a01da63, 2022-12-09)"
   sodipodi:docname="phonenumdesc.svg"
   xmlns:inkscape="http://www.inkscape.org/namespaces/inkscape"
   xmlns:sodipodi="http://sodipodi.sourceforge.net/DTD/sodipodi-0.dtd"
   xmlns="http://www.w3.org/2000/svg"
   xmlns:svg="http://www.w3.org/2000/svg">
  <sodipodi:namedview
     id="namedview7"
     pagecolor="#505050"
     bordercolor="#ffffff"
     borderopacity="1"
     inkscape:showpageshadow="0"
     inkscape:pageopacity="0"
     inkscape:pagecheckerboard="1"
     inkscape:deskcolor="#505050"
     inkscape:document-units="mm"
     showgrid="false"
     showguides="false"
     inkscape:zoom="2.1089996"
     inkscape:cx="314.36706"
     inkscape:cy="11.853961"
     inkscape:window-width="1920"
     inkscape:window-height="1017"
     inkscape:window-x="-8"
     inkscape:window-y="-1"
     inkscape:window-maximized="1"
     inkscape:current-layer="layer4" />
  <defs
     id="defs2">
    <rect
       x="481.74499"
       y="110.00476"
       width="334.75587"
       height="24.65624"
       id="rect752" />
    <clipPath
       clipPathUnits="userSpaceOnUse"
       id="clipPath1309">
      <g
         inkscape:label="Layer 1"
         inkscape:groupmode="layer"
         id="g1315"
         clip-path="none"
         mask="none"
         style="display:inline">
        <text
           xml:space="preserve"
           style="font-size:19.7556px;font-family:Retron2000;-inkscape-font-specification:Retron2000;fill:#d45500;stroke-width:0.264583"
           x="19.516129"
           y="121.35484"
           id="text1313"><tspan
             sodipodi:role="line"
             id="tspan1311"
             style="font-size:19.7556px;fill:#d45500;stroke-width:0.264583"
             x="19.516129"
             y="121.35484">909-500-2035</tspan></text>
      </g>
    </clipPath>
  </defs>
  <g
     inkscape:label="Layer 1 copy"
     inkscape:groupmode="layer"
     id="g983"
     clip-path="none"
     style="display:none"
     transform="translate(-20.977541,-105.99313)" />
  <g
     inkscape:groupmode="layer"
     id="layer3"
     inkscape:label="Layer 2"
     clip-path="url(#clipPath1309)"
     style="display:none"
     mask="none"
     transform="translate(-20.977541,-105.99313)">
    <rect
       style="fill:#800080;stroke-width:0.264583"
       id="rect835"
       width="13.483871"
       height="6.032258"
       x="20.935484"
       y="106.09678" />
    <rect
       style="fill:#800080;stroke-width:0.264583"
       id="rect837"
       width="2.9274194"
       height="6.032258"
       x="41.427422"
       y="112.92741" />
    <rect
       style="fill:#800080;stroke-width:0.264583"
       id="rect839"
       width="6.1209679"
       height="7.6290321"
       x="47.991936"
       y="103.43548" />
    <rect
       style="fill:#800080;stroke-width:0.264583"
       id="rect841"
       width="4.2580643"
       height="7.717742"
       x="71.499992"
       y="103.79032" />
    <rect
       style="fill:#800080;stroke-width:0.264583"
       id="rect843"
       width="10.733871"
       height="5.8548388"
       x="75.137093"
       y="114.79032" />
    <rect
       style="fill:#800080;stroke-width:0.264583"
       id="rect845"
       width="11"
       height="5.766129"
       x="91.193542"
       y="104.23387" />
    <rect
       style="fill:#800080;stroke-width:0.264583"
       id="rect847"
       width="8.782258"
       height="8.782258"
       x="98.645157"
       y="111.77419" />
    <rect
       style="fill:#800080;stroke-width:0.264583"
       id="rect849"
       width="12.774194"
       height="10.467742"
       x="119.58064"
       y="103.43548" />
    <rect
       style="fill:#800080;stroke-width:0.264583"
       id="rect851"
       width="22.266129"
       height="13.483871"
       x="133.95161"
       y="111.86291" />
    <rect
       style="fill:#800080;stroke-width:0.264583"
       id="rect853"
       width="18.629032"
       height="13.483871"
       x="161.80644"
       y="103.96774" />
    <rect
       style="fill:#800080;stroke-width:0.264583"
       id="rect855"
       width="12.774194"
       height="4.7016129"
       x="138.29839"
       y="103.87904" />
    <ellipse
       style="fill:#800080;stroke-width:0.264583"
       id="path1121"
       cx="55.764492"
       cy="118.74261"
       rx="2.6972702"
       ry="2.4463613" />
    <ellipse
       style="fill:#800080;stroke-width:0.264583"
       id="path1123"
       cx="27.160885"
       cy="119.18171"
       rx="2.1954525"
       ry="3.1363606" />
    <ellipse
       style="fill:#800080;stroke-width:0.264583"
       id="path1125"
       cx="58.273582"
       cy="109.96081"
       rx="1.8190893"
       ry="3.0736334" />
    <ellipse
       style="fill:#ffff00;stroke-width:0.264583"
       id="path1127"
       cx="124.19989"
       cy="120.74989"
       rx="4.6418138"
       ry="3.0736334" />
    <circle
       style="fill:#ffff00;stroke-width:0.264583"
       id="path1181"
       cx="103.43718"
       cy="113.97535"
       r="1.6936347" />
    <ellipse
       style="fill:#ffff00;stroke-width:0.264583"
       id="path1183"
       cx="65.048119"
       cy="113.97535"
       rx="1.6936347"
       ry="1.4427259" />
    <ellipse
       style="fill:#ffff00;stroke-width:0.264583"
       id="path1185"
       cx="78.22084"
       cy="107.20081"
       rx="1.3172715"
       ry="0.43909049" />
    <circle
       style="fill:#ffff00;stroke-width:0.264583"
       id="path1187"
       cx="118.05262"
       cy="113.53625"
       r="1.8818164" />
    <circle
       style="fill:#ffff00;stroke-width:0.264583"
       id="path1189"
       cx="40.960873"
       cy="106.9499"
       r="1.6936347" />
    <circle
       style="fill:#800080;stroke-width:0.264583"
       id="path1191"
       cx="38.828144"
       cy="113.8499"
       r="2.4463613" />
    <rect
       style="fill:#800080;stroke-width:0.264583"
       id="rect1193"
       width="2.6345429"
       height="5.2690859"
       x="85.559914"
       y="105.00536" />
    <rect
       style="fill:#800080;stroke-width:0.264583"
       id="rect1195"
       width="3.6381786"
       height="2.5090885"
       x="91.832642"
       y="118.80534" />
    <ellipse
       style="fill:#ffff00;stroke-width:0.264583"
       id="path1281"
       cx="30.987244"
       cy="109.77263"
       rx="1.5054532"
       ry="1.6309075" />
    <ellipse
       style="fill:#ffff00;stroke-width:0.264583"
       id="path1283"
       cx="27.160885"
       cy="119.18171"
       rx="1.6936347"
       ry="0.87818098" />
    <ellipse
       style="fill:#ffff00;stroke-width:0.264583"
       id="path1285"
       cx="73.955383"
       cy="106.76172"
       rx="0.81545377"
       ry="1.0036354" />
    <ellipse
       style="fill:#ffff00;stroke-width:0.264583"
       id="path1287"
       cx="92.334457"
       cy="111.0899"
       rx="1.6309075"
       ry="2.3209069" />
    <ellipse
       style="fill:#ffff00;stroke-width:0.264583"
       id="path1289"
       cx="76.903564"
       cy="113.97535"
       rx="2.6345429"
       ry="1.3172715" />
    <ellipse
       style="fill:#ffff00;stroke-width:0.264583"
       id="path1291"
       cx="141.7635"
       cy="106.76172"
       rx="1.3799987"
       ry="2.6345429" />
    <ellipse
       style="fill:#ffff00;stroke-width:0.264583"
       id="path1293"
       cx="165.59984"
       cy="114.91626"
       rx="2.6345429"
       ry="2.1327252" />
    <ellipse
       style="fill:#ffff00;stroke-width:0.264583"
       id="path1295"
       cx="168.42256"
       cy="106.32262"
       rx="2.5718157"
       ry="1.191817" />
    <ellipse
       style="fill:#ffff00;stroke-width:0.264583"
       id="path1297"
       cx="170.93166"
       cy="116.48444"
       rx="0.062727213"
       ry="0.94090819" />
    <ellipse
       style="fill:#ffff00;stroke-width:0.264583"
       id="path1299"
       cx="165.85075"
       cy="120.74989"
       rx="0.87818098"
       ry="0.94090819" />
    <ellipse
       style="fill:#ffff00;stroke-width:0.264583"
       id="path1301"
       cx="130.40988"
       cy="111.27808"
       rx="1.191817"
       ry="1.2545443" />
    <ellipse
       style="fill:#ffff00;stroke-width:0.264583"
       id="path1303"
       cx="139.50533"
       cy="114.85352"
       rx="1.2545443"
       ry="1.191817" />
    <ellipse
       style="fill:#800080;stroke-width:0.264583"
       id="path1305"
       cx="156.37894"
       cy="112.78353"
       rx="1.6936347"
       ry="0.62727213" />
    <ellipse
       style="fill:#800080;stroke-width:0.264583"
       id="path1307"
       cx="156.75531"
       cy="106.82445"
       rx="1.191817"
       ry="0.68999934" />
  </g>
  <g
     inkscape:groupmode="layer"
     id="layer4"
     inkscape:label="Layer 3"
     style="display:inline"
     transform="translate(-20.977541,-105.99313)">
    <g
       aria-label="909-500-2035"
       id="text981"
       style="font-size:19.7556px;font-family:Retron2000;-inkscape-font-specification:Retron2000;display:inline;fill:#d45500;stroke-width:0.264583">
      <path
         d="m 29.755664,112.57672 v -2.92765 H 29.02737 v -0.72829 h -0.733118 v -0.73312 h -3.660767 v 0.73312 H 23.90519 v 0.72829 h -0.733118 v 1.46624 h 0.733118 v 0.72829 h 0.728295 v 0.73312 z m -6.583592,8.77812 v -0.72829 h -0.733118 v -0.73312 h -0.728295 v -0.73312 h -0.733118 v -2.19453 h 2.194531 v 0.73312 h 0.733118 v 0.73312 h 0.728295 v 0.72829 h 3.660767 v -0.72829 h 0.733118 v -0.73312 h 0.728294 v -2.92765 h -6.583592 v -0.73312 h -0.733118 v -0.72829 h -0.728295 v -0.73312 h -0.733118 v -4.38906 h 0.733118 v -0.73312 h 0.728295 v -0.73312 h 0.733118 v -0.72829 h 6.583592 v 0.72829 h 0.733118 v 0.73312 H 31.2219 v 0.73312 h 0.728295 v 10.97265 H 31.2219 v 0.73312 h -0.733118 v 0.73312 h -0.733118 v 0.72829 z"
         id="path1763" />
      <path
         d="m 41.461436,119.16031 v -0.72829 h 0.733118 v -0.73312 h 0.728295 v -5.12218 h -0.728295 v 0.73312 h -0.733118 v 0.72829 h -0.733118 v 0.73312 h -0.728294 v 0.73312 h -0.733118 v 0.73312 h -0.733118 v 0.72829 H 37.80067 v 0.73312 h -0.728295 v 0.73312 h 0.728295 v 0.72829 z m -4.389061,-4.38906 v -0.73312 h 0.728295 v -0.72829 h 0.733118 v -0.73312 h 0.733118 v -0.73312 h 0.733118 v -0.72829 h 0.728294 v -0.73312 h 0.733118 v -0.73312 h 0.733118 v -0.72829 h -0.733118 v -0.73312 H 37.80067 v 0.73312 h -0.728295 v 0.72829 h -0.733118 v 5.12218 z m -0.733118,6.58359 v -0.72829 h -0.733118 v -0.73312 h -0.728295 v -0.73312 h -0.733118 v -10.97265 h 0.733118 v -0.73312 h 0.728295 v -0.73312 h 0.733118 v -0.72829 h 6.583592 v 0.72829 h 0.733118 v 0.73312 h 0.733118 v 0.73312 h 0.728295 v 10.97265 h -0.728295 v 0.73312 h -0.733118 v 0.73312 h -0.733118 v 0.72829 z"
         id="path1765" />
      <path
         d="m 56.090034,112.57672 v -2.92765 h -0.728295 v -0.72829 h -0.733118 v -0.73312 h -3.660766 v 0.73312 H 50.23956 v 0.72829 h -0.733118 v 1.46624 h 0.733118 v 0.72829 h 0.728295 v 0.73312 z m -6.583592,8.77812 v -0.72829 h -0.733118 v -0.73312 h -0.728295 v -0.73312 h -0.733118 v -2.19453 h 2.194531 v 0.73312 h 0.733118 v 0.73312 h 0.728295 v 0.72829 h 3.660766 v -0.72829 h 0.733118 v -0.73312 h 0.728295 v -2.92765 h -6.583592 v -0.73312 h -0.733118 v -0.72829 h -0.728295 v -0.73312 h -0.733118 v -4.38906 h 0.733118 v -0.73312 h 0.728295 v -0.73312 h 0.733118 v -0.72829 h 6.583592 v 0.72829 h 0.733118 v 0.73312 h 0.733118 v 0.73312 h 0.728295 v 10.97265 H 57.55627 v 0.73312 h -0.733118 v 0.73312 h -0.733118 v 0.72829 z"
         id="path1767" />
      <path
         d="m 60.479098,114.77125 v -2.19453 h 8.778123 v 2.19453 z"
         id="path1769" />
      <path
         d="m 73.646281,121.35484 v -0.72829 h -0.733118 v -0.73312 h -0.728295 v -0.73312 H 71.45175 v -2.19453 h 2.194531 v 0.73312 h 0.733118 v 0.73312 h 0.728295 v 0.72829 h 3.660766 v -0.72829 h 0.733118 v -0.73312 h 0.728295 v -1.46141 h -0.728295 v -0.73312 H 78.76846 v -0.73312 h -7.31671 v -8.77812 h 10.972654 v 2.19453 h -8.778123 v 4.38906 h 6.583592 v 0.73312 h 0.733118 v 0.72829 h 0.733118 v 0.73312 h 0.728295 v 4.38906 h -0.728295 v 0.73312 h -0.733118 v 0.73312 h -0.733118 v 0.72829 z"
         id="path1771" />
      <path
         d="m 91.935643,119.16031 v -0.72829 h 0.733118 v -0.73312 h 0.728295 v -5.12218 h -0.728295 v 0.73312 h -0.733118 v 0.72829 h -0.733118 v 0.73312 h -0.728294 v 0.73312 h -0.733118 v 0.73312 h -0.733118 v 0.72829 h -0.733118 v 0.73312 h -0.728295 v 0.73312 h 0.728295 v 0.72829 z m -4.389061,-4.38906 v -0.73312 h 0.728295 v -0.72829 h 0.733118 v -0.73312 h 0.733118 v -0.73312 h 0.733118 v -0.72829 h 0.728294 v -0.73312 h 0.733118 v -0.73312 h 0.733118 v -0.72829 h -0.733118 v -0.73312 h -3.660766 v 0.73312 h -0.728295 v 0.72829 h -0.733118 v 5.12218 z m -0.733118,6.58359 v -0.72829 h -0.733118 v -0.73312 h -0.728295 v -0.73312 h -0.733118 v -10.97265 h 0.733118 v -0.73312 h 0.728295 v -0.73312 h 0.733118 v -0.72829 h 6.583592 v 0.72829 h 0.733118 v 0.73312 h 0.733118 v 0.73312 h 0.728295 v 10.97265 h -0.728295 v 0.73312 h -0.733118 v 0.73312 h -0.733118 v 0.72829 z"
         id="path1773" />
      <path
         d="m 105.10283,119.16031 v -0.72829 h 0.73312 v -0.73312 h 0.72829 v -5.12218 h -0.72829 v 0.73312 h -0.73312 v 0.72829 h -0.73312 v 0.73312 h -0.72829 v 0.73312 h -0.73312 v 0.73312 h -0.73312 v 0.72829 h -0.73312 v 0.73312 h -0.72829 v 0.73312 h 0.72829 v 0.72829 z m -4.38906,-4.38906 v -0.73312 h 0.72829 v -0.72829 h 0.73312 v -0.73312 h 0.73312 v -0.73312 h 0.73312 v -0.72829 h 0.72829 v -0.73312 h 0.73312 v -0.73312 h 0.73312 v -0.72829 h -0.73312 v -0.73312 h -3.66077 v 0.73312 h -0.72829 v 0.72829 h -0.733119 v 5.12218 z m -0.733119,6.58359 v -0.72829 h -0.733118 v -0.73312 h -0.728295 v -0.73312 H 97.78612 v -10.97265 h 0.733118 v -0.73312 h 0.728295 v -0.73312 h 0.733118 v -0.72829 h 6.583589 v 0.72829 h 0.73312 v 0.73312 h 0.73312 v 0.73312 h 0.72829 v 10.97265 h -0.72829 v 0.73312 h -0.73312 v 0.73312 h -0.73312 v 0.72829 z"
         id="path1775" />
      <path
         d="m 110.9533,114.77125 v -2.19453 h 8.77813 v 2.19453 z"
         id="path1777" />
      <path
         d="m 121.92596,121.35484 v -6.58359 h 0.73312 v -0.73312 h 0.72829 v -0.72829 h 0.73312 v -0.73312 h 5.12218 v -0.73312 h 0.73312 v -0.72829 h 0.72829 v -1.46624 h -0.72829 v -0.72829 h -0.73312 v -0.73312 h -3.66077 v 0.73312 h -0.72829 v 0.72829 h -0.73312 v 0.73312 h -2.19453 v -2.19453 h 0.73312 v -0.73312 h 0.72829 v -0.73312 h 0.73312 v -0.72829 h 6.58359 v 0.72829 h 0.73312 v 0.73312 h 0.73312 v 0.73312 h 0.72829 v 4.38906 h -0.72829 v 0.73312 h -0.73312 v 0.72829 h -0.73312 v 0.73312 h -5.12218 v 0.73312 h -0.72829 v 0.73312 h -0.73312 v 2.92282 h 6.58359 v -2.19453 h 2.19453 v 4.38906 z"
         id="path1779" />
      <path
         d="m 142.40985,119.16031 v -0.72829 h 0.73312 v -0.73312 h 0.72829 v -5.12218 h -0.72829 v 0.73312 h -0.73312 v 0.72829 h -0.73312 v 0.73312 h -0.72829 v 0.73312 h -0.73312 v 0.73312 h -0.73312 v 0.72829 h -0.73311 v 0.73312 h -0.7283 v 0.73312 h 0.7283 v 0.72829 z m -4.38906,-4.38906 v -0.73312 h 0.7283 v -0.72829 h 0.73311 v -0.73312 h 0.73312 v -0.73312 h 0.73312 v -0.72829 h 0.72829 v -0.73312 h 0.73312 v -0.73312 h 0.73312 v -0.72829 h -0.73312 v -0.73312 h -3.66076 v 0.73312 h -0.7283 v 0.72829 h -0.73312 v 5.12218 z m -0.73312,6.58359 v -0.72829 h -0.73312 v -0.73312 h -0.72829 v -0.73312 h -0.73312 v -10.97265 h 0.73312 v -0.73312 h 0.72829 v -0.73312 h 0.73312 v -0.72829 h 6.58359 v 0.72829 h 0.73312 v 0.73312 h 0.73312 v 0.73312 h 0.7283 v 10.97265 h -0.7283 v 0.73312 h -0.73312 v 0.73312 h -0.73312 v 0.72829 z"
         id="path1781" />
      <path
         d="m 150.45486,121.35484 v -0.72829 h -0.73312 v -0.73312 h -0.7283 v -0.73312 h -0.73312 v -2.19453 h 2.19454 v 0.73312 h 0.73311 v 0.73312 h 0.7283 v 0.72829 h 3.66077 v -0.72829 h 0.73311 v -0.73312 h 0.7283 v -1.46141 h -0.7283 v -0.73312 h -0.73311 v -0.73312 h -2.92765 v -2.19453 h 2.92765 v -0.73312 h 0.73311 v -0.72829 h 0.7283 v -1.46624 h -0.7283 v -0.72829 h -0.73311 v -0.73312 h -3.66077 v 0.73312 h -0.7283 v 0.72829 h -0.73311 v 0.73312 h -2.19454 v -2.19453 h 0.73312 v -0.73312 h 0.7283 v -0.73312 h 0.73312 v -0.72829 h 6.58359 v 0.72829 h 0.73312 v 0.73312 h 0.73311 v 0.73312 h 0.7283 v 4.38906 h -0.7283 v 0.73312 h -0.73311 v 0.72829 h 0.73311 v 0.73312 h 0.7283 v 4.38906 h -0.7283 v 0.73312 h -0.73311 v 0.73312 h -0.73312 v 0.72829 z"
         id="path1783" />
      <path
         d="m 163.62204,121.35484 v -0.72829 h -0.73312 v -0.73312 h -0.72829 v -0.73312 h -0.73312 v -2.19453 h 2.19453 v 0.73312 h 0.73312 v 0.73312 h 0.72829 v 0.72829 h 3.66077 v -0.72829 h 0.73312 v -0.73312 h 0.72829 v -1.46141 h -0.72829 v -0.73312 h -0.73312 v -0.73312 h -7.31671 v -8.77812 h 10.97265 v 2.19453 h -8.77812 v 4.38906 h 6.58359 v 0.73312 h 0.73312 v 0.72829 h 0.73312 v 0.73312 h 0.72829 v 4.38906 h -0.72829 v 0.73312 h -0.73312 v 0.73312 h -0.73312 v 0.72829 z"
         id="path1785" />
    </g>
    <g
       id="text205"
       style="font-size:25.4px;font-family:Retron2000;-inkscape-font-specification:Retron2000;fill:#ffffff;stroke-width:0.264583" />
    <g
       aria-label="You can reach me between 7:00 AM to 10:00 PM PST, otherwise 
you'll get voicemail. You can also leave a voicemail if youre
too shy to call! I'll respond when I can!"
       id="text468"
       style="font-size:4.29365px;font-family:Retron2000;-inkscape-font-specification:Retron2000;fill:#ffffff;stroke-width:0.230017">
      <path
         d="m 26.219425,126.56774 v -1.5902 H 26.06009 v -0.15829 h -0.158286 v -0.15933 h -0.159335 v -0.15934 h -0.159334 v -0.15828 h -0.158287 v -0.15934 h -0.159335 v -0.95391 h 0.476956 v 0.63629 h 0.159335 v 0.15829 h 0.158286 v 0.15933 h 0.159335 v 0.15934 h 0.159335 v 0.15828 h 0.159334 v -0.15828 h 0.158287 v -0.15934 h 0.159334 v -0.15933 h 0.159335 v -0.15829 h 0.158287 v -0.63629 h 0.476955 v 0.95391 h -0.158286 v 0.15934 h -0.159335 v 0.15828 h -0.159334 v 0.15934 H 27.01505 v 0.15933 h -0.159335 v 0.15829 h -0.159334 v 1.5902 z"
         style="text-align:center;text-anchor:middle"
         id="path1497" />
      <path
         d="m 29.71745,126.09079 v -0.15829 h 0.159335 v -0.15934 h 0.158286 v -0.79562 h -0.158286 v -0.15829 H 29.71745 v -0.15933 h -0.795625 v 0.15933 h -0.158286 v 0.15829 h -0.159335 v 0.79562 h 0.159335 v 0.15934 h 0.158286 v 0.15829 z m -1.113246,0.47695 v -0.15829 h -0.159335 v -0.15933 h -0.158286 v -0.15933 h -0.159335 v -1.43087 h 0.159335 v -0.15934 h 0.158286 v -0.15828 h 0.159335 v -0.15934 h 1.430867 v 0.15934 h 0.159335 v 0.15828 h 0.159335 v 0.15934 h 0.158286 v 1.43087 h -0.158286 v 0.15933 h -0.159335 v 0.15933 h -0.159335 v 0.15829 z"
         style="text-align:center;text-anchor:middle"
         id="path1499" />
      <path
         d="m 31.465938,126.56774 v -0.15829 h -0.159334 v -0.15933 h -0.158287 v -0.15933 h -0.159334 v -1.90783 h 0.476955 v 1.5902 h 0.159335 v 0.15934 h 0.158287 v 0.15829 h 0.318669 v -0.15829 h 0.159335 v -0.15934 h 0.158286 v -0.15933 h 0.159335 v -0.15829 h 0.159334 v -0.15933 h 0.158287 v -1.11325 h 0.476956 v 2.38478 h -0.476956 v -0.47695 h -0.158287 v 0.15933 h -0.159334 v 0.15933 H 32.41985 v 0.15829 z"
         style="text-align:center;text-anchor:middle"
         id="path1501" />
      <path
         d="m 35.678873,126.56774 v -0.15829 h -0.159334 v -0.15933 h -0.158287 v -0.15933 h -0.159334 v -1.43087 h 0.159334 v -0.15934 h 0.158287 v -0.15828 h 0.159334 v -0.15934 h 1.430868 v 0.15934 h 0.159334 v 0.15828 h 0.159335 v 0.15934 h 0.158287 v 0.47695 h -0.476956 v -0.15933 h -0.158287 v -0.15829 H 36.79212 v -0.15933 h -0.795625 v 0.15933 h -0.158287 v 0.15829 h -0.159335 v 0.79562 h 0.159335 v 0.15934 h 0.158287 v 0.15829 h 0.795625 v -0.15829 h 0.159334 v -0.15934 h 0.158287 v -0.15933 h 0.476956 v 0.47696 H 37.42841 v 0.15933 h -0.159335 v 0.15933 h -0.159334 v 0.15829 z"
         style="text-align:center;text-anchor:middle"
         id="path1503" />
      <path
         d="m 39.971475,126.09079 v -0.47696 h -1.113246 v 0.15933 h -0.158286 v 0.15934 h 0.158286 v 0.15829 z m -1.430867,0.47695 v -0.15829 h -0.159335 v -0.15933 h -0.158286 v -0.15933 h -0.159335 v -0.47696 h 0.159335 v -0.15829 h 0.158286 v -0.15933 h 0.159335 v -0.15934 h 1.430867 v -0.15933 h -0.158286 v -0.15829 h -0.159335 v -0.15933 h -1.113246 v -0.47696 h 1.430867 v 0.15934 h 0.159335 v 0.15828 h 0.159334 v 0.15934 h 0.158287 v 1.90782 z"
         style="text-align:center;text-anchor:middle"
         id="path1505" />
      <path
         d="m 40.925386,126.56774 v -2.38478 h 0.476956 v 0.47696 h 0.159335 v -0.15934 h 0.158286 v -0.15828 h 0.159335 v -0.15934 h 0.953912 v 0.15934 h 0.159334 v 0.15828 h 0.159335 v 0.15934 h 0.158286 v 1.90782 H 42.83321 v -1.5902 h -0.158287 v -0.15829 h -0.159335 v -0.15933 h -0.317621 v 0.15933 h -0.159334 v 0.15829 h -0.159335 v 0.15933 h -0.159335 v 0.15934 h -0.158286 v 0.15933 h -0.159335 v 1.1122 z"
         style="text-align:center;text-anchor:middle"
         id="path1507" />
      <path
         d="m 45.138322,126.56774 v -2.38478 h 0.476956 v 0.47696 h 0.159334 v -0.15934 h 0.158287 v -0.15828 h 0.159334 v -0.15934 h 0.953912 v 0.15934 h 0.159335 v 0.15828 h 0.159334 v 0.15934 h 0.158287 v 0.47695 h -0.476956 v -0.15933 h -0.158286 v -0.15829 h -0.159335 v -0.15933 h -0.317621 v 0.15933 h -0.159335 v 0.15829 h -0.159335 v 0.15933 h -0.159334 v 0.15934 h -0.158287 v 0.15933 h -0.159334 v 1.1122 z"
         style="text-align:center;text-anchor:middle"
         id="path1509" />
      <path
         d="m 49.907879,125.13687 v -0.15933 h -0.158286 v -0.15829 h -0.159335 v -0.15933 h -0.795625 v 0.15933 h -0.158286 v 0.15829 h -0.159335 v 0.15933 z m -1.430867,1.43087 v -0.15829 h -0.159335 v -0.15933 h -0.158286 v -0.15933 h -0.159335 v -1.43087 h 0.159335 v -0.15934 h 0.158286 v -0.15828 h 0.159335 v -0.15934 h 1.430867 v 0.15934 h 0.159335 v 0.15828 h 0.159335 v 0.15934 h 0.158286 v 0.95391 h -1.907823 v 0.15933 h 0.159335 v 0.15934 h 0.158286 v 0.15829 h 1.590202 v 0.47695 z"
         style="text-align:center;text-anchor:middle"
         id="path1511" />
      <path
         d="m 52.769614,126.09079 v -0.47696 h -1.113246 v 0.15933 h -0.158287 v 0.15934 h 0.158287 v 0.15829 z m -1.430868,0.47695 v -0.15829 h -0.159334 v -0.15933 h -0.158287 v -0.15933 h -0.159334 v -0.47696 h 0.159334 v -0.15829 h 0.158287 v -0.15933 h 0.159334 v -0.15934 h 1.430868 v -0.15933 h -0.158287 v -0.15829 h -0.159334 v -0.15933 h -1.113247 v -0.47696 h 1.430868 v 0.15934 h 0.159334 v 0.15828 h 0.159335 v 0.15934 h 0.158287 v 1.90782 z"
         style="text-align:center;text-anchor:middle"
         id="path1513" />
      <path
         d="m 54.200481,126.56774 v -0.15829 h -0.159335 v -0.15933 H 53.88286 v -0.15933 h -0.159335 v -1.43087 h 0.159335 v -0.15934 h 0.158286 v -0.15828 h 0.159335 v -0.15934 h 1.430867 v 0.15934 h 0.159335 v 0.15828 h 0.159335 v 0.15934 h 0.158286 v 0.47695 h -0.476956 v -0.15933 h -0.158286 v -0.15829 h -0.159335 v -0.15933 h -0.795625 v 0.15933 h -0.158286 v 0.15829 h -0.159335 v 0.79562 h 0.159335 v 0.15934 h 0.158286 v 0.15829 h 0.795625 v -0.15829 h 0.159335 v -0.15934 h 0.158286 v -0.15933 h 0.476956 v 0.47696 h -0.158286 v 0.15933 h -0.159335 v 0.15933 h -0.159335 v 0.15829 z"
         style="text-align:center;text-anchor:middle"
         id="path1515" />
      <path
         d="m 56.585259,126.56774 v -3.33869 h 0.476956 v 1.43087 h 0.159335 v -0.15934 h 0.158286 v -0.15828 h 0.159335 v -0.15934 h 0.953912 v 0.15934 h 0.159334 v 0.15828 h 0.159335 v 0.15934 h 0.158286 v 1.90782 h -0.476955 v -1.5902 h -0.158287 v -0.15829 h -0.159335 v -0.15933 H 57.85784 v 0.15933 h -0.159334 v 0.15829 h -0.159335 v 0.15933 h -0.159335 v 0.15934 H 57.22155 v 0.15933 h -0.159335 v 1.1122 z"
         style="text-align:center;text-anchor:middle"
         id="path1517" />
      <path
         d="m 60.798194,126.56774 v -2.38478 h 0.953912 v 0.15934 h 0.159334 v 0.15828 h 0.159335 v -0.15828 h 0.158286 v -0.15934 h 0.476956 v 0.15934 h 0.159335 v 0.15828 h 0.159334 v 0.15934 h 0.158287 v 1.90782 h -0.476956 v -1.5902 h -0.158286 v -0.15829 h -0.159335 v 0.15829 h -0.159335 v 0.63629 h -0.476955 v -0.63629 h -0.159335 v -0.15829 h -0.158287 v 0.15829 H 61.27515 v 1.5902 z"
         style="text-align:center;text-anchor:middle"
         id="path1519" />
      <path
         d="m 65.567753,125.13687 v -0.15933 h -0.158286 v -0.15829 h -0.159335 v -0.15933 h -0.795625 v 0.15933 h -0.158286 v 0.15829 h -0.159335 v 0.15933 z m -1.430867,1.43087 v -0.15829 h -0.159335 v -0.15933 h -0.158286 v -0.15933 H 63.65993 v -1.43087 h 0.159335 v -0.15934 h 0.158286 v -0.15828 h 0.159335 v -0.15934 h 1.430867 v 0.15934 h 0.159335 v 0.15828 h 0.159335 v 0.15934 h 0.158286 v 0.95391 h -1.907823 v 0.15933 h 0.159335 v 0.15934 h 0.158286 v 0.15829 h 1.590202 v 0.47695 z"
         style="text-align:center;text-anchor:middle"
         id="path1521" />
      <path
         d="M 69.463065,126.09079 V 125.9325 H 69.6224 v -0.15934 h 0.158286 v -0.79562 H 69.6224 v -0.15829 h -0.159335 v -0.15933 h -1.113246 v 0.63629 h 0.159334 v 0.15933 h 0.158287 v 0.15829 h 0.159334 v 0.15933 h 0.159335 v 0.15934 h 0.159335 v 0.15829 z m -1.590202,0.47695 v -3.33869 h 0.476956 v 0.95391 h 1.430867 v 0.15934 h 0.159335 v 0.15828 h 0.159334 v 0.15934 h 0.158287 v 1.43087 h -0.158287 v 0.15933 h -0.159334 v 0.15933 h -0.159335 v 0.15829 h -0.953912 v -0.15829 H 68.66744 v -0.15933 h -0.158287 v -0.15933 h -0.159334 v 0.47695 z"
         style="text-align:center;text-anchor:middle"
         id="path1523" />
      <path
         d="m 72.642422,125.13687 v -0.15933 h -0.158286 v -0.15829 h -0.159335 v -0.15933 h -0.795625 v 0.15933 H 71.37089 v 0.15829 h -0.159335 v 0.15933 z m -1.430867,1.43087 v -0.15829 H 71.05222 v -0.15933 h -0.158286 v -0.15933 h -0.159335 v -1.43087 h 0.159335 v -0.15934 h 0.158286 v -0.15828 h 0.159335 v -0.15934 h 1.430867 v 0.15934 h 0.159335 v 0.15828 h 0.159335 v 0.15934 h 0.158286 v 0.95391 h -1.907823 v 0.15933 h 0.159335 v 0.15934 h 0.158286 v 0.15829 h 1.590202 v 0.47695 z"
         style="text-align:center;text-anchor:middle"
         id="path1525" />
      <path
         d="m 74.073287,126.56774 v -0.15829 h -0.159334 v -0.15933 h -0.158287 v -0.15933 h -0.159334 v -2.86174 h 0.476955 v 0.95391 h 1.430868 v 0.47696 h -1.430868 v 1.11324 h 0.159335 v 0.15934 h 0.158287 v 0.15829 h 0.318669 v -0.15829 h 0.159335 v -0.15934 h 0.158286 v -0.63629 h 0.476956 v 0.95392 h -0.158287 v 0.15933 h -0.159334 v 0.15933 h -0.159335 v 0.15829 z"
         style="text-align:center;text-anchor:middle"
         id="path1527" />
      <path
         d="m 76.458068,126.56774 v -0.15829 h -0.159334 v -0.15933 h -0.158287 v -0.15933 h -0.159334 v -1.90783 h 0.476955 v 1.5902 h 0.159335 v 0.15934 h 0.158286 v -0.15934 h 0.159335 v -0.63629 h 0.476956 v 0.63629 h 0.159334 v 0.15934 h 0.159335 v -0.15934 h 0.158287 v -1.5902 h 0.476955 v 1.90783 h -0.158286 v 0.15933 H 78.04827 v 0.15933 h -0.159334 v 0.15829 H 77.41198 v -0.15829 h -0.158287 v -0.15933 h -0.159334 v 0.15933 h -0.159335 v 0.15829 z"
         style="text-align:center;text-anchor:middle"
         id="path1529" />
      <path
         d="m 80.750668,125.13687 v -0.15933 h -0.158286 v -0.15829 h -0.159335 v -0.15933 h -0.795625 v 0.15933 h -0.158287 v 0.15829 h -0.159334 v 0.15933 z m -1.430867,1.43087 v -0.15829 h -0.159335 v -0.15933 H 79.00218 v -0.15933 h -0.159335 v -1.43087 h 0.159335 v -0.15934 h 0.158286 v -0.15828 h 0.159335 v -0.15934 h 1.430867 v 0.15934 h 0.159335 v 0.15828 h 0.159334 v 0.15934 h 0.158287 v 0.95391 h -1.907823 v 0.15933 h 0.159334 v 0.15934 h 0.158287 v 0.15829 h 1.590202 v 0.47695 z"
         style="text-align:center;text-anchor:middle"
         id="path1531" />
      <path
         d="m 83.612404,125.13687 v -0.15933 h -0.158286 v -0.15829 h -0.159335 v -0.15933 h -0.795625 v 0.15933 h -0.158286 v 0.15829 h -0.159335 v 0.15933 z m -1.430867,1.43087 v -0.15829 h -0.159335 v -0.15933 h -0.158286 v -0.15933 h -0.159335 v -1.43087 h 0.159335 v -0.15934 h 0.158286 v -0.15828 h 0.159335 v -0.15934 h 1.430867 v 0.15934 h 0.159335 v 0.15828 h 0.159335 v 0.15934 h 0.158286 v 0.95391 h -1.907823 v 0.15933 h 0.159335 v 0.15934 h 0.158286 v 0.15829 h 1.590202 v 0.47695 z"
         style="text-align:center;text-anchor:middle"
         id="path1533" />
      <path
         d="m 84.566314,126.56774 v -2.38478 h 0.476956 v 0.47696 h 0.159334 v -0.15934 h 0.158287 v -0.15828 h 0.159334 v -0.15934 h 0.953912 v 0.15934 h 0.159335 v 0.15828 h 0.159334 v 0.15934 h 0.158287 v 1.90782 h -0.476956 v -1.5902 H 86.31585 v -0.15829 h -0.159334 v -0.15933 h -0.317621 v 0.15933 H 85.67956 v 0.15829 h -0.159335 v 0.15933 h -0.159334 v 0.15934 h -0.158287 v 0.15933 H 85.04327 v 1.1122 z"
         style="text-align:center;text-anchor:middle"
         id="path1535" />
      <path
         d="m 89.733162,126.56774 v -1.43087 h 0.159334 v -0.15933 h 0.159335 v -0.15829 h 0.158286 v -0.15933 h 0.159335 v -0.15934 h 0.159335 v -0.15828 h 0.158286 v -0.63629 h -1.430867 v 0.47695 H 88.77925 v -0.95391 h 2.384779 v 1.43087 h -0.158286 v 0.15933 h -0.159335 v 0.15829 h -0.159335 v 0.15933 h -0.158286 v 0.15934 h -0.159335 v 0.15933 h -0.159335 v 1.1122 z"
         style="text-align:center;text-anchor:middle"
         id="path1537" />
      <path
         d="m 91.640986,126.56774 v -0.47695 h 0.476956 v 0.47695 z m 0,-1.90782 v -0.47696 h 0.476956 v 0.47696 z"
         style="text-align:center;text-anchor:middle"
         id="path1539" />
      <path
         d="m 94.185099,126.09079 v -0.15829 h 0.159335 v -0.15934 h 0.158286 v -1.11324 h -0.158286 v 0.15933 h -0.159335 v 0.15829 h -0.159334 v 0.15933 h -0.158287 v 0.15934 h -0.159334 v 0.15933 h -0.159335 v 0.15829 h -0.159335 v 0.15933 h -0.158286 v 0.15934 h 0.158286 v 0.15829 z m -0.953911,-0.95392 v -0.15933 h 0.158286 v -0.15829 h 0.159335 v -0.15933 h 0.159335 v -0.15934 h 0.159334 v -0.15828 h 0.158287 v -0.15934 h 0.159334 v -0.15933 h 0.159335 v -0.15829 h -0.159335 v -0.15933 h -0.795625 v 0.15933 h -0.158286 v 0.15829 h -0.159335 v 1.11324 z m -0.159335,1.43087 v -0.15829 h -0.159335 v -0.15933 h -0.158286 v -0.15933 h -0.159335 v -2.38478 h 0.159335 v -0.15934 h 0.158286 v -0.15933 h 0.159335 v -0.15829 h 1.430867 v 0.15829 h 0.159335 v 0.15933 h 0.159335 v 0.15934 h 0.158286 v 2.38478 H 94.82139 v 0.15933 h -0.159335 v 0.15933 H 94.50272 v 0.15829 z"
         style="text-align:center;text-anchor:middle"
         id="path1541" />
      <path
         d="m 97.046832,126.09079 v -0.15829 h 0.159334 v -0.15934 h 0.158287 v -1.11324 h -0.158287 v 0.15933 h -0.159334 v 0.15829 h -0.159335 v 0.15933 h -0.158286 v 0.15934 h -0.159335 v 0.15933 h -0.159335 v 0.15829 h -0.159334 v 0.15933 H 96.09292 v 0.15934 h 0.158287 v 0.15829 z m -0.953912,-0.95392 v -0.15933 h 0.158287 v -0.15829 h 0.159334 v -0.15933 h 0.159335 v -0.15934 h 0.159335 v -0.15828 h 0.158286 v -0.15934 h 0.159335 v -0.15933 h 0.159334 v -0.15829 h -0.159334 v -0.15933 h -0.795625 v 0.15933 H 96.09292 v 0.15829 h -0.159334 v 1.11324 z m -0.159334,1.43087 v -0.15829 h -0.159335 v -0.15933 h -0.158287 v -0.15933 H 95.45663 v -2.38478 h 0.159334 v -0.15934 h 0.158287 v -0.15933 h 0.159335 v -0.15829 h 1.430867 v 0.15829 h 0.159335 v 0.15933 h 0.159334 v 0.15934 h 0.158287 v 2.38478 h -0.158287 v 0.15933 h -0.159334 v 0.15933 h -0.159335 v 0.15829 z"
         style="text-align:center;text-anchor:middle"
         id="path1543" />
      <path
         d="m 101.57739,124.65992 v -0.63629 h -0.15829 v -0.15829 h -0.15933 v -0.15933 h -0.79563 v 0.15933 h -0.15828 v 0.15829 h -0.15934 v 0.63629 z m -1.907824,1.90782 v -2.86173 h 0.159335 v -0.15934 h 0.158286 v -0.15933 h 0.159333 v -0.15829 h 1.43087 v 0.15829 h 0.15933 v 0.15933 h 0.15934 v 0.15934 h 0.15829 v 2.86173 h -0.47696 v -1.43087 h -1.43087 v 1.43087 z"
         style="text-align:center;text-anchor:middle"
         id="path1545" />
      <path
         d="m 102.5313,126.56774 v -3.33869 h 0.47695 v 0.15829 h 0.15934 v 0.15933 h 0.15829 v 0.15934 h 0.15933 v 0.15933 h 0.15933 v 0.15829 h 0.15934 v -0.15829 h 0.15829 v -0.15933 h 0.15933 v -0.15934 h 0.15934 v -0.15933 h 0.15828 v -0.15829 h 0.47696 v 3.33869 h -0.47696 v -2.38478 h -0.15828 v 0.15934 h -0.15934 v 0.15828 h -0.15933 v 0.15934 h -0.47696 v -0.15934 h -0.15933 v -0.15828 h -0.15829 v -0.15934 h -0.15934 v 2.38478 z"
         style="text-align:center;text-anchor:middle"
         id="path1547" />
      <path
         d="m 107.22119,126.56774 v -0.15829 h -0.15933 v -0.15933 h -0.15829 v -0.15933 h -0.15933 v -2.86174 h 0.47695 v 0.95391 h 1.43087 v 0.47696 h -1.43087 v 1.11324 h 0.15934 v 0.15934 h 0.15828 v 0.15829 h 0.31867 v -0.15829 h 0.15934 v -0.15934 h 0.15828 v -0.63629 h 0.47696 v 0.95392 h -0.15829 v 0.15933 h -0.15933 v 0.15933 h -0.15934 v 0.15829 z"
         style="text-align:center;text-anchor:middle"
         id="path1549" />
      <path
         d="m 110.71922,126.09079 v -0.15829 h 0.15933 v -0.15934 h 0.15829 v -0.79562 h -0.15829 v -0.15829 h -0.15933 v -0.15933 h -0.79563 v 0.15933 h -0.15828 v 0.15829 h -0.15934 v 0.79562 h 0.15934 v 0.15934 h 0.15828 v 0.15829 z m -1.11325,0.47695 v -0.15829 h -0.15933 v -0.15933 h -0.15829 v -0.15933 h -0.15933 v -1.43087 h 0.15933 v -0.15934 h 0.15829 v -0.15828 h 0.15933 v -0.15934 h 1.43087 v 0.15934 h 0.15933 v 0.15828 h 0.15934 v 0.15934 h 0.15828 v 1.43087 h -0.15828 v 0.15933 h -0.15934 v 0.15933 h -0.15933 v 0.15829 z"
         style="text-align:center;text-anchor:middle"
         id="path1551" />
      <path
         d="m 113.34194,126.56774 v -0.47695 h 0.95392 v -2.38478 h -0.15934 v 0.15933 h -0.15828 v 0.15829 h -0.15934 v 0.15933 h -0.47696 v -0.47695 h 0.15934 v -0.15934 h 0.15829 v -0.15933 h 0.15933 v -0.15829 h 0.95391 v 2.86174 h 0.95391 v 0.47695 z"
         style="text-align:center;text-anchor:middle"
         id="path1553" />
      <path
         d="m 117.79389,126.09079 v -0.15829 h 0.15933 v -0.15934 h 0.15829 v -1.11324 h -0.15829 v 0.15933 h -0.15933 v 0.15829 h -0.15934 v 0.15933 h -0.15828 v 0.15934 h -0.15934 v 0.15933 h -0.15933 v 0.15829 h -0.15934 v 0.15933 h -0.15828 v 0.15934 h 0.15828 v 0.15829 z m -0.95391,-0.95392 v -0.15933 h 0.15828 v -0.15829 h 0.15934 v -0.15933 h 0.15933 v -0.15934 h 0.15934 v -0.15828 h 0.15828 v -0.15934 h 0.15934 v -0.15933 h 0.15933 v -0.15829 h -0.15933 v -0.15933 h -0.79563 v 0.15933 h -0.15828 v 0.15829 h -0.15934 v 1.11324 z m -0.15934,1.43087 v -0.15829 h -0.15933 v -0.15933 h -0.15829 v -0.15933 h -0.15934 v -2.38478 h 0.15934 v -0.15934 h 0.15829 v -0.15933 h 0.15933 v -0.15829 h 1.43087 v 0.15829 h 0.15933 v 0.15933 h 0.15934 v 0.15934 h 0.15828 v 2.38478 h -0.15828 v 0.15933 h -0.15934 v 0.15933 h -0.15933 v 0.15829 z"
         style="text-align:center;text-anchor:middle"
         id="path1555" />
      <path
         d="m 119.06542,126.56774 v -0.47695 h 0.47695 v 0.47695 z m 0,-1.90782 v -0.47696 h 0.47695 v 0.47696 z"
         style="text-align:center;text-anchor:middle"
         id="path1557" />
      <path
         d="m 121.60953,126.09079 v -0.15829 h 0.15933 v -0.15934 h 0.15829 v -1.11324 h -0.15829 v 0.15933 h -0.15933 v 0.15829 h -0.15933 v 0.15933 h -0.15829 v 0.15934 h -0.15934 v 0.15933 h -0.15933 v 0.15829 h -0.15933 v 0.15933 h -0.15829 v 0.15934 h 0.15829 v 0.15829 z m -0.95391,-0.95392 v -0.15933 h 0.15829 v -0.15829 h 0.15933 v -0.15933 h 0.15933 v -0.15934 h 0.15934 v -0.15828 h 0.15829 v -0.15934 h 0.15933 v -0.15933 h 0.15933 v -0.15829 h -0.15933 v -0.15933 h -0.79562 v 0.15933 h -0.15829 v 0.15829 h -0.15934 v 1.11324 z m -0.15934,1.43087 v -0.15829 h -0.15933 v -0.15933 h -0.15829 v -0.15933 h -0.15933 v -2.38478 h 0.15933 v -0.15934 h 0.15829 v -0.15933 h 0.15933 v -0.15829 h 1.43087 v 0.15829 h 0.15934 v 0.15933 h 0.15933 v 0.15934 h 0.15829 v 2.38478 h -0.15829 v 0.15933 h -0.15933 v 0.15933 h -0.15934 v 0.15829 z"
         style="text-align:center;text-anchor:middle"
         id="path1559" />
      <path
         d="m 124.47126,126.09079 v -0.15829 h 0.15934 v -0.15934 h 0.15828 v -1.11324 h -0.15828 v 0.15933 h -0.15934 v 0.15829 h -0.15933 v 0.15933 h -0.15829 v 0.15934 h -0.15933 v 0.15933 h -0.15934 v 0.15829 h -0.15933 v 0.15933 h -0.15829 v 0.15934 h 0.15829 v 0.15829 z m -0.95391,-0.95392 v -0.15933 h 0.15829 v -0.15829 h 0.15933 v -0.15933 h 0.15934 v -0.15934 h 0.15933 v -0.15828 h 0.15829 v -0.15934 h 0.15933 v -0.15933 h 0.15934 v -0.15829 h -0.15934 v -0.15933 h -0.79562 v 0.15933 h -0.15829 v 0.15829 h -0.15933 v 1.11324 z m -0.15933,1.43087 v -0.15829 h -0.15934 v -0.15933 h -0.15828 v -0.15933 h -0.15934 v -2.38478 h 0.15934 v -0.15934 h 0.15828 v -0.15933 h 0.15934 v -0.15829 h 1.43086 v 0.15829 h 0.15934 v 0.15933 h 0.15933 v 0.15934 h 0.15829 v 2.38478 h -0.15829 v 0.15933 h -0.15933 v 0.15933 h -0.15934 v 0.15829 z"
         style="text-align:center;text-anchor:middle"
         id="path1561" />
      <path
         d="m 128.6842,124.65992 v -0.15934 h 0.15933 v -0.15828 h 0.15829 v -0.31867 h -0.15829 v -0.15829 h -0.15933 v -0.15933 h -1.11325 v 0.95391 z m -1.5902,1.90782 v -3.33869 h 1.90782 v 0.15829 h 0.15933 v 0.15933 h 0.15934 v 0.15934 h 0.15829 v 0.95391 h -0.15829 v 0.15933 h -0.15934 v 0.15829 h -0.15933 v 0.15933 h -1.43087 v 1.43087 z"
         style="text-align:center;text-anchor:middle"
         id="path1563" />
      <path
         d="m 129.95573,126.56774 v -3.33869 h 0.47696 v 0.15829 h 0.15933 v 0.15933 h 0.15829 v 0.15934 h 0.15933 v 0.15933 h 0.15934 v 0.15829 h 0.15933 v -0.15829 h 0.15829 v -0.15933 h 0.15933 v -0.15934 h 0.15934 v -0.15933 h 0.15828 v -0.15829 h 0.47696 v 3.33869 h -0.47696 v -2.38478 h -0.15828 v 0.15934 h -0.15934 v 0.15828 h -0.15933 v 0.15934 h -0.47696 v -0.15934 h -0.15933 v -0.15828 h -0.15829 v -0.15934 h -0.15933 v 2.38478 z"
         style="text-align:center;text-anchor:middle"
         id="path1565" />
      <path
         d="m 135.75887,124.65992 v -0.15934 h 0.15933 v -0.15828 h 0.15829 v -0.31867 h -0.15829 v -0.15829 h -0.15933 v -0.15933 h -1.11325 v 0.95391 z m -1.5902,1.90782 v -3.33869 h 1.90782 v 0.15829 h 0.15933 v 0.15933 h 0.15934 v 0.15934 h 0.15828 v 0.95391 h -0.15828 v 0.15933 h -0.15934 v 0.15829 h -0.15933 v 0.15933 h -1.43087 v 1.43087 z"
         style="text-align:center;text-anchor:middle"
         id="path1567" />
      <path
         d="m 137.50735,126.56774 v -0.15829 h -0.15933 v -0.15933 h -0.15829 v -0.15933 h -0.15933 v -0.47696 h 0.47695 v 0.15933 h 0.15934 v 0.15934 h 0.15829 v 0.15829 h 0.79562 v -0.15829 h 0.15934 v -0.15934 h 0.15828 v -0.31762 h -0.15828 v -0.15933 h -0.15934 v -0.15934 h -1.11325 v -0.15933 h -0.15933 v -0.15829 h -0.15829 v -0.15933 h -0.15933 v -0.95391 h 0.15933 v -0.15934 h 0.15829 v -0.15933 h 0.15933 v -0.15829 h 1.43087 v 0.15829 h 0.15934 v 0.15933 h 0.15933 v 0.15934 h 0.15829 v 0.47695 h -0.47696 v -0.15933 h -0.15828 v -0.15829 h -0.15934 v -0.15933 h -0.79562 v 0.15933 h -0.15829 v 0.15829 h -0.15934 v 0.31867 h 0.15934 v 0.15828 h 0.15829 v 0.15934 h 1.11324 v 0.15933 h 0.15934 v 0.15829 h 0.15933 v 0.15933 h 0.15829 v 0.95392 h -0.15829 v 0.15933 h -0.15933 v 0.15933 h -0.15934 v 0.15829 z"
         style="text-align:center;text-anchor:middle"
         id="path1569" />
      <path
         d="m 140.84605,126.56774 v -2.86173 h -0.95391 v -0.47696 h 2.38478 v 0.47696 h -0.95391 v 2.86173 z"
         style="text-align:center;text-anchor:middle"
         id="path1571" />
      <path
         d="m 142.27796,127.52165 v -0.47695 h 0.15829 v -0.15934 h 0.15829 v -0.15933 h 0.15933 v -0.63524 h 0.47696 v 0.95391 h -0.15934 v 0.15828 h -0.15828 v 0.15934 h -0.15934 v 0.15933 z"
         style="text-align:center;text-anchor:middle"
         id="path1573" />
      <path
         d="m 146.64919,126.09079 v -0.15829 h 0.15933 v -0.15934 h 0.15829 v -0.79562 h -0.15829 v -0.15829 h -0.15933 v -0.15933 h -0.79563 v 0.15933 h -0.15828 v 0.15829 h -0.15934 v 0.79562 h 0.15934 v 0.15934 h 0.15828 v 0.15829 z m -1.11325,0.47695 v -0.15829 h -0.15933 v -0.15933 h -0.15829 v -0.15933 h -0.15933 v -1.43087 h 0.15933 v -0.15934 h 0.15829 v -0.15828 h 0.15933 v -0.15934 h 1.43087 v 0.15934 h 0.15933 v 0.15828 h 0.15934 v 0.15934 h 0.15828 v 1.43087 h -0.15828 v 0.15933 h -0.15934 v 0.15933 h -0.15933 v 0.15829 z"
         style="text-align:center;text-anchor:middle"
         id="path1575" />
      <path
         d="m 148.39767,126.56774 v -0.15829 h -0.15933 v -0.15933 h -0.15829 v -0.15933 h -0.15933 v -2.86174 h 0.47695 v 0.95391 h 1.43087 v 0.47696 h -1.43087 v 1.11324 h 0.15934 v 0.15934 h 0.15829 v 0.15829 h 0.31866 v -0.15829 h 0.15934 v -0.15934 h 0.15829 v -0.63629 h 0.47695 v 0.95392 h -0.15829 v 0.15933 h -0.15933 v 0.15933 h -0.15933 v 0.15829 z"
         style="text-align:center;text-anchor:middle"
         id="path1577" />
      <path
         d="m 150.3055,126.56774 v -3.33869 h 0.47695 v 1.43087 h 0.15934 v -0.15934 h 0.15829 v -0.15828 h 0.15933 v -0.15934 h 0.95391 v 0.15934 h 0.15934 v 0.15828 h 0.15933 v 0.15934 h 0.15829 v 1.90782 h -0.47696 v -1.5902 h -0.15828 v -0.15829 h -0.15934 v -0.15933 h -0.31762 v 0.15933 h -0.15933 v 0.15829 h -0.15934 v 0.15933 h -0.15933 v 0.15934 h -0.15829 v 0.15933 h -0.15934 v 1.1122 z"
         style="text-align:center;text-anchor:middle"
         id="path1579" />
      <path
         d="m 155.07505,125.13687 v -0.15933 h -0.15828 v -0.15829 h -0.15934 v -0.15933 h -0.79562 v 0.15933 h -0.15829 v 0.15829 h -0.15933 v 0.15933 z m -1.43086,1.43087 v -0.15829 h -0.15934 v -0.15933 h -0.15828 v -0.15933 h -0.15934 v -1.43087 h 0.15934 v -0.15934 h 0.15828 v -0.15828 h 0.15934 v -0.15934 h 1.43086 v 0.15934 h 0.15934 v 0.15828 h 0.15933 v 0.15934 h 0.15829 v 0.95391 h -1.90782 v 0.15933 h 0.15933 v 0.15934 h 0.15829 v 0.15829 h 1.5902 v 0.47695 z"
         style="text-align:center;text-anchor:middle"
         id="path1581" />
      <path
         d="m 156.02897,126.56774 v -2.38478 h 0.47696 v 0.47696 h 0.15933 v -0.15934 h 0.15829 v -0.15828 h 0.15933 v -0.15934 h 0.95391 v 0.15934 h 0.15934 v 0.15828 h 0.15933 v 0.15934 h 0.15829 v 0.47695 h -0.47696 v -0.15933 h -0.15828 v -0.15829 h -0.15934 v -0.15933 h -0.31762 v 0.15933 h -0.15933 v 0.15829 h -0.15934 v 0.15933 h -0.15933 v 0.15934 h -0.15829 v 0.15933 h -0.15933 v 1.1122 z"
         style="text-align:center;text-anchor:middle"
         id="path1583" />
      <path
         d="m 159.36765,126.56774 v -0.15829 h -0.15933 v -0.15933 h -0.15829 v -0.15933 h -0.15933 v -1.90783 h 0.47695 v 1.5902 h 0.15934 v 0.15934 h 0.15828 v -0.15934 h 0.15934 v -0.63629 h 0.47695 v 0.63629 h 0.15934 v 0.15934 h 0.15933 v -0.15934 h 0.15829 v -1.5902 h 0.47696 v 1.90783 h -0.15829 v 0.15933 h -0.15934 v 0.15933 h -0.15933 v 0.15829 h -0.47696 v -0.15829 h -0.15828 v -0.15933 h -0.15934 v 0.15933 h -0.15933 v 0.15829 z"
         style="text-align:center;text-anchor:middle"
         id="path1585" />
      <path
         d="m 161.75244,126.56774 v -2.38478 h 0.47695 v 2.38478 z m 0,-2.86173 v -0.47696 h 0.47695 v 0.47696 z"
         style="text-align:center;text-anchor:middle"
         id="path1587" />
      <path
         d="m 162.70634,126.56774 v -0.47695 h 1.5902 v -0.15829 h 0.15934 v -0.15934 h -0.15934 v -0.15933 h -1.11324 v -0.15829 h -0.15934 v -0.15933 h -0.15829 v -0.15934 h -0.15933 v -0.47695 h 0.15933 v -0.15934 h 0.15829 v -0.15828 h 0.15934 v -0.15934 h 1.90782 v 0.47696 h -1.5902 v 0.15933 h -0.15829 v 0.15829 h 0.15829 v 0.15933 h 1.11324 v 0.15934 h 0.15934 v 0.15933 h 0.15933 v 0.15829 h 0.15829 v 0.47696 h -0.15829 v 0.15933 h -0.15933 v 0.15933 h -0.15934 v 0.15829 z"
         style="text-align:center;text-anchor:middle"
         id="path1589" />
      <path
         d="m 167.4759,125.13687 v -0.15933 h -0.15828 v -0.15829 h -0.15934 v -0.15933 h -0.79562 v 0.15933 h -0.15829 v 0.15829 h -0.15933 v 0.15933 z m -1.43086,1.43087 v -0.15829 h -0.15934 v -0.15933 h -0.15829 v -0.15933 h -0.15933 v -1.43087 h 0.15933 v -0.15934 h 0.15829 v -0.15828 h 0.15934 v -0.15934 h 1.43086 v 0.15934 h 0.15934 v 0.15828 h 0.15933 v 0.15934 h 0.15829 v 0.95391 h -1.90782 v 0.15933 h 0.15933 v 0.15934 h 0.15829 v 0.15829 h 1.5902 v 0.47695 z"
         style="text-align:center;text-anchor:middle"
         id="path1591" />
      <path
         d="m 28.286059,132.88872 v -0.47696 h 1.113246 v -0.15933 h 0.159334 v -0.15934 h 0.158287 v -0.63524 h -1.430867 v -0.15829 h -0.159335 v -0.15933 h -0.158286 v -0.15934 h -0.159335 v -1.43086 h 0.476956 v 1.11324 h 0.159334 v 0.15934 h 0.158287 v 0.15828 h 1.113246 v -1.43086 h 0.476956 v 2.86173 h -0.158287 v 0.15829 h -0.159334 v 0.15933 h -0.159335 v 0.15934 z"
         style="text-align:center;text-anchor:middle"
         id="path1593" />
      <path
         d="m 32.261039,131.45785 v -0.15829 h 0.159335 v -0.15933 h 0.158287 v -0.79563 h -0.158287 v -0.15828 h -0.159335 v -0.15934 h -0.795625 v 0.15934 h -0.158286 v 0.15828 h -0.159335 v 0.79563 h 0.159335 v 0.15933 h 0.158286 v 0.15829 z m -1.113246,0.47695 v -0.15828 h -0.159334 v -0.15934 h -0.158287 v -0.15933 h -0.159335 v -1.43087 h 0.159335 v -0.15933 h 0.158287 v -0.15829 h 0.159334 v -0.15933 h 1.430868 v 0.15933 h 0.159334 v 0.15829 h 0.159335 v 0.15933 h 0.158286 v 1.43087 H 32.89733 v 0.15933 h -0.159335 v 0.15934 h -0.159334 v 0.15828 z"
         style="text-align:center;text-anchor:middle"
         id="path1595" />
      <path
         d="m 34.009528,131.9348 v -0.15828 h -0.159335 v -0.15934 h -0.158286 v -0.15933 h -0.159335 v -1.90782 h 0.476956 v 1.5902 h 0.159335 v 0.15933 h 0.158286 v 0.15829 h 0.318669 v -0.15829 h 0.159335 v -0.15933 h 0.158286 v -0.15934 h 0.159335 v -0.15828 h 0.159335 v -0.15934 h 0.158286 v -1.11324 h 0.476956 v 2.38477 h -0.476956 v -0.47695 h -0.158286 v 0.15933 h -0.159335 v 0.15934 h -0.159335 v 0.15828 z"
         style="text-align:center;text-anchor:middle"
         id="path1597" />
      <path
         d="m 36.394307,129.55003 v -0.95392 h 0.476956 v 0.95392 z"
         style="text-align:center;text-anchor:middle"
         id="path1599" />
      <path
         d="m 37.825175,131.9348 v -0.15828 H 37.66584 v -0.15934 h -0.158287 v -0.15933 h -0.159334 v -2.86174 h 0.476956 v 2.54412 h 0.159334 v 0.15933 h 0.158287 v 0.15829 h 0.63629 v 0.47695 z"
         style="text-align:center;text-anchor:middle"
         id="path1601" />
      <path
         d="m 39.732997,131.9348 v -0.15828 h -0.159335 v -0.15934 h -0.158286 v -0.15933 h -0.159335 v -2.86174 h 0.476956 v 2.54412 h 0.159335 v 0.15933 h 0.158286 v 0.15829 h 0.636291 v 0.47695 z"
         style="text-align:center;text-anchor:middle"
         id="path1603" />
      <path
         d="m 43.62831,131.45785 v -0.15829 h 0.159335 v -0.15933 h 0.158286 v -0.15934 h 0.159335 v -0.15828 h 0.159335 v -0.15934 h 0.158286 v -0.63629 h -1.113246 v 0.15934 h -0.158286 v 0.15828 H 42.99202 v 0.79563 h 0.159335 v 0.15933 h 0.158286 v 0.15829 z m -1.113246,1.43087 v -0.47696 h 1.590202 v -0.15933 h 0.159335 v -0.15934 h 0.158286 v -0.63524 h -0.158286 v 0.15933 h -0.159335 v 0.15934 h -0.159335 v 0.15828 H 42.99202 v -0.15828 h -0.159335 v -0.15934 h -0.158286 v -0.15933 h -0.159335 v -1.43087 h 0.159335 v -0.15933 h 0.158286 v -0.15829 h 0.159335 v -0.15933 h 1.907823 v 2.86173 h -0.158287 v 0.15829 h -0.159334 v 0.15933 h -0.159335 v 0.15934 z"
         style="text-align:center;text-anchor:middle"
         id="path1605" />
      <path
         d="m 47.284622,130.50394 v -0.15934 h -0.158287 v -0.15828 H 46.967 v -0.15934 h -0.795625 v 0.15934 h -0.158286 v 0.15828 h -0.159335 v 0.15934 z m -1.430868,1.43086 v -0.15828 H 45.69442 v -0.15934 h -0.158287 v -0.15933 h -0.159335 v -1.43087 h 0.159335 v -0.15933 h 0.158287 v -0.15829 h 0.159334 v -0.15933 h 1.430868 v 0.15933 h 0.159334 v 0.15829 h 0.159335 v 0.15933 h 0.158286 v 0.95391 h -1.907823 v 0.15934 h 0.159335 v 0.15933 h 0.158286 v 0.15829 h 1.590202 v 0.47695 z"
         style="text-align:center;text-anchor:middle"
         id="path1607" />
      <path
         d="m 48.715489,131.9348 v -0.15828 h -0.159335 v -0.15934 h -0.158286 v -0.15933 h -0.159335 v -2.86174 h 0.476956 v 0.95392 h 1.430867 v 0.47695 h -1.430867 v 1.11325 h 0.159334 v 0.15933 h 0.158287 v 0.15829 h 0.318669 v -0.15829 h 0.159335 v -0.15933 H 49.6694 v -0.63629 h 0.476956 v 0.95391 h -0.158287 v 0.15933 h -0.159334 v 0.15934 H 49.6694 v 0.15828 z"
         style="text-align:center;text-anchor:middle"
         id="path1609" />
      <path
         d="m 52.928423,131.9348 v -0.15828 h -0.159334 v -0.15934 h -0.158287 v -0.15933 h -0.159334 v -0.15829 h -0.159335 v -0.15933 h -0.158286 v -0.15934 h -0.159335 v -1.43086 h 0.476956 v 1.11324 h 0.159334 v 0.15934 h 0.158287 v 0.15828 h 0.159334 v 0.15934 h 0.159335 v 0.15933 h 0.159335 v -0.15933 h 0.158286 v -0.15934 h 0.159335 v -0.15828 h 0.159335 v -0.15934 h 0.158286 v -1.11324 h 0.476956 v 1.43086 h -0.158287 v 0.15934 H 54.04167 v 0.15933 h -0.159335 v 0.15829 h -0.158286 v 0.15933 h -0.159335 v 0.15934 h -0.159335 v 0.15828 z"
         style="text-align:center;text-anchor:middle"
         id="path1611" />
      <path
         d="m 56.426448,131.45785 v -0.15829 h 0.159335 v -0.15933 h 0.158286 v -0.79563 h -0.158286 v -0.15828 h -0.159335 v -0.15934 h -0.795625 v 0.15934 h -0.158286 v 0.15828 h -0.159335 v 0.79563 h 0.159335 v 0.15933 h 0.158286 v 0.15829 z m -1.113246,0.47695 v -0.15828 h -0.159335 v -0.15934 h -0.158286 v -0.15933 h -0.159335 v -1.43087 h 0.159335 v -0.15933 h 0.158286 v -0.15829 h 0.159335 v -0.15933 h 1.430867 v 0.15933 h 0.159335 v 0.15829 h 0.159335 v 0.15933 h 0.158286 v 1.43087 h -0.158286 v 0.15933 h -0.159335 v 0.15934 h -0.159335 v 0.15828 z"
         style="text-align:center;text-anchor:middle"
         id="path1613" />
      <path
         d="m 57.697981,131.9348 v -2.38477 h 0.476955 v 2.38477 z m 0,-2.86173 v -0.47696 h 0.476955 v 0.47696 z"
         style="text-align:center;text-anchor:middle"
         id="path1615" />
      <path
         d="m 59.128849,131.9348 v -0.15828 h -0.159334 v -0.15934 h -0.158287 v -0.15933 h -0.159335 v -1.43087 h 0.159335 v -0.15933 h 0.158287 v -0.15829 h 0.159334 v -0.15933 h 1.430868 v 0.15933 h 0.159334 v 0.15829 h 0.159335 v 0.15933 h 0.158286 v 0.47696 H 60.559717 V 130.3446 H 60.40143 v -0.15828 h -0.159335 v -0.15934 H 59.44647 v 0.15934 h -0.158286 v 0.15828 h -0.159335 v 0.79563 h 0.159335 v 0.15933 h 0.158286 v 0.15829 h 0.795625 v -0.15829 h 0.159335 v -0.15933 h 0.158287 v -0.15934 h 0.476955 v 0.47696 h -0.158286 v 0.15933 h -0.159335 v 0.15934 h -0.159334 v 0.15828 z"
         style="text-align:center;text-anchor:middle"
         id="path1617" />
      <path
         d="m 63.421451,130.50394 v -0.15934 h -0.158287 v -0.15828 H 63.10383 v -0.15934 h -0.795625 v 0.15934 h -0.158287 v 0.15828 h -0.159334 v 0.15934 z m -1.430867,1.43086 v -0.15828 h -0.159335 v -0.15934 h -0.158286 v -0.15933 h -0.159335 v -1.43087 h 0.159335 v -0.15933 h 0.158286 v -0.15829 h 0.159335 v -0.15933 h 1.430867 v 0.15933 h 0.159335 v 0.15829 h 0.159334 v 0.15933 h 0.158287 v 0.95391 h -1.907823 v 0.15934 h 0.159334 v 0.15933 h 0.158287 v 0.15829 h 1.590202 v 0.47695 z"
         style="text-align:center;text-anchor:middle"
         id="path1619" />
      <path
         d="m 64.375364,131.9348 v -2.38477 h 0.953912 v 0.15933 h 0.159334 v 0.15829 h 0.159335 v -0.15829 h 0.158286 v -0.15933 h 0.476956 v 0.15933 h 0.159335 v 0.15829 h 0.159335 v 0.15933 h 0.158286 v 1.90782 h -0.476956 v -1.5902 h -0.158286 v -0.15828 h -0.159335 v 0.15828 h -0.159335 v 0.63629 h -0.476955 v -0.63629 h -0.159335 v -0.15828 h -0.158286 v 0.15828 H 64.85232 v 1.5902 z"
         style="text-align:center;text-anchor:middle"
         id="path1621" />
      <path
         d="m 69.14492,131.45785 v -0.47696 h -1.113247 v 0.15934 h -0.158286 v 0.15933 h 0.158286 v 0.15829 z m -1.430868,0.47695 v -0.15828 h -0.159334 v -0.15934 h -0.158287 v -0.15933 h -0.159334 v -0.47696 h 0.159334 v -0.15828 h 0.158287 v -0.15934 h 0.159334 v -0.15933 h 1.430868 v -0.15934 h -0.158287 v -0.15828 h -0.159334 v -0.15934 h -1.113247 v -0.47695 h 1.430868 v 0.15933 h 0.159334 v 0.15829 h 0.159335 v 0.15933 h 0.158286 v 1.90782 z"
         style="text-align:center;text-anchor:middle"
         id="path1623" />
      <path
         d="m 70.098833,131.9348 v -2.38477 h 0.476956 v 2.38477 z m 0,-2.86173 v -0.47696 h 0.476956 v 0.47696 z"
         style="text-align:center;text-anchor:middle"
         id="path1625" />
      <path
         d="m 71.5297,131.9348 v -0.15828 h -0.159335 v -0.15934 h -0.158287 v -0.15933 h -0.159334 v -2.86174 H 71.5297 v 2.54412 h 0.159334 v 0.15933 h 0.158287 v 0.15829 h 0.63629 v 0.47695 z"
         style="text-align:center;text-anchor:middle"
         id="path1627" />
      <path
         d="m 72.960565,131.9348 v -0.47695 h 0.476956 v 0.47695 z"
         style="text-align:center;text-anchor:middle"
         id="path1629" />
      <path
         d="m 76.219588,131.9348 v -1.5902 h -0.159335 v -0.15828 h -0.158286 v -0.15934 h -0.159335 v -0.15933 h -0.159335 v -0.15829 h -0.158286 v -0.15933 h -0.159335 v -0.95392 h 0.476956 v 0.63629 h 0.159335 v 0.15829 h 0.158286 v 0.15934 h 0.159335 v 0.15933 h 0.159335 v 0.15829 h 0.159334 v -0.15829 h 0.158287 v -0.15933 h 0.159334 v -0.15934 h 0.159335 v -0.15829 h 0.158286 v -0.63629 h 0.476956 v 0.95392 h -0.158286 v 0.15933 h -0.159335 v 0.15829 h -0.159335 v 0.15933 h -0.158286 v 0.15934 h -0.159335 v 0.15828 h -0.159334 v 1.5902 z"
         style="text-align:center;text-anchor:middle"
         id="path1631" />
      <path
         d="m 79.717615,131.45785 v -0.15829 h 0.159334 v -0.15933 h 0.158287 v -0.79563 h -0.158287 v -0.15828 h -0.159334 v -0.15934 h -0.795626 v 0.15934 h -0.158286 v 0.15828 h -0.159335 v 0.79563 h 0.159335 v 0.15933 h 0.158286 v 0.15829 z m -1.113247,0.47695 v -0.15828 h -0.159334 v -0.15934 h -0.158287 v -0.15933 h -0.159334 v -1.43087 h 0.159334 v -0.15933 h 0.158287 v -0.15829 h 0.159334 v -0.15933 h 1.430868 v 0.15933 h 0.159334 v 0.15829 h 0.159335 v 0.15933 h 0.158286 v 1.43087 h -0.158286 v 0.15933 H 80.19457 v 0.15934 h -0.159334 v 0.15828 z"
         style="text-align:center;text-anchor:middle"
         id="path1633" />
      <path
         d="m 81.466105,131.9348 v -0.15828 H 81.30677 v -0.15934 h -0.158286 v -0.15933 h -0.159335 v -1.90782 h 0.476956 v 1.5902 h 0.159334 v 0.15933 h 0.158287 v 0.15829 h 0.318669 v -0.15829 h 0.159335 v -0.15933 h 0.158286 v -0.15934 h 0.159335 v -0.15828 h 0.159335 v -0.15934 h 0.158286 v -1.11324 h 0.476956 v 2.38477 h -0.476956 v -0.47695 h -0.158286 v 0.15933 h -0.159335 v 0.15934 h -0.159335 v 0.15828 z"
         style="text-align:center;text-anchor:middle"
         id="path1635" />
      <path
         d="m 85.679037,131.9348 v -0.15828 h -0.159334 v -0.15934 h -0.158287 v -0.15933 h -0.159334 v -1.43087 h 0.159334 v -0.15933 h 0.158287 v -0.15829 h 0.159334 v -0.15933 h 1.430868 v 0.15933 h 0.159334 v 0.15829 h 0.159335 v 0.15933 h 0.158286 v 0.47696 h -0.476955 v -0.15934 h -0.158287 v -0.15828 h -0.159335 v -0.15934 h -0.795625 v 0.15934 h -0.158286 v 0.15828 h -0.159335 v 0.79563 h 0.159335 v 0.15933 h 0.158286 v 0.15829 h 0.795625 v -0.15829 h 0.159335 v -0.15933 h 0.158287 v -0.15934 h 0.476955 v 0.47696 h -0.158286 v 0.15933 h -0.159335 v 0.15934 h -0.159334 v 0.15828 z"
         style="text-align:center;text-anchor:middle"
         id="path1637" />
      <path
         d="m 89.971641,131.45785 v -0.47696 h -1.113246 v 0.15934 h -0.158287 v 0.15933 h 0.158287 v 0.15829 z m -1.430867,0.47695 v -0.15828 h -0.159335 v -0.15934 h -0.158287 v -0.15933 h -0.159334 v -0.47696 h 0.159334 v -0.15828 h 0.158287 v -0.15934 h 0.159335 v -0.15933 h 1.430867 v -0.15934 h -0.158287 v -0.15828 H 89.65402 v -0.15934 h -1.113246 v -0.47695 h 1.430867 v 0.15933 h 0.159335 v 0.15829 h 0.159334 v 0.15933 h 0.158287 v 1.90782 z"
         style="text-align:center;text-anchor:middle"
         id="path1639" />
      <path
         d="m 90.92555,131.9348 v -2.38477 h 0.476956 v 0.47695 h 0.159335 v -0.15933 h 0.158286 v -0.15829 h 0.159335 v -0.15933 h 0.953911 v 0.15933 h 0.159335 v 0.15829 h 0.159335 v 0.15933 h 0.158286 v 1.90782 h -0.476956 v -1.5902 h -0.158286 v -0.15828 h -0.159335 v -0.15934 h -0.317621 v 0.15934 h -0.159335 v 0.15828 h -0.159334 v 0.15934 h -0.159335 v 0.15933 h -0.158286 v 0.15934 h -0.159335 v 1.11219 z"
         style="text-align:center;text-anchor:middle"
         id="path1641" />
      <path
         d="m 97.04631,131.45785 v -0.47696 h -1.113246 v 0.15934 h -0.158287 v 0.15933 h 0.158287 v 0.15829 z m -1.430868,0.47695 v -0.15828 h -0.159334 v -0.15934 h -0.158287 v -0.15933 h -0.159334 v -0.47696 h 0.159334 v -0.15828 h 0.158287 v -0.15934 h 0.159334 v -0.15933 h 1.430868 v -0.15934 h -0.158287 v -0.15828 h -0.159334 v -0.15934 h -1.113247 v -0.47695 h 1.430868 v 0.15933 h 0.159334 v 0.15829 h 0.159335 v 0.15933 h 0.158287 v 1.90782 z"
         style="text-align:center;text-anchor:middle"
         id="path1643" />
      <path
         d="m 98.477175,131.9348 v -0.15828 H 98.31784 v -0.15934 h -0.158286 v -0.15933 h -0.159335 v -2.86174 h 0.476956 v 2.54412 h 0.159335 v 0.15933 h 0.158286 v 0.15829 h 0.63629 v 0.47695 z"
         style="text-align:center;text-anchor:middle"
         id="path1645" />
      <path
         d="m 99.908041,131.9348 v -0.47695 h 1.590199 v -0.15829 h 0.15934 v -0.15933 h -0.15934 v -0.15934 H 100.385 v -0.15828 h -0.15934 v -0.15934 h -0.15828 v -0.15933 h -0.159339 v -0.47696 h 0.159339 v -0.15933 h 0.15828 v -0.15829 h 0.15934 v -0.15933 h 1.90782 v 0.47695 h -1.5902 v 0.15934 h -0.15829 v 0.15828 h 0.15829 v 0.15934 h 1.11324 v 0.15933 h 0.15934 v 0.15934 h 0.15933 v 0.15828 h 0.15829 v 0.47696 h -0.15829 v 0.15933 h -0.15933 v 0.15934 h -0.15934 v 0.15828 z"
         style="text-align:center;text-anchor:middle"
         id="path1647" />
      <path
         d="m 104.35998,131.45785 v -0.15829 h 0.15934 v -0.15933 h 0.15828 v -0.79563 h -0.15828 v -0.15828 h -0.15934 v -0.15934 h -0.79562 v 0.15934 h -0.15829 v 0.15828 h -0.15933 v 0.79563 h 0.15933 v 0.15933 h 0.15829 v 0.15829 z m -1.11324,0.47695 v -0.15828 h -0.15934 v -0.15934 h -0.15828 v -0.15933 h -0.15934 v -1.43087 h 0.15934 v -0.15933 h 0.15828 v -0.15829 h 0.15934 v -0.15933 h 1.43086 v 0.15933 h 0.15934 v 0.15829 h 0.15933 v 0.15933 h 0.15829 v 1.43087 h -0.15829 v 0.15933 h -0.15933 v 0.15934 h -0.15934 v 0.15828 z"
         style="text-align:center;text-anchor:middle"
         id="path1649" />
      <path
         d="m 107.45967,131.9348 v -0.15828 h -0.15934 v -0.15934 h -0.15829 v -0.15933 h -0.15933 v -2.86174 h 0.47696 v 2.54412 h 0.15933 v 0.15933 h 0.15829 v 0.15829 h 0.63629 v 0.47695 z"
         style="text-align:center;text-anchor:middle"
         id="path1651" />
      <path
         d="m 110.79836,130.50394 v -0.15934 h -0.15828 v -0.15828 h -0.15934 v -0.15934 h -0.79562 v 0.15934 h -0.15829 v 0.15828 h -0.15934 v 0.15934 z m -1.43087,1.43086 v -0.15828 h -0.15933 v -0.15934 h -0.15829 v -0.15933 h -0.15933 v -1.43087 h 0.15933 v -0.15933 h 0.15829 v -0.15829 h 0.15933 v -0.15933 h 1.43087 v 0.15933 h 0.15934 v 0.15829 h 0.15933 v 0.15933 h 0.15829 v 0.95391 h -1.90783 v 0.15934 h 0.15934 v 0.15933 h 0.15829 v 0.15829 h 1.5902 v 0.47695 z"
         style="text-align:center;text-anchor:middle"
         id="path1653" />
      <path
         d="m 113.66009,131.45785 v -0.47696 h -1.11324 v 0.15934 h -0.15829 v 0.15933 h 0.15829 v 0.15829 z m -1.43086,0.47695 v -0.15828 h -0.15934 v -0.15934 h -0.15828 v -0.15933 h -0.15934 v -0.47696 h 0.15934 v -0.15828 h 0.15828 v -0.15934 h 0.15934 v -0.15933 h 1.43086 v -0.15934 h -0.15828 v -0.15828 h -0.15934 v -0.15934 h -1.11324 v -0.47695 h 1.43086 v 0.15933 h 0.15934 v 0.15829 h 0.15933 v 0.15933 h 0.15829 v 1.90782 z"
         style="text-align:center;text-anchor:middle"
         id="path1655" />
      <path
         d="m 115.56792,131.9348 v -0.15828 h -0.15934 v -0.15934 h -0.15829 v -0.15933 h -0.15933 v -0.15829 h -0.15933 v -0.15933 h -0.15829 v -0.15934 H 114.614 v -1.43086 h 0.47696 v 1.11324 h 0.15933 v 0.15934 h 0.15829 v 0.15828 h 0.15934 v 0.15934 h 0.15933 v 0.15933 h 0.15933 v -0.15933 h 0.15829 v -0.15934 h 0.15934 v -0.15828 h 0.15933 v -0.15934 h 0.15829 v -1.11324 h 0.47695 v 1.43086 h -0.15828 v 0.15934 h -0.15934 v 0.15933 h -0.15933 v 0.15829 h -0.15829 v 0.15933 h -0.15933 v 0.15934 h -0.15934 v 0.15828 z"
         style="text-align:center;text-anchor:middle"
         id="path1657" />
      <path
         d="m 119.38356,130.50394 v -0.15934 h -0.15829 v -0.15828 h -0.15933 v -0.15934 h -0.79563 v 0.15934 h -0.15828 v 0.15828 h -0.15934 v 0.15934 z m -1.43087,1.43086 v -0.15828 h -0.15933 v -0.15934 h -0.15829 v -0.15933 h -0.15933 v -1.43087 h 0.15933 v -0.15933 h 0.15829 v -0.15829 h 0.15933 v -0.15933 h 1.43087 v 0.15933 h 0.15933 v 0.15829 h 0.15934 v 0.15933 h 0.15829 v 0.95391 h -1.90783 v 0.15934 h 0.15934 v 0.15933 h 0.15828 v 0.15829 h 1.59021 v 0.47695 z"
         style="text-align:center;text-anchor:middle"
         id="path1659" />
      <path
         d="m 123.5965,131.45785 v -0.47696 h -1.11325 v 0.15934 h -0.15829 v 0.15933 h 0.15829 v 0.15829 z m -1.43087,0.47695 v -0.15828 h -0.15934 v -0.15934 h -0.15828 v -0.15933 h -0.15934 v -0.47696 h 0.15934 v -0.15828 h 0.15828 v -0.15934 h 0.15934 v -0.15933 h 1.43087 v -0.15934 h -0.15829 v -0.15828 h -0.15934 v -0.15934 h -1.11324 v -0.47695 h 1.43087 v 0.15933 h 0.15933 v 0.15829 h 0.15934 v 0.15933 h 0.15828 v 1.90782 z"
         style="text-align:center;text-anchor:middle"
         id="path1661" />
      <path
         d="m 126.85552,131.9348 v -0.15828 h -0.15933 v -0.15934 h -0.15829 v -0.15933 h -0.15933 v -0.15829 h -0.15934 v -0.15933 h -0.15829 v -0.15934 h -0.15933 v -1.43086 h 0.47696 v 1.11324 h 0.15933 v 0.15934 h 0.15829 v 0.15828 h 0.15933 v 0.15934 h 0.15934 v 0.15933 h 0.15933 v -0.15933 h 0.15829 v -0.15934 h 0.15933 v -0.15828 h 0.15934 v -0.15934 h 0.15828 v -1.11324 h 0.47696 v 1.43086 h -0.15829 v 0.15934 h -0.15933 v 0.15933 h -0.15934 v 0.15829 h -0.15828 v 0.15933 h -0.15934 v 0.15934 h -0.15933 v 0.15828 z"
         style="text-align:center;text-anchor:middle"
         id="path1663" />
      <path
         d="m 130.35354,131.45785 v -0.15829 h 0.15934 v -0.15933 h 0.15828 v -0.79563 h -0.15828 v -0.15828 h -0.15934 v -0.15934 h -0.79562 v 0.15934 h -0.15829 v 0.15828 h -0.15933 v 0.79563 h 0.15933 v 0.15933 h 0.15829 v 0.15829 z m -1.11324,0.47695 v -0.15828 h -0.15934 v -0.15934 h -0.15828 v -0.15933 h -0.15934 v -1.43087 h 0.15934 v -0.15933 h 0.15828 v -0.15829 h 0.15934 v -0.15933 h 1.43086 v 0.15933 h 0.15934 v 0.15829 h 0.15933 v 0.15933 h 0.15829 v 1.43087 h -0.15829 v 0.15933 h -0.15933 v 0.15934 h -0.15934 v 0.15828 z"
         style="text-align:center;text-anchor:middle"
         id="path1665" />
      <path
         d="m 131.62508,131.9348 v -2.38477 h 0.47696 v 2.38477 z m 0,-2.86173 v -0.47696 h 0.47696 v 0.47696 z"
         style="text-align:center;text-anchor:middle"
         id="path1667" />
      <path
         d="m 133.05595,131.9348 v -0.15828 h -0.15934 v -0.15934 h -0.15828 v -0.15933 h -0.15934 v -1.43087 h 0.15934 v -0.15933 h 0.15828 v -0.15829 h 0.15934 v -0.15933 h 1.43087 v 0.15933 h 0.15933 v 0.15829 h 0.15934 v 0.15933 h 0.15828 v 0.47696 h -0.47695 v -0.15934 h -0.15829 v -0.15828 h -0.15934 v -0.15934 h -0.79562 v 0.15934 h -0.15829 v 0.15828 h -0.15933 v 0.79563 h 0.15933 v 0.15933 h 0.15829 v 0.15829 h 0.79562 v -0.15829 h 0.15934 v -0.15933 h 0.15829 v -0.15934 h 0.47695 v 0.47696 h -0.15828 v 0.15933 h -0.15934 v 0.15934 h -0.15933 v 0.15828 z"
         style="text-align:center;text-anchor:middle"
         id="path1669" />
      <path
         d="m 137.34855,130.50394 v -0.15934 h -0.15829 v -0.15828 h -0.15933 v -0.15934 h -0.79563 v 0.15934 h -0.15828 v 0.15828 h -0.15934 v 0.15934 z m -1.43087,1.43086 v -0.15828 h -0.15933 v -0.15934 h -0.15829 v -0.15933 h -0.15933 v -1.43087 h 0.15933 v -0.15933 h 0.15829 v -0.15829 h 0.15933 v -0.15933 h 1.43087 v 0.15933 h 0.15933 v 0.15829 h 0.15934 v 0.15933 h 0.15828 v 0.95391 h -1.90782 v 0.15934 h 0.15934 v 0.15933 h 0.15828 v 0.15829 h 1.5902 v 0.47695 z"
         style="text-align:center;text-anchor:middle"
         id="path1671" />
      <path
         d="m 138.30246,131.9348 v -2.38477 h 0.95391 v 0.15933 h 0.15933 v 0.15829 h 0.15934 v -0.15829 h 0.15828 v -0.15933 h 0.47696 v 0.15933 h 0.15934 v 0.15829 h 0.15933 v 0.15933 h 0.15829 v 1.90782 h -0.47696 v -1.5902 h -0.15829 v -0.15828 h -0.15933 v 0.15828 h -0.15934 v 0.63629 h -0.47695 v -0.63629 h -0.15934 v -0.15828 h -0.15828 v 0.15828 h -0.15934 v 1.5902 z"
         style="text-align:center;text-anchor:middle"
         id="path1673" />
      <path
         d="m 143.07201,131.45785 v -0.47696 h -1.11324 v 0.15934 h -0.15829 v 0.15933 h 0.15829 v 0.15829 z m -1.43086,0.47695 v -0.15828 h -0.15934 v -0.15934 h -0.15829 v -0.15933 h -0.15933 v -0.47696 h 0.15933 v -0.15828 h 0.15829 v -0.15934 h 0.15934 v -0.15933 h 1.43086 v -0.15934 h -0.15828 v -0.15828 h -0.15934 v -0.15934 h -1.11324 v -0.47695 h 1.43086 v 0.15933 h 0.15934 v 0.15829 h 0.15933 v 0.15933 h 0.15829 v 1.90782 z"
         style="text-align:center;text-anchor:middle"
         id="path1675" />
      <path
         d="m 144.02593,131.9348 v -2.38477 h 0.47696 v 2.38477 z m 0,-2.86173 v -0.47696 h 0.47696 v 0.47696 z"
         style="text-align:center;text-anchor:middle"
         id="path1677" />
      <path
         d="m 145.4568,131.9348 v -0.15828 h -0.15934 v -0.15934 h -0.15828 v -0.15933 h -0.15934 v -2.86174 h 0.47696 v 2.54412 h 0.15933 v 0.15933 h 0.15829 v 0.15829 h 0.63629 v 0.47695 z"
         style="text-align:center;text-anchor:middle"
         id="path1679" />
      <path
         d="m 148.23886,131.9348 v -2.38477 h 0.47695 v 2.38477 z m 0,-2.86173 v -0.47696 h 0.47695 v 0.47696 z"
         style="text-align:center;text-anchor:middle"
         id="path1681" />
      <path
         d="m 149.19278,131.9348 v -2.86173 h 0.15933 v -0.15934 h 0.15829 v -0.15933 h 0.15933 v -0.15829 h 0.95391 v 0.15829 h 0.15934 v 0.15933 h 0.15933 v 0.15934 h 0.15829 v 0.47696 h -0.47696 v -0.15934 h -0.15828 v -0.15829 h -0.15934 v -0.15933 h -0.31867 v 0.15933 h -0.15828 v 0.15829 h -0.15934 v 0.63629 h 1.43087 v 0.47696 h -1.43087 v 1.43086 z"
         style="text-align:center;text-anchor:middle"
         id="path1683" />
      <path
         d="m 153.40571,132.88872 v -0.47696 h 1.11325 v -0.15933 h 0.15933 v -0.15934 h 0.15829 v -0.63524 h -1.43087 v -0.15829 h -0.15933 v -0.15933 h -0.15829 v -0.15934 h -0.15934 v -1.43086 h 0.47696 v 1.11324 h 0.15934 v 0.15934 h 0.15828 v 0.15828 h 1.11325 v -1.43086 h 0.47695 v 2.86173 h -0.15828 v 0.15829 h -0.15934 v 0.15933 h -0.15933 v 0.15934 z"
         style="text-align:center;text-anchor:middle"
         id="path1685" />
      <path
         d="m 157.38069,131.45785 v -0.15829 h 0.15933 v -0.15933 h 0.15829 v -0.79563 h -0.15829 v -0.15828 h -0.15933 v -0.15934 h -0.79563 v 0.15934 h -0.15828 v 0.15828 h -0.15934 v 0.79563 h 0.15934 v 0.15933 h 0.15828 v 0.15829 z m -1.11325,0.47695 v -0.15828 h -0.15933 v -0.15934 h -0.15829 v -0.15933 h -0.15933 v -1.43087 h 0.15933 v -0.15933 h 0.15829 v -0.15829 h 0.15933 v -0.15933 h 1.43087 v 0.15933 h 0.15933 v 0.15829 h 0.15934 v 0.15933 h 0.15829 v 1.43087 h -0.15829 v 0.15933 h -0.15934 v 0.15934 h -0.15933 v 0.15828 z"
         style="text-align:center;text-anchor:middle"
         id="path1687" />
      <path
         d="m 159.12918,131.9348 v -0.15828 h -0.15933 v -0.15934 h -0.15829 v -0.15933 h -0.15933 v -1.90782 h 0.47695 v 1.5902 h 0.15934 v 0.15933 h 0.15828 v 0.15829 h 0.31867 v -0.15829 h 0.15934 v -0.15933 h 0.15828 v -0.15934 h 0.15934 v -0.15828 h 0.15933 v -0.15934 h 0.15829 v -1.11324 h 0.47696 v 2.38477 h -0.47696 v -0.47695 h -0.15829 v 0.15933 h -0.15933 v 0.15934 h -0.15934 v 0.15828 z"
         style="text-align:center;text-anchor:middle"
         id="path1689" />
      <path
         d="m 161.51395,131.9348 v -2.38477 h 0.47696 v 0.47695 h 0.15933 v -0.15933 h 0.15829 v -0.15829 h 0.15933 v -0.15933 h 0.95392 v 0.15933 h 0.15933 v 0.15829 h 0.15933 v 0.15933 h 0.15829 v 0.47696 h -0.47695 v -0.15934 h -0.15829 v -0.15828 h -0.15934 v -0.15934 h -0.31762 v 0.15934 h -0.15933 v 0.15828 h -0.15934 v 0.15934 h -0.15933 v 0.15933 h -0.15829 v 0.15934 h -0.15933 v 1.11219 z"
         style="text-align:center;text-anchor:middle"
         id="path1691" />
      <path
         d="m 166.28352,130.50394 v -0.15934 h -0.15829 v -0.15828 h -0.15934 v -0.15934 h -0.79562 v 0.15934 h -0.15829 v 0.15828 h -0.15933 v 0.15934 z m -1.43087,1.43086 v -0.15828 h -0.15934 v -0.15934 h -0.15828 v -0.15933 h -0.15934 v -1.43087 h 0.15934 v -0.15933 h 0.15828 v -0.15829 h 0.15934 v -0.15933 h 1.43087 v 0.15933 h 0.15933 v 0.15829 h 0.15933 v 0.15933 h 0.15829 v 0.95391 h -1.90782 v 0.15934 h 0.15933 v 0.15933 h 0.15829 v 0.15829 h 1.5902 v 0.47695 z"
         style="text-align:center;text-anchor:middle"
         id="path1693" />
      <path
         d="m 50.623312,137.30187 v -0.15829 h -0.159334 v -0.15933 h -0.158287 v -0.15934 h -0.159334 v -2.86173 h 0.476955 v 0.95391 h 1.430868 v 0.47695 h -1.430868 v 1.11325 h 0.159335 v 0.15933 h 0.158286 v 0.15829 h 0.31867 v -0.15829 h 0.159334 v -0.15933 h 0.158287 V 135.871 h 0.476956 v 0.95391 h -0.158287 v 0.15934 h -0.159335 v 0.15933 h -0.159334 v 0.15829 z"
         style="text-align:center;text-anchor:middle"
         id="path1695" />
      <path
         d="m 54.121337,136.82491 v -0.15829 h 0.159335 v -0.15933 h 0.158286 v -0.79563 h -0.158286 v -0.15828 h -0.159335 v -0.15934 h -0.795625 v 0.15934 h -0.158286 v 0.15828 h -0.159335 v 0.79563 h 0.159335 v 0.15933 h 0.158286 v 0.15829 z m -1.113246,0.47696 v -0.15829 h -0.159335 v -0.15933 H 52.69047 v -0.15934 h -0.159335 v -1.43087 h 0.159335 v -0.15933 h 0.158286 v -0.15829 h 0.159335 v -0.15933 h 1.430867 v 0.15933 h 0.159335 v 0.15829 h 0.159335 v 0.15933 h 0.158286 v 1.43087 h -0.158286 v 0.15934 h -0.159335 v 0.15933 h -0.159335 v 0.15829 z"
         style="text-align:center;text-anchor:middle"
         id="path1697" />
      <path
         d="m 56.983072,136.82491 v -0.15829 h 0.159335 v -0.15933 h 0.158286 v -0.79563 h -0.158286 v -0.15828 h -0.159335 v -0.15934 h -0.795625 v 0.15934 H 56.02916 v 0.15828 h -0.159334 v 0.79563 h 0.159334 v 0.15933 h 0.158287 v 0.15829 z m -1.113246,0.47696 v -0.15829 h -0.159335 v -0.15933 h -0.158286 v -0.15934 H 55.39287 v -1.43087 h 0.159335 v -0.15933 h 0.158286 v -0.15829 h 0.159335 v -0.15933 h 1.430867 v 0.15933 h 0.159335 v 0.15829 h 0.159334 v 0.15933 h 0.158287 v 1.43087 h -0.158287 v 0.15934 h -0.159334 v 0.15933 h -0.159335 v 0.15829 z"
         style="text-align:center;text-anchor:middle"
         id="path1699" />
      <path
         d="m 59.605804,137.30187 v -0.47696 h 1.590202 v -0.15829 h 0.159335 v -0.15933 h -0.159335 v -0.15933 H 60.08276 v -0.15829 h -0.159335 v -0.15934 H 59.765139 V 135.871 h -0.159335 v -0.47696 h 0.159335 v -0.15933 h 0.158286 v -0.15829 h 0.159335 v -0.15933 h 1.907823 v 0.47695 h -1.590202 v 0.15934 h -0.158286 v 0.15828 h 0.158286 v 0.15934 h 1.113246 v 0.15933 h 0.159335 v 0.15934 h 0.159335 v 0.15829 h 0.158286 v 0.47695 h -0.158286 v 0.15934 h -0.159335 v 0.15933 h -0.159335 v 0.15829 z"
         style="text-align:center;text-anchor:middle"
         id="path1701" />
      <path
         d="m 62.467539,137.30187 v -3.33869 h 0.476956 v 1.43086 h 0.159334 v -0.15933 h 0.158287 v -0.15829 h 0.159334 v -0.15933 h 0.953912 v 0.15933 h 0.159335 v 0.15829 h 0.159334 v 0.15933 h 0.158287 v 1.90783 h -0.476956 v -1.59021 h -0.158287 v -0.15828 h -0.159334 v -0.15934 H 63.74012 v 0.15934 h -0.159335 v 0.15828 H 63.42145 v 0.15934 h -0.159334 v 0.15933 h -0.158287 v 0.15934 h -0.159334 v 1.1122 z"
         style="text-align:center;text-anchor:middle"
         id="path1703" />
      <path
         d="m 65.80623,138.25578 v -0.47696 h 1.113246 v -0.15933 h 0.159335 v -0.15934 h 0.158286 v -0.63524 H 65.80623 v -0.15829 h -0.159335 v -0.15933 h -0.158286 v -0.15933 h -0.159335 v -1.43087 h 0.476956 v 1.11324 h 0.159335 v 0.15934 h 0.158286 v 0.15829 h 1.113246 v -1.43087 h 0.476956 v 2.86173 h -0.158286 v 0.15829 h -0.159335 v 0.15933 h -0.159335 v 0.15934 z"
         style="text-align:center;text-anchor:middle"
         id="path1705" />
      <path
         d="m 70.019163,137.30187 v -0.15829 h -0.159334 v -0.15933 h -0.158287 v -0.15934 h -0.159334 v -2.86173 h 0.476955 v 0.95391 h 1.430868 v 0.47695 h -1.430868 v 1.11325 h 0.159335 v 0.15933 h 0.158287 v 0.15829 h 0.318669 v -0.15829 h 0.159335 v -0.15933 h 0.158286 V 135.871 h 0.476956 v 0.95391 h -0.158287 v 0.15934 H 71.13241 v 0.15933 h -0.159335 v 0.15829 z"
         style="text-align:center;text-anchor:middle"
         id="path1707" />
      <path
         d="m 73.517189,136.82491 v -0.15829 h 0.159334 v -0.15933 h 0.158287 v -0.79563 h -0.158287 v -0.15828 h -0.159334 v -0.15934 h -0.795626 v 0.15934 h -0.158286 v 0.15828 h -0.159335 v 0.79563 h 0.159335 v 0.15933 h 0.158286 v 0.15829 z m -1.113247,0.47696 v -0.15829 h -0.159334 v -0.15933 h -0.158287 v -0.15934 h -0.159334 v -1.43087 h 0.159334 v -0.15933 h 0.158287 v -0.15829 h 0.159334 v -0.15933 h 1.430868 v 0.15933 h 0.159334 v 0.15829 h 0.159335 v 0.15933 h 0.158286 v 1.43087 h -0.158286 v 0.15934 h -0.159335 v 0.15933 H 73.83481 v 0.15829 z"
         style="text-align:center;text-anchor:middle"
         id="path1709" />
      <path
         d="m 76.616877,137.30187 v -0.15829 h -0.159335 v -0.15933 h -0.158286 v -0.15934 h -0.159335 v -1.43087 h 0.159335 v -0.15933 h 0.158286 v -0.15829 h 0.159335 v -0.15933 h 1.430867 v 0.15933 h 0.159335 v 0.15829 h 0.159335 v 0.15933 H 78.5247 v 0.47696 h -0.476956 v -0.15934 h -0.158286 v -0.15828 h -0.159335 v -0.15934 h -0.795625 v 0.15934 h -0.158286 v 0.15828 h -0.159335 v 0.79563 h 0.159335 v 0.15933 h 0.158286 v 0.15829 h 0.795625 v -0.15829 h 0.159335 v -0.15933 h 0.158286 v -0.15933 H 78.5247 v 0.47695 h -0.158286 v 0.15934 h -0.159335 v 0.15933 h -0.159335 v 0.15829 z"
         style="text-align:center;text-anchor:middle"
         id="path1711" />
      <path
         d="m 80.909479,136.82491 v -0.47695 h -1.113247 v 0.15933 h -0.158286 v 0.15933 h 0.158286 v 0.15829 z m -1.430868,0.47696 v -0.15829 h -0.159334 v -0.15933 H 79.16099 v -0.15934 h -0.159334 v -0.47695 h 0.159334 v -0.15829 h 0.158287 v -0.15934 h 0.159334 V 135.871 h 1.430868 v -0.15934 h -0.158287 v -0.15828 h -0.159335 v -0.15934 h -1.113246 v -0.47695 h 1.430868 v 0.15933 h 0.159334 v 0.15829 h 0.159335 v 0.15933 h 0.158286 v 1.90783 z"
         style="text-align:center;text-anchor:middle"
         id="path1713" />
      <path
         d="m 82.340348,137.30187 v -0.15829 h -0.159335 v -0.15933 h -0.158287 v -0.15934 h -0.159334 v -2.86173 h 0.476956 v 2.54411 h 0.159334 v 0.15933 h 0.158287 v 0.15829 h 0.63629 v 0.47696 z"
         style="text-align:center;text-anchor:middle"
         id="path1715" />
      <path
         d="m 84.248171,137.30187 v -0.15829 h -0.159335 v -0.15933 H 83.93055 v -0.15934 h -0.159335 v -2.86173 h 0.476956 v 2.54411 h 0.159335 v 0.15933 h 0.158286 v 0.15829 h 0.636291 v 0.47696 z"
         style="text-align:center;text-anchor:middle"
         id="path1717" />
      <path
         d="m 85.679037,137.30187 v -0.47696 h 0.476956 v 0.47696 z m 0,-0.95391 v -2.38478 h 0.476956 v 2.38478 z"
         style="text-align:center;text-anchor:middle"
         id="path1719" />
      <path
         d="m 87.984148,137.30187 v -0.47696 h 0.953911 v -2.38478 h -0.953911 v -0.47695 h 2.384779 v 0.47695 h -0.953912 v 2.38478 h 0.953912 v 0.47696 z"
         style="text-align:center;text-anchor:middle"
         id="path1721" />
      <path
         d="m 90.845884,134.91709 v -0.95391 h 0.476956 v 0.95391 z"
         style="text-align:center;text-anchor:middle"
         id="path1723" />
      <path
         d="m 92.276751,137.30187 v -0.15829 h -0.159335 v -0.15933 H 91.95913 v -0.15934 h -0.159335 v -2.86173 h 0.476956 v 2.54411 h 0.159335 v 0.15933 h 0.158286 v 0.15829 h 0.63629 v 0.47696 z"
         style="text-align:center;text-anchor:middle"
         id="path1725" />
      <path
         d="m 94.184573,137.30187 v -0.15829 h -0.159335 v -0.15933 h -0.158287 v -0.15934 h -0.159334 v -2.86173 h 0.476956 v 2.54411 h 0.159334 v 0.15933 h 0.158287 v 0.15829 h 0.63629 v 0.47696 z"
         style="text-align:center;text-anchor:middle"
         id="path1727" />
      <path
         d="m 96.966642,137.30187 v -2.38478 h 0.476956 v 0.47695 h 0.159335 v -0.15933 h 0.158286 v -0.15829 h 0.159335 v -0.15933 h 0.953911 v 0.15933 H 99.0338 v 0.15829 h 0.159335 v 0.15933 h 0.158286 v 0.47696 h -0.476956 v -0.15934 h -0.158286 v -0.15828 h -0.159335 v -0.15934 h -0.317621 v 0.15934 h -0.159334 v 0.15828 h -0.159335 v 0.15934 h -0.159335 v 0.15933 h -0.158286 v 0.15934 h -0.159335 v 1.1122 z"
         style="text-align:center;text-anchor:middle"
         id="path1729" />
      <path
         d="m 101.7362,135.871 v -0.15934 h -0.15829 v -0.15828 h -0.15933 v -0.15934 h -0.79563 v 0.15934 h -0.15828 v 0.15828 h -0.15934 v 0.15934 z m -1.43087,1.43087 v -0.15829 H 100.146 v -0.15933 h -0.158291 v -0.15934 h -0.159334 v -1.43087 h 0.159334 v -0.15933 H 100.146 v -0.15829 h 0.15933 v -0.15933 h 1.43087 v 0.15933 h 0.15933 v 0.15829 h 0.15934 v 0.15933 h 0.15828 v 0.95392 h -1.90782 v 0.15933 h 0.15934 v 0.15933 h 0.15828 v 0.15829 h 1.5902 v 0.47696 z"
         style="text-align:center;text-anchor:middle"
         id="path1731" />
      <path
         d="m 102.69011,137.30187 v -0.47696 h 1.5902 v -0.15829 h 0.15934 v -0.15933 h -0.15934 v -0.15933 h -1.11324 v -0.15829 h -0.15934 v -0.15934 h -0.15828 V 135.871 h -0.15934 v -0.47696 h 0.15934 v -0.15933 h 0.15828 v -0.15829 h 0.15934 v -0.15933 h 1.90782 v 0.47695 h -1.5902 v 0.15934 h -0.15829 v 0.15828 h 0.15829 v 0.15934 h 1.11324 v 0.15933 h 0.15934 v 0.15934 h 0.15933 v 0.15829 h 0.15829 v 0.47695 h -0.15829 v 0.15934 h -0.15933 v 0.15933 h -0.15934 v 0.15829 z"
         style="text-align:center;text-anchor:middle"
         id="path1733" />
      <path
         d="m 107.14205,136.82491 v -0.15829 h 0.15933 v -0.15933 h 0.15829 v -0.79563 h -0.15829 v -0.15828 h -0.15933 v -0.15934 h -0.31763 v 0.15934 h -0.15933 v 0.15828 h -0.15933 v 0.15934 h -0.15934 v 0.15933 h -0.15829 v 0.15934 h -0.15933 v 0.63524 z m -1.59021,1.43087 v -3.33869 h 0.47696 v 0.47695 h 0.15933 v -0.15933 h 0.15829 v -0.15829 h 0.15934 v -0.15933 h 0.95391 v 0.15933 h 0.15933 v 0.15829 h 0.15934 v 0.15933 h 0.15828 v 1.43087 h -0.15828 v 0.15934 H 107.619 v 0.15933 h -0.15933 v 0.15829 h -1.43087 v 0.95391 z"
         style="text-align:center;text-anchor:middle"
         id="path1735" />
      <path
         d="m 110.00378,136.82491 v -0.15829 h 0.15934 v -0.15933 h 0.15828 v -0.79563 h -0.15828 v -0.15828 h -0.15934 v -0.15934 h -0.79562 v 0.15934 h -0.15829 v 0.15828 h -0.15933 v 0.79563 h 0.15933 v 0.15933 h 0.15829 v 0.15829 z m -1.11324,0.47696 v -0.15829 h -0.15934 v -0.15933 h -0.15829 v -0.15934 h -0.15933 v -1.43087 h 0.15933 v -0.15933 h 0.15829 v -0.15829 h 0.15934 v -0.15933 h 1.43086 v 0.15933 h 0.15934 v 0.15829 h 0.15933 v 0.15933 h 0.15829 v 1.43087 h -0.15829 v 0.15934 h -0.15933 v 0.15933 h -0.15934 v 0.15829 z"
         style="text-align:center;text-anchor:middle"
         id="path1737" />
      <path
         d="m 111.27531,137.30187 v -2.38478 h 0.47696 v 0.47695 h 0.15933 v -0.15933 h 0.15829 v -0.15829 h 0.15933 v -0.15933 h 0.95392 v 0.15933 h 0.15933 v 0.15829 h 0.15933 v 0.15933 h 0.15829 v 1.90783 h -0.47695 v -1.59021 h -0.15829 v -0.15828 h -0.15934 v -0.15934 h -0.31762 v 0.15934 h -0.15933 v 0.15828 h -0.15934 v 0.15934 h -0.15933 v 0.15933 h -0.15829 v 0.15934 h -0.15933 v 1.1122 z"
         style="text-align:center;text-anchor:middle"
         id="path1739" />
      <path
         d="m 116.04487,136.82491 v -0.63524 h -0.15828 v -0.15934 h -0.15934 V 135.871 h -0.15933 v -0.15934 h -0.15829 v -0.15828 h -0.15934 v -0.15934 h -0.31866 v 0.15934 h -0.15829 v 0.15828 H 114.614 v 0.79563 h 0.15934 v 0.15933 h 0.15829 v 0.15829 z m -1.43087,0.47696 v -0.15829 h -0.15933 v -0.15933 h -0.15829 v -0.15934 h -0.15933 v -1.43087 h 0.15933 v -0.15933 h 0.15829 v -0.15829 h 0.15933 v -0.15933 h 0.95392 v 0.15933 h 0.15933 v 0.15829 h 0.15934 v 0.15933 h 0.15828 v -1.43086 h 0.47696 v 3.33869 z"
         style="text-align:center;text-anchor:middle"
         id="path1741" />
      <path
         d="m 118.82694,137.30187 v -0.15829 h -0.15933 v -0.15933 h -0.15829 v -0.15934 h -0.15933 v -1.90782 h 0.47695 v 1.5902 h 0.15934 v 0.15933 h 0.15828 v -0.15933 h 0.15934 V 135.871 h 0.47695 v 0.63629 h 0.15934 v 0.15933 h 0.15933 v -0.15933 h 0.15829 v -1.5902 h 0.47695 v 1.90782 h -0.15828 v 0.15934 h -0.15934 v 0.15933 h -0.15933 v 0.15829 h -0.47696 v -0.15829 h -0.15828 v -0.15933 h -0.15934 v 0.15933 h -0.15933 v 0.15829 z"
         style="text-align:center;text-anchor:middle"
         id="path1743" />
      <path
         d="m 121.21172,137.30187 v -3.33869 h 0.47695 v 1.43086 h 0.15934 v -0.15933 h 0.15828 v -0.15829 h 0.15934 v -0.15933 h 0.95391 v 0.15933 h 0.15934 v 0.15829 h 0.15933 v 0.15933 h 0.15829 v 1.90783 h -0.47696 v -1.59021 h -0.15829 v -0.15828 h -0.15933 v -0.15934 h -0.31762 v 0.15934 h -0.15934 v 0.15828 h -0.15933 v 0.15934 h -0.15934 v 0.15933 h -0.15828 v 0.15934 h -0.15934 v 1.1122 z"
         style="text-align:center;text-anchor:middle"
         id="path1745" />
      <path
         d="m 125.98127,135.871 v -0.15934 h -0.15828 v -0.15828 h -0.15934 v -0.15934 h -0.79562 v 0.15934 h -0.15829 v 0.15828 h -0.15933 v 0.15934 z m -1.43086,1.43087 v -0.15829 h -0.15934 v -0.15933 h -0.15829 v -0.15934 h -0.15933 v -1.43087 h 0.15933 v -0.15933 h 0.15829 v -0.15829 h 0.15934 v -0.15933 h 1.43086 v 0.15933 h 0.15934 v 0.15829 h 0.15933 v 0.15933 h 0.15829 v 0.95392 h -1.90782 v 0.15933 h 0.15933 v 0.15933 h 0.15829 v 0.15829 h 1.5902 v 0.47696 z"
         style="text-align:center;text-anchor:middle"
         id="path1747" />
      <path
         d="m 126.93519,137.30187 v -2.38478 h 0.47696 v 0.47695 h 0.15933 v -0.15933 h 0.15829 v -0.15829 h 0.15933 v -0.15933 h 0.95391 v 0.15933 h 0.15934 v 0.15829 h 0.15933 v 0.15933 h 0.15829 v 1.90783 h -0.47696 v -1.59021 h -0.15828 v -0.15828 h -0.15934 v -0.15934 h -0.31762 v 0.15934 h -0.15933 v 0.15828 h -0.15934 v 0.15934 h -0.15933 v 0.15933 h -0.15829 v 0.15934 h -0.15933 v 1.1122 z"
         style="text-align:center;text-anchor:middle"
         id="path1749" />
      <path
         d="m 131.14812,137.30187 v -0.47696 h 0.95391 v -2.38478 h -0.95391 v -0.47695 h 2.38478 v 0.47695 h -0.95391 v 2.38478 h 0.95391 v 0.47696 z"
         style="text-align:center;text-anchor:middle"
         id="path1751" />
      <path
         d="m 135.83801,137.30187 v -0.15829 h -0.15933 v -0.15933 h -0.15829 v -0.15934 h -0.15933 v -1.43087 h 0.15933 v -0.15933 h 0.15829 v -0.15829 h 0.15933 v -0.15933 h 1.43087 v 0.15933 h 0.15933 v 0.15829 h 0.15934 v 0.15933 h 0.15828 v 0.47696 h -0.47695 v -0.15934 h -0.15829 v -0.15828 h -0.15933 v -0.15934 h -0.79563 v 0.15934 h -0.15828 v 0.15828 h -0.15934 v 0.79563 h 0.15934 v 0.15933 h 0.15828 v 0.15829 h 0.79563 v -0.15829 h 0.15933 v -0.15933 h 0.15829 v -0.15933 h 0.47695 v 0.47695 h -0.15828 v 0.15934 h -0.15934 v 0.15933 h -0.15933 v 0.15829 z"
         style="text-align:center;text-anchor:middle"
         id="path1753" />
      <path
         d="m 140.13061,136.82491 v -0.47695 h -1.11325 v 0.15933 h -0.15828 v 0.15933 h 0.15828 v 0.15829 z m -1.43087,0.47696 v -0.15829 h -0.15933 v -0.15933 h -0.15829 v -0.15934 h -0.15933 v -0.47695 h 0.15933 v -0.15829 h 0.15829 v -0.15934 h 0.15933 V 135.871 h 1.43087 v -0.15934 h -0.15829 v -0.15828 h -0.15933 v -0.15934 h -1.11325 v -0.47695 h 1.43087 v 0.15933 h 0.15934 v 0.15829 h 0.15933 v 0.15933 h 0.15829 v 1.90783 z"
         style="text-align:center;text-anchor:middle"
         id="path1755" />
      <path
         d="m 141.08453,137.30187 v -2.38478 h 0.47695 v 0.47695 h 0.15934 v -0.15933 h 0.15828 v -0.15829 h 0.15934 v -0.15933 h 0.95391 v 0.15933 h 0.15934 v 0.15829 h 0.15933 v 0.15933 h 0.15829 v 1.90783 h -0.47696 v -1.59021 h -0.15829 v -0.15828 h -0.15933 v -0.15934 h -0.31762 v 0.15934 h -0.15934 v 0.15828 h -0.15933 v 0.15934 h -0.15934 v 0.15933 h -0.15828 v 0.15934 h -0.15934 v 1.1122 z"
         style="text-align:center;text-anchor:middle"
         id="path1757" />
      <path
         d="m 143.94626,137.30187 v -0.47696 h 0.47696 v 0.47696 z m 0,-0.95391 v -2.38478 h 0.47696 v 2.38478 z"
         style="text-align:center;text-anchor:middle"
         id="path1759" />
    </g>
    <g
       transform="matrix(0.26458333,0,0,0.26458333,20.977541,105.99313)"
       id="text750"
       style="font-size:18.6667px;font-family:Retron2000;-inkscape-font-specification:Retron2000;text-align:center;white-space:pre;shape-inside:url(#rect752);fill:#ffffff" />
  </g>
</svg>
