<?xml version="1.0" encoding="UTF-8" standalone="no"?>
<!-- Created with Inkscape (http://www.inkscape.org/) -->

<svg
   width="151.42262mm"
   height="32.26265mm"
   viewBox="0 0 151.42262 32.262649"
   version="1.1"
   id="svg5"
   inkscape:version="1.2.2 (732a01da63, 2022-12-09)"
   sodipodi:docname="phonenumdescr.svg"
   xmlns:inkscape="http://www.inkscape.org/namespaces/inkscape"
   xmlns:sodipodi="http://sodipodi.sourceforge.net/DTD/sodipodi-0.dtd"
   xmlns="http://www.w3.org/2000/svg"
   xmlns:svg="http://www.w3.org/2000/svg">
  <sodipodi:namedview
     id="namedview7"
     pagecolor="#505050"
     bordercolor="#ffffff"
     borderopacity="1"
     inkscape:showpageshadow="0"
     inkscape:pageopacity="0"
     inkscape:pagecheckerboard="1"
     inkscape:deskcolor="#505050"
     inkscape:document-units="mm"
     showgrid="false"
     showguides="false"
     inkscape:zoom="1.4912879"
     inkscape:cx="243.74904"
     inkscape:cy="24.140208"
     inkscape:window-width="1920"
     inkscape:window-height="1017"
     inkscape:window-x="-8"
     inkscape:window-y="-1"
     inkscape:window-maximized="1"
     inkscape:current-layer="text468" />
  <defs
     id="defs2">
    <rect
       x="573.73174"
       y="144.61833"
       width="74.442878"
       height="19.440497"
       id="rect932" />
    <rect
       x="481.74499"
       y="110.00476"
       width="334.75587"
       height="24.65624"
       id="rect752" />
    <clipPath
       clipPathUnits="userSpaceOnUse"
       id="clipPath1309">
      <g
         inkscape:label="Layer 1"
         inkscape:groupmode="layer"
         id="g1315"
         clip-path="none"
         mask="none"
         style="display:inline">
        <text
           xml:space="preserve"
           style="font-size:19.7556px;font-family:Retron2000;-inkscape-font-specification:Retron2000;fill:#d45500;stroke-width:0.264583"
           x="19.516129"
           y="121.35484"
           id="text1313"><tspan
             sodipodi:role="line"
             id="tspan1311"
             style="font-size:19.7556px;fill:#d45500;stroke-width:0.264583"
             x="19.516129"
             y="121.35484">909-500-2035</tspan></text>
      </g>
    </clipPath>
  </defs>
  <g
     inkscape:groupmode="layer"
     id="layer4"
     inkscape:label="Layer 3"
     style="display:inline"
     transform="translate(-20.977541,-105.99313)">
    <g
       aria-label="909-500-2035"
       id="text981"
       style="font-size:19.7556px;font-family:Retron2000;-inkscape-font-specification:Retron2000;display:inline;fill:#d45500;stroke-width:0.264583">
      <path
         d="m 29.755664,112.57672 v -2.92765 H 29.02737 v -0.72829 h -0.733118 v -0.73312 h -3.660767 v 0.73312 H 23.90519 v 0.72829 h -0.733118 v 1.46624 h 0.733118 v 0.72829 h 0.728295 v 0.73312 z m -6.583592,8.77812 v -0.72829 h -0.733118 v -0.73312 h -0.728295 v -0.73312 h -0.733118 v -2.19453 h 2.194531 v 0.73312 h 0.733118 v 0.73312 h 0.728295 v 0.72829 h 3.660767 v -0.72829 h 0.733118 v -0.73312 h 0.728294 v -2.92765 h -6.583592 v -0.73312 h -0.733118 v -0.72829 h -0.728295 v -0.73312 h -0.733118 v -4.38906 h 0.733118 v -0.73312 h 0.728295 v -0.73312 h 0.733118 v -0.72829 h 6.583592 v 0.72829 h 0.733118 v 0.73312 H 31.2219 v 0.73312 h 0.728295 v 10.97265 H 31.2219 v 0.73312 h -0.733118 v 0.73312 h -0.733118 v 0.72829 z"
         id="path1234" />
      <path
         d="m 41.461436,119.16031 v -0.72829 h 0.733118 v -0.73312 h 0.728295 v -5.12218 h -0.728295 v 0.73312 h -0.733118 v 0.72829 h -0.733118 v 0.73312 h -0.728294 v 0.73312 h -0.733118 v 0.73312 h -0.733118 v 0.72829 H 37.80067 v 0.73312 h -0.728295 v 0.73312 h 0.728295 v 0.72829 z m -4.389061,-4.38906 v -0.73312 h 0.728295 v -0.72829 h 0.733118 v -0.73312 h 0.733118 v -0.73312 h 0.733118 v -0.72829 h 0.728294 v -0.73312 h 0.733118 v -0.73312 h 0.733118 v -0.72829 h -0.733118 v -0.73312 H 37.80067 v 0.73312 h -0.728295 v 0.72829 h -0.733118 v 5.12218 z m -0.733118,6.58359 v -0.72829 h -0.733118 v -0.73312 h -0.728295 v -0.73312 h -0.733118 v -10.97265 h 0.733118 v -0.73312 h 0.728295 v -0.73312 h 0.733118 v -0.72829 h 6.583592 v 0.72829 h 0.733118 v 0.73312 h 0.733118 v 0.73312 h 0.728295 v 10.97265 h -0.728295 v 0.73312 h -0.733118 v 0.73312 h -0.733118 v 0.72829 z"
         id="path1236" />
      <path
         d="m 56.090034,112.57672 v -2.92765 h -0.728295 v -0.72829 h -0.733118 v -0.73312 h -3.660766 v 0.73312 H 50.23956 v 0.72829 h -0.733118 v 1.46624 h 0.733118 v 0.72829 h 0.728295 v 0.73312 z m -6.583592,8.77812 v -0.72829 h -0.733118 v -0.73312 h -0.728295 v -0.73312 h -0.733118 v -2.19453 h 2.194531 v 0.73312 h 0.733118 v 0.73312 h 0.728295 v 0.72829 h 3.660766 v -0.72829 h 0.733118 v -0.73312 h 0.728295 v -2.92765 h -6.583592 v -0.73312 h -0.733118 v -0.72829 h -0.728295 v -0.73312 h -0.733118 v -4.38906 h 0.733118 v -0.73312 h 0.728295 v -0.73312 h 0.733118 v -0.72829 h 6.583592 v 0.72829 h 0.733118 v 0.73312 h 0.733118 v 0.73312 h 0.728295 v 10.97265 H 57.55627 v 0.73312 h -0.733118 v 0.73312 h -0.733118 v 0.72829 z"
         id="path1238" />
      <path
         d="m 60.479098,114.77125 v -2.19453 h 8.778123 v 2.19453 z"
         id="path1240" />
      <path
         d="m 73.646281,121.35484 v -0.72829 h -0.733118 v -0.73312 h -0.728295 v -0.73312 H 71.45175 v -2.19453 h 2.194531 v 0.73312 h 0.733118 v 0.73312 h 0.728295 v 0.72829 h 3.660766 v -0.72829 h 0.733118 v -0.73312 h 0.728295 v -1.46141 h -0.728295 v -0.73312 H 78.76846 v -0.73312 h -7.31671 v -8.77812 h 10.972654 v 2.19453 h -8.778123 v 4.38906 h 6.583592 v 0.73312 h 0.733118 v 0.72829 h 0.733118 v 0.73312 h 0.728295 v 4.38906 h -0.728295 v 0.73312 h -0.733118 v 0.73312 h -0.733118 v 0.72829 z"
         id="path1242" />
      <path
         d="m 91.935643,119.16031 v -0.72829 h 0.733118 v -0.73312 h 0.728295 v -5.12218 h -0.728295 v 0.73312 h -0.733118 v 0.72829 h -0.733118 v 0.73312 h -0.728294 v 0.73312 h -0.733118 v 0.73312 h -0.733118 v 0.72829 h -0.733118 v 0.73312 h -0.728295 v 0.73312 h 0.728295 v 0.72829 z m -4.389061,-4.38906 v -0.73312 h 0.728295 v -0.72829 h 0.733118 v -0.73312 h 0.733118 v -0.73312 h 0.733118 v -0.72829 h 0.728294 v -0.73312 h 0.733118 v -0.73312 h 0.733118 v -0.72829 h -0.733118 v -0.73312 h -3.660766 v 0.73312 h -0.728295 v 0.72829 h -0.733118 v 5.12218 z m -0.733118,6.58359 v -0.72829 h -0.733118 v -0.73312 h -0.728295 v -0.73312 h -0.733118 v -10.97265 h 0.733118 v -0.73312 h 0.728295 v -0.73312 h 0.733118 v -0.72829 h 6.583592 v 0.72829 h 0.733118 v 0.73312 h 0.733118 v 0.73312 h 0.728295 v 10.97265 h -0.728295 v 0.73312 h -0.733118 v 0.73312 h -0.733118 v 0.72829 z"
         id="path1244" />
      <path
         d="m 105.10283,119.16031 v -0.72829 h 0.73312 v -0.73312 h 0.72829 v -5.12218 h -0.72829 v 0.73312 h -0.73312 v 0.72829 h -0.73312 v 0.73312 h -0.72829 v 0.73312 h -0.73312 v 0.73312 h -0.73312 v 0.72829 h -0.73312 v 0.73312 h -0.72829 v 0.73312 h 0.72829 v 0.72829 z m -4.38906,-4.38906 v -0.73312 h 0.72829 v -0.72829 h 0.73312 v -0.73312 h 0.73312 v -0.73312 h 0.73312 v -0.72829 h 0.72829 v -0.73312 h 0.73312 v -0.73312 h 0.73312 v -0.72829 h -0.73312 v -0.73312 h -3.66077 v 0.73312 h -0.72829 v 0.72829 h -0.733119 v 5.12218 z m -0.733119,6.58359 v -0.72829 h -0.733118 v -0.73312 h -0.728295 v -0.73312 H 97.78612 v -10.97265 h 0.733118 v -0.73312 h 0.728295 v -0.73312 h 0.733118 v -0.72829 h 6.583589 v 0.72829 h 0.73312 v 0.73312 h 0.73312 v 0.73312 h 0.72829 v 10.97265 h -0.72829 v 0.73312 h -0.73312 v 0.73312 h -0.73312 v 0.72829 z"
         id="path1246" />
      <path
         d="m 110.9533,114.77125 v -2.19453 h 8.77813 v 2.19453 z"
         id="path1248" />
      <path
         d="m 121.92596,121.35484 v -6.58359 h 0.73312 v -0.73312 h 0.72829 v -0.72829 h 0.73312 v -0.73312 h 5.12218 v -0.73312 h 0.73312 v -0.72829 h 0.72829 v -1.46624 h -0.72829 v -0.72829 h -0.73312 v -0.73312 h -3.66077 v 0.73312 h -0.72829 v 0.72829 h -0.73312 v 0.73312 h -2.19453 v -2.19453 h 0.73312 v -0.73312 h 0.72829 v -0.73312 h 0.73312 v -0.72829 h 6.58359 v 0.72829 h 0.73312 v 0.73312 h 0.73312 v 0.73312 h 0.72829 v 4.38906 h -0.72829 v 0.73312 h -0.73312 v 0.72829 h -0.73312 v 0.73312 h -5.12218 v 0.73312 h -0.72829 v 0.73312 h -0.73312 v 2.92282 h 6.58359 v -2.19453 h 2.19453 v 4.38906 z"
         id="path1250" />
      <path
         d="m 142.40985,119.16031 v -0.72829 h 0.73312 v -0.73312 h 0.72829 v -5.12218 h -0.72829 v 0.73312 h -0.73312 v 0.72829 h -0.73312 v 0.73312 h -0.72829 v 0.73312 h -0.73312 v 0.73312 h -0.73312 v 0.72829 h -0.73311 v 0.73312 h -0.7283 v 0.73312 h 0.7283 v 0.72829 z m -4.38906,-4.38906 v -0.73312 h 0.7283 v -0.72829 h 0.73311 v -0.73312 h 0.73312 v -0.73312 h 0.73312 v -0.72829 h 0.72829 v -0.73312 h 0.73312 v -0.73312 h 0.73312 v -0.72829 h -0.73312 v -0.73312 h -3.66076 v 0.73312 h -0.7283 v 0.72829 h -0.73312 v 5.12218 z m -0.73312,6.58359 v -0.72829 h -0.73312 v -0.73312 h -0.72829 v -0.73312 h -0.73312 v -10.97265 h 0.73312 v -0.73312 h 0.72829 v -0.73312 h 0.73312 v -0.72829 h 6.58359 v 0.72829 h 0.73312 v 0.73312 h 0.73312 v 0.73312 h 0.7283 v 10.97265 h -0.7283 v 0.73312 h -0.73312 v 0.73312 h -0.73312 v 0.72829 z"
         id="path1252" />
      <path
         d="m 150.45486,121.35484 v -0.72829 h -0.73312 v -0.73312 h -0.7283 v -0.73312 h -0.73312 v -2.19453 h 2.19454 v 0.73312 h 0.73311 v 0.73312 h 0.7283 v 0.72829 h 3.66077 v -0.72829 h 0.73311 v -0.73312 h 0.7283 v -1.46141 h -0.7283 v -0.73312 h -0.73311 v -0.73312 h -2.92765 v -2.19453 h 2.92765 v -0.73312 h 0.73311 v -0.72829 h 0.7283 v -1.46624 h -0.7283 v -0.72829 h -0.73311 v -0.73312 h -3.66077 v 0.73312 h -0.7283 v 0.72829 h -0.73311 v 0.73312 h -2.19454 v -2.19453 h 0.73312 v -0.73312 h 0.7283 v -0.73312 h 0.73312 v -0.72829 h 6.58359 v 0.72829 h 0.73312 v 0.73312 h 0.73311 v 0.73312 h 0.7283 v 4.38906 h -0.7283 v 0.73312 h -0.73311 v 0.72829 h 0.73311 v 0.73312 h 0.7283 v 4.38906 h -0.7283 v 0.73312 h -0.73311 v 0.73312 h -0.73312 v 0.72829 z"
         id="path1254" />
      <path
         d="m 163.62204,121.35484 v -0.72829 h -0.73312 v -0.73312 h -0.72829 v -0.73312 h -0.73312 v -2.19453 h 2.19453 v 0.73312 h 0.73312 v 0.73312 h 0.72829 v 0.72829 h 3.66077 v -0.72829 h 0.73312 v -0.73312 h 0.72829 v -1.46141 h -0.72829 v -0.73312 h -0.73312 v -0.73312 h -7.31671 v -8.77812 h 10.97265 v 2.19453 h -8.77812 v 4.38906 h 6.58359 v 0.73312 h 0.73312 v 0.72829 h 0.73312 v 0.73312 h 0.72829 v 4.38906 h -0.72829 v 0.73312 h -0.73312 v 0.73312 h -0.73312 v 0.72829 z"
         id="path1256" />
    </g>
    <g
       id="text205"
       style="font-size:25.4px;font-family:Retron2000;-inkscape-font-specification:Retron2000;fill:#ffffff;stroke-width:0.264583" />
    <g
       aria-label="The station is available between 7:00 AM to 10:00 PM PST, otherwise 
you'll get voicemail. You can also leave a voicemail if youre
too shy to call! It'll be played next broadcast!"
       id="text468"
       style="font-size:4.05979px;font-family:Retron2000;-inkscape-font-specification:Retron2000;fill:#ffffff;stroke-width:0.240641">
      <path
         d="m 23.342705,126.70711 v -2.70587 H 22.44075 v -0.45098 h 2.254888 v 0.45098 h -0.901955 v 2.70587 z"
         style="text-align:center;text-anchor:middle"
         id="path938" />
      <path
         d="m 25.146616,126.70711 v -3.15685 h 0.450978 v 1.35294 h 0.150656 v -0.15066 h 0.149665 v -0.14966 h 0.150657 v -0.15066 h 0.901955 v 0.15066 h 0.150656 v 0.14966 h 0.150656 v 0.15066 h 0.149666 v 1.80391 h -0.450978 v -1.50359 h -0.149665 v -0.14967 h -0.150656 v -0.15065 h -0.300322 v 0.15065 h -0.150656 v 0.14967 h -0.150656 v 0.15065 h -0.150657 v 0.15066 H 25.74825 v 0.15066 h -0.150656 v 1.05162 z"
         style="text-align:center;text-anchor:middle"
         id="path940" />
      <path
         d="m 29.656393,125.35417 v -0.15065 h -0.149665 v -0.14967 h -0.150656 v -0.15065 h -0.752291 v 0.15065 h -0.149665 v 0.14967 H 28.30346 v 0.15065 z m -1.352933,1.35294 v -0.14967 h -0.150656 v -0.15065 h -0.149665 v -0.15066 h -0.150657 v -1.35293 h 0.150657 v -0.15066 h 0.149665 v -0.14966 h 0.150656 v -0.15066 h 1.352933 v 0.15066 h 0.150656 v 0.14966 h 0.150657 v 0.15066 h 0.149665 v 0.90195 H 28.30346 v 0.15066 h 0.150656 v 0.15065 h 0.149665 v 0.14967 h 1.50359 v 0.45098 z"
         style="text-align:center;text-anchor:middle"
         id="path942" />
      <path
         d="m 31.835953,126.70711 v -0.45098 h 1.503589 v -0.14967 h 0.150656 v -0.15065 h -0.150656 v -0.15066 H 32.28693 v -0.14966 h -0.150656 v -0.15066 h -0.149665 v -0.15066 h -0.150656 v -0.45097 h 0.150656 v -0.15066 h 0.149665 v -0.14966 h 0.150656 v -0.15066 h 1.803911 v 0.45098 h -1.503589 v 0.15065 h -0.149665 v 0.14967 h 0.149665 v 0.15065 h 1.052611 v 0.15066 h 0.150657 v 0.15066 h 0.150656 v 0.14966 h 0.149665 v 0.45098 h -0.149665 v 0.15066 H 33.79052 v 0.15065 h -0.150657 v 0.14967 z"
         style="text-align:center;text-anchor:middle"
         id="path944" />
      <path
         d="m 34.992797,126.70711 v -0.14967 h -0.150656 v -0.15065 h -0.149665 v -0.15066 H 34.54182 v -2.70587 h 0.450977 v 0.90196 h 1.352933 v 0.45098 h -1.352933 v 1.05261 h 0.150657 v 0.15065 h 0.149665 v 0.14967 h 0.301312 v -0.14967 h 0.150656 v -0.15065 h 0.149666 v -0.60164 h 0.450977 v 0.90196 h -0.149665 v 0.15066 h -0.150656 v 0.15065 h -0.150656 v 0.14967 z"
         style="text-align:center;text-anchor:middle"
         id="path946" />
      <path
         d="m 38.600618,126.25613 v -0.45098 h -1.052612 v 0.15066 h -0.149665 v 0.15065 h 0.149665 v 0.14967 z m -1.352933,0.45098 v -0.14967 h -0.150656 v -0.15065 h -0.149666 v -0.15066 h -0.150656 v -0.45098 h 0.150656 v -0.14966 h 0.149666 v -0.15066 h 0.150656 v -0.15066 h 1.352933 v -0.15065 h -0.149665 v -0.14967 h -0.150657 v -0.15065 h -1.052611 v -0.45098 h 1.352933 v 0.15066 h 0.150656 v 0.14966 h 0.150656 v 0.15066 h 0.149665 v 1.80391 z"
         style="text-align:center;text-anchor:middle"
         id="path948" />
      <path
         d="m 39.953551,126.70711 v -0.14967 h -0.150657 v -0.15065 h -0.149665 v -0.15066 h -0.150656 v -2.70587 h 0.450978 v 0.90196 h 1.352933 v 0.45098 h -1.352933 v 1.05261 h 0.150656 v 0.15065 h 0.149665 v 0.14967 h 0.301313 v -0.14967 h 0.150656 v -0.15065 h 0.149665 v -0.60164 h 0.450978 v 0.90196 h -0.149665 v 0.15066 h -0.150657 v 0.15065 h -0.150656 v 0.14967 z"
         style="text-align:center;text-anchor:middle"
         id="path950" />
      <path
         d="m 41.757462,126.70711 v -2.25489 h 0.450977 v 2.25489 z m 0,-2.70587 v -0.45098 h 0.450977 v 0.45098 z"
         style="text-align:center;text-anchor:middle"
         id="path952" />
      <path
         d="m 44.163007,126.25613 v -0.14967 h 0.150657 v -0.15065 h 0.149665 v -0.75229 h -0.149665 v -0.14967 h -0.150657 v -0.15065 h -0.75229 v 0.15065 h -0.149665 v 0.14967 h -0.150656 v 0.75229 h 0.150656 v 0.15065 h 0.149665 v 0.14967 z m -1.052611,0.45098 v -0.14967 H 42.95974 v -0.15065 h -0.149666 v -0.15066 h -0.150656 v -1.35293 h 0.150656 v -0.15066 h 0.149666 v -0.14966 h 0.150656 v -0.15066 h 1.352933 v 0.15066 h 0.150656 v 0.14966 h 0.150656 v 0.15066 h 0.149665 v 1.35293 h -0.149665 v 0.15066 h -0.150656 v 0.15065 h -0.150656 v 0.14967 z"
         style="text-align:center;text-anchor:middle"
         id="path954" />
      <path
         d="m 45.365284,126.70711 v -2.25489 h 0.450978 v 0.45098 h 0.150656 v -0.15066 h 0.149665 v -0.14966 h 0.150656 v -0.15066 h 0.901956 v 0.15066 h 0.150656 v 0.14966 h 0.150656 v 0.15066 h 0.149665 v 1.80391 h -0.450977 v -1.50359 H 47.01953 v -0.14967 h -0.150657 v -0.15065 h -0.300321 v 0.15065 h -0.150656 v 0.14967 h -0.150657 v 0.15065 h -0.150656 v 0.15066 h -0.149665 v 0.15066 h -0.150656 v 1.05162 z"
         style="text-align:center;text-anchor:middle"
         id="path956" />
      <path
         d="m 49.348755,126.70711 v -2.25489 h 0.450978 v 2.25489 z m 0,-2.70587 v -0.45098 h 0.450978 v 0.45098 z"
         style="text-align:center;text-anchor:middle"
         id="path958" />
      <path
         d="m 50.25071,126.70711 v -0.45098 h 1.503589 v -0.14967 h 0.150656 v -0.15065 h -0.150656 v -0.15066 h -1.052612 v -0.14966 h -0.150656 v -0.15066 h -0.149665 v -0.15066 H 50.25071 v -0.45097 h 0.150656 v -0.15066 h 0.149665 v -0.14966 h 0.150656 v -0.15066 h 1.803911 v 0.45098 h -1.503589 v 0.15065 h -0.149666 v 0.14967 h 0.149666 v 0.15065 h 1.052611 v 0.15066 h 0.150656 v 0.15066 h 0.150657 v 0.14966 h 0.149665 v 0.45098 h -0.149665 v 0.15066 h -0.150657 v 0.15065 H 52.05462 v 0.14967 z"
         style="text-align:center;text-anchor:middle"
         id="path960" />
      <path
         d="m 56.038091,126.25613 v -0.45098 H 54.98548 v 0.15066 h -0.149666 v 0.15065 h 0.149666 v 0.14967 z m -1.352933,0.45098 v -0.14967 h -0.150656 v -0.15065 h -0.149665 v -0.15066 H 54.23418 v -0.45098 h 0.150657 v -0.14966 h 0.149665 v -0.15066 h 0.150656 v -0.15066 h 1.352933 v -0.15065 h -0.149665 v -0.14967 H 55.73777 v -0.15065 h -1.052612 v -0.45098 h 1.352933 v 0.15066 h 0.150656 v 0.14966 h 0.150657 v 0.15066 h 0.149665 v 1.80391 z"
         style="text-align:center;text-anchor:middle"
         id="path962" />
      <path
         d="m 57.842004,126.70711 v -0.14967 h -0.150657 v -0.15065 h -0.149665 v -0.15066 h -0.150656 v -0.14967 H 57.24037 v -0.15065 h -0.149665 v -0.15066 h -0.150657 v -1.35293 h 0.450978 v 1.05261 h 0.150656 v 0.15066 h 0.149665 v 0.14966 h 0.150657 v 0.15066 h 0.150656 v 0.15065 h 0.150656 v -0.15065 h 0.149665 v -0.15066 h 0.150657 v -0.14966 h 0.150656 v -0.15066 h 0.149665 v -1.05261 h 0.450978 v 1.35293 h -0.149666 v 0.15066 h -0.150656 v 0.15065 h -0.150656 v 0.14967 h -0.149665 v 0.15066 h -0.150656 v 0.15065 h -0.150657 v 0.14967 z"
         style="text-align:center;text-anchor:middle"
         id="path964" />
      <path
         d="m 61.449823,126.25613 v -0.45098 h -1.052612 v 0.15066 h -0.149665 v 0.15065 h 0.149665 v 0.14967 z m -1.352933,0.45098 v -0.14967 h -0.150656 v -0.15065 h -0.149666 v -0.15066 h -0.150656 v -0.45098 h 0.150656 v -0.14966 h 0.149666 v -0.15066 h 0.150656 v -0.15066 h 1.352933 v -0.15065 h -0.149665 v -0.14967 H 61.149501 V 124.9032 H 60.09689 v -0.45098 h 1.352933 v 0.15066 h 0.150656 v 0.14966 h 0.150656 v 0.15066 h 0.149666 v 1.80391 z"
         style="text-align:center;text-anchor:middle"
         id="path966" />
      <path
         d="m 62.35178,126.70711 v -2.25489 h 0.450978 v 2.25489 z m 0,-2.70587 v -0.45098 h 0.450978 v 0.45098 z"
         style="text-align:center;text-anchor:middle"
         id="path968" />
      <path
         d="m 63.704712,126.70711 v -0.14967 h -0.150656 v -0.15065 h -0.149665 v -0.15066 h -0.150656 v -2.70587 h 0.450977 v 2.40555 h 0.150657 v 0.15065 h 0.149665 v 0.14967 h 0.601634 v 0.45098 z"
         style="text-align:center;text-anchor:middle"
         id="path970" />
      <path
         d="m 66.861555,126.25613 v -0.45098 h -1.052612 v 0.15066 h -0.149665 v 0.15065 h 0.149665 v 0.14967 z m -1.352933,0.45098 v -0.14967 h -0.150657 v -0.15065 H 65.2083 v -0.15066 h -0.150656 v -0.45098 H 65.2083 v -0.14966 h 0.149665 v -0.15066 h 0.150657 v -0.15066 h 1.352933 v -0.15065 h -0.149666 v -0.14967 h -0.150656 v -0.15065 h -1.052611 v -0.45098 h 1.352933 v 0.15066 h 0.150656 v 0.14966 h 0.150656 v 0.15066 h 0.149665 v 1.80391 z"
         style="text-align:center;text-anchor:middle"
         id="path972" />
      <path
         d="m 69.267101,126.25613 v -0.14967 h 0.150656 v -0.15065 h 0.149665 v -0.75229 h -0.149665 v -0.14967 h -0.150656 v -0.15065 h -1.052612 v 0.60163 h 0.150657 v 0.15066 h 0.149665 v 0.14966 h 0.150656 v 0.15066 h 0.150656 v 0.15065 h 0.150657 v 0.14967 z m -1.503589,0.45098 v -3.15685 h 0.450977 v 0.90196 h 1.352933 v 0.15066 h 0.150657 v 0.14966 h 0.150656 v 0.15066 H 70.0184 v 1.35293 h -0.149665 v 0.15066 h -0.150656 v 0.15065 h -0.150657 v 0.14967 h -0.901955 v -0.14967 h -0.150656 v -0.15065 h -0.149665 v -0.15066 h -0.150657 v 0.45098 z"
         style="text-align:center;text-anchor:middle"
         id="path974" />
      <path
         d="m 70.920353,126.70711 v -0.14967 h -0.150656 v -0.15065 h -0.149665 v -0.15066 h -0.150656 v -2.70587 h 0.450977 v 2.40555 h 0.150657 v 0.15065 h 0.149665 v 0.14967 h 0.601634 v 0.45098 z"
         style="text-align:center;text-anchor:middle"
         id="path976" />
      <path
         d="m 74.077199,125.35417 v -0.15065 h -0.149665 v -0.14967 h -0.150656 v -0.15065 h -0.75229 v 0.15065 h -0.149665 v 0.14967 h -0.150657 v 0.15065 z m -1.352933,1.35294 v -0.14967 H 72.57361 v -0.15065 h -0.149665 v -0.15066 h -0.150656 v -1.35293 h 0.150656 v -0.15066 h 0.149665 v -0.14966 h 0.150656 v -0.15066 h 1.352933 v 0.15066 h 0.150657 v 0.14966 h 0.150656 v 0.15066 h 0.149665 v 0.90195 h -1.803911 v 0.15066 h 0.150657 v 0.15065 h 0.149665 v 0.14967 h 1.503589 v 0.45098 z"
         style="text-align:center;text-anchor:middle"
         id="path978" />
      <path
         d="m 77.760349,126.25613 v -0.14967 h 0.150656 v -0.15065 h 0.149665 v -0.75229 h -0.149665 v -0.14967 h -0.150656 v -0.15065 h -1.052612 v 0.60163 h 0.150657 v 0.15066 h 0.149665 v 0.14966 h 0.150656 v 0.15066 h 0.150656 v 0.15065 h 0.150657 v 0.14967 z m -1.503589,0.45098 v -3.15685 h 0.450977 v 0.90196 h 1.352933 v 0.15066 h 0.150657 v 0.14966 h 0.150656 v 0.15066 h 0.149665 v 1.35293 h -0.149665 v 0.15066 h -0.150656 v 0.15065 H 78.06067 v 0.14967 h -0.901955 v -0.14967 h -0.150656 v -0.15065 h -0.149665 v -0.15066 h -0.150657 v 0.45098 z"
         style="text-align:center;text-anchor:middle"
         id="path980" />
      <path
         d="m 80.766534,125.35417 v -0.15065 h -0.149665 v -0.14967 h -0.150656 v -0.15065 h -0.75229 v 0.15065 h -0.149665 v 0.14967 h -0.150657 v 0.15065 z m -1.352933,1.35294 v -0.14967 h -0.150656 v -0.15065 H 79.11328 v -0.15066 h -0.150656 v -1.35293 h 0.150656 v -0.15066 h 0.149665 v -0.14966 h 0.150656 v -0.15066 h 1.352933 v 0.15066 h 0.150657 v 0.14966 h 0.150656 v 0.15066 h 0.149665 v 0.90195 h -1.803911 v 0.15066 h 0.150657 v 0.15065 h 0.149665 v 0.14967 h 1.503589 v 0.45098 z"
         style="text-align:center;text-anchor:middle"
         id="path982" />
      <path
         d="m 82.119469,126.70711 v -0.14967 h -0.150656 v -0.15065 h -0.149665 v -0.15066 h -0.150657 v -2.70587 h 0.450978 v 0.90196 h 1.352933 v 0.45098 h -1.352933 v 1.05261 h 0.150656 v 0.15065 h 0.149665 v 0.14967 h 0.301313 v -0.14967 h 0.150656 v -0.15065 h 0.149665 v -0.60164 h 0.450978 v 0.90196 h -0.149665 v 0.15066 h -0.150656 v 0.15065 h -0.150657 v 0.14967 z"
         style="text-align:center;text-anchor:middle"
         id="path984" />
      <path
         d="m 84.374356,126.70711 v -0.14967 h -0.150657 v -0.15065 h -0.149665 v -0.15066 h -0.150656 v -1.80391 h 0.450978 v 1.50359 h 0.150656 v 0.15065 h 0.149665 v -0.15065 h 0.150656 v -0.60164 h 0.450978 v 0.60164 h 0.150656 v 0.15065 h 0.150657 v -0.15065 h 0.149665 v -1.50359 h 0.450977 v 1.80391 h -0.149665 v 0.15066 h -0.150656 v 0.15065 h -0.150656 v 0.14967 h -0.450978 v -0.14967 h -0.149665 v -0.15065 H 84.97599 v 0.15065 h -0.150657 v 0.14967 z"
         style="text-align:center;text-anchor:middle"
         id="path986" />
      <path
         d="m 88.433153,125.35417 v -0.15065 h -0.149665 v -0.14967 h -0.150657 v -0.15065 h -0.75229 v 0.15065 h -0.149665 v 0.14967 H 87.08022 v 0.15065 z m -1.352933,1.35294 v -0.14967 h -0.150657 v -0.15065 h -0.149665 v -0.15066 h -0.150656 v -1.35293 h 0.150656 v -0.15066 h 0.149665 v -0.14966 h 0.150657 v -0.15066 h 1.352933 v 0.15066 h 0.150656 v 0.14966 h 0.150656 v 0.15066 h 0.149665 v 0.90195 h -1.80391 v 0.15066 h 0.150656 v 0.15065 h 0.149665 v 0.14967 h 1.503589 v 0.45098 z"
         style="text-align:center;text-anchor:middle"
         id="path988" />
      <path
         d="m 91.139024,125.35417 v -0.15065 h -0.149665 v -0.14967 h -0.150656 v -0.15065 h -0.75229 v 0.15065 h -0.149666 v 0.14967 h -0.150656 v 0.15065 z m -1.352933,1.35294 v -0.14967 h -0.150656 v -0.15065 H 89.48577 v -0.15066 h -0.150656 v -1.35293 h 0.150656 v -0.15066 h 0.149665 v -0.14966 h 0.150656 v -0.15066 h 1.352933 v 0.15066 h 0.150656 v 0.14966 h 0.150657 v 0.15066 h 0.149665 v 0.90195 h -1.803911 v 0.15066 h 0.150656 v 0.15065 h 0.149666 v 0.14967 h 1.503589 v 0.45098 z"
         style="text-align:center;text-anchor:middle"
         id="path990" />
      <path
         d="m 92.040978,126.70711 v -2.25489 h 0.450977 v 0.45098 h 0.150656 v -0.15066 h 0.149666 v -0.14966 h 0.150656 v -0.15066 h 0.901955 v 0.15066 h 0.150656 v 0.14966 h 0.150657 v 0.15066 h 0.149665 v 1.80391 h -0.450978 v -1.50359 h -0.149665 v -0.14967 h -0.150656 v -0.15065 h -0.300322 v 0.15065 h -0.150656 v 0.14967 h -0.150656 v 0.15065 h -0.150656 v 0.15066 h -0.149666 v 0.15066 h -0.150656 v 1.05162 z"
         style="text-align:center;text-anchor:middle"
         id="path992" />
      <path
         d="m 96.9264,126.70711 v -1.35294 h 0.150656 v -0.15065 h 0.150656 v -0.14967 h 0.149666 v -0.15065 h 0.150656 v -0.15066 h 0.150656 v -0.14966 h 0.149665 v -0.60164 h -1.352933 v 0.45098 h -0.450977 v -0.90196 h 2.254888 v 1.35294 h -0.149665 v 0.15065 h -0.150656 v 0.14967 h -0.150657 v 0.15065 H 97.67869 v 0.15066 h -0.150656 v 0.15066 h -0.150656 v 1.05162 z"
         style="text-align:center;text-anchor:middle"
         id="path994" />
      <path
         d="m 98.730316,126.70711 v -0.45098 h 0.450978 v 0.45098 z m 0,-1.80391 v -0.45098 h 0.450978 v 0.45098 z"
         style="text-align:center;text-anchor:middle"
         id="path996" />
      <path
         d="m 101.13586,126.25613 v -0.14967 h 0.15066 v -0.15065 h 0.14966 v -1.05261 h -0.14966 v 0.15065 h -0.15066 v 0.14967 h -0.15066 v 0.15065 h -0.14966 v 0.15066 h -0.15066 v 0.15066 h -0.15065 v 0.14966 h -0.15066 v 0.15066 h -0.14967 v 0.15065 h 0.14967 v 0.14967 z m -0.90196,-0.90196 v -0.15065 h 0.14967 v -0.14967 h 0.15066 v -0.15065 h 0.15065 v -0.15066 h 0.15066 v -0.14966 h 0.14966 v -0.15066 h 0.15066 v -0.15066 h 0.15066 v -0.14966 h -0.15066 v -0.15066 h -0.75229 v 0.15066 h -0.14967 v 0.14966 h -0.15065 v 1.05261 z m -0.15065,1.35294 v -0.14967 h -0.150658 v -0.15065 h -0.149665 v -0.15066 h -0.150656 v -2.25489 h 0.150656 v -0.15065 h 0.149665 v -0.15066 h 0.150658 v -0.14967 h 1.35293 v 0.14967 h 0.15066 v 0.15066 h 0.15065 v 0.15065 h 0.14967 v 2.25489 h -0.14967 v 0.15066 h -0.15065 v 0.15065 h -0.15066 v 0.14967 z"
         style="text-align:center;text-anchor:middle"
         id="path998" />
      <path
         d="m 103.84172,126.25613 v -0.14967 h 0.15066 v -0.15065 h 0.14967 v -1.05261 h -0.14967 v 0.15065 h -0.15066 v 0.14967 h -0.15065 v 0.15065 h -0.14967 v 0.15066 h -0.15065 v 0.15066 h -0.15066 v 0.14966 h -0.15066 v 0.15066 h -0.14966 v 0.15065 h 0.14966 v 0.14967 z m -0.90195,-0.90196 v -0.15065 h 0.14966 v -0.14967 h 0.15066 v -0.15065 h 0.15066 v -0.15066 h 0.15065 v -0.14966 h 0.14967 v -0.15066 h 0.15065 v -0.15066 h 0.15066 v -0.14966 h -0.15066 v -0.15066 h -0.75229 v 0.15066 h -0.14966 v 0.14966 h -0.15066 v 1.05261 z m -0.15066,1.35294 v -0.14967 h -0.15065 v -0.15065 h -0.14967 v -0.15066 h -0.15066 v -2.25489 h 0.15066 v -0.15065 h 0.14967 v -0.15066 h 0.15065 v -0.14967 h 1.35294 v 0.14967 h 0.15065 v 0.15066 h 0.15066 v 0.15065 h 0.14966 v 2.25489 h -0.14966 v 0.15066 h -0.15066 v 0.15065 h -0.15065 v 0.14967 z"
         style="text-align:center;text-anchor:middle"
         id="path1000" />
      <path
         d="m 108.12552,124.9032 v -0.60164 h -0.14966 v -0.14966 h -0.15066 v -0.15066 h -0.75229 v 0.15066 h -0.14967 v 0.14966 h -0.15065 v 0.60164 z m -1.80391,1.80391 v -2.70587 h 0.15066 v -0.15065 h 0.14966 v -0.15066 h 0.15066 v -0.14967 h 1.35293 v 0.14967 h 0.15066 v 0.15066 h 0.15065 v 0.15065 h 0.14967 v 2.70587 h -0.45098 v -1.35294 h -1.35293 v 1.35294 z"
         style="text-align:center;text-anchor:middle"
         id="path1002" />
      <path
         d="m 109.02747,126.70711 v -3.15685 h 0.45098 v 0.14967 h 0.15066 v 0.15066 h 0.14966 v 0.15065 h 0.15066 v 0.15066 h 0.15066 v 0.14966 h 0.15065 v -0.14966 h 0.14967 v -0.15066 h 0.15065 v -0.15065 h 0.15066 v -0.15066 h 0.14966 v -0.14967 h 0.45098 v 3.15685 h -0.45098 v -2.25489 h -0.14966 v 0.15066 h -0.15066 v 0.14966 h -0.15065 v 0.15066 h -0.45098 v -0.15066 h -0.15066 v -0.14966 h -0.14966 v -0.15066 h -0.15066 v 2.25489 z"
         style="text-align:center;text-anchor:middle"
         id="path1004" />
      <path
         d="m 113.46192,126.70711 v -0.14967 h -0.15066 v -0.15065 h -0.14966 v -0.15066 h -0.15066 v -2.70587 h 0.45098 v 0.90196 h 1.35293 v 0.45098 h -1.35293 v 1.05261 h 0.15065 v 0.15065 h 0.14967 v 0.14967 h 0.30131 v -0.14967 h 0.15066 v -0.15065 h 0.14966 v -0.60164 h 0.45098 v 0.90196 h -0.14966 v 0.15066 h -0.15066 v 0.15065 h -0.15066 v 0.14967 z"
         style="text-align:center;text-anchor:middle"
         id="path1006" />
      <path
         d="m 116.76942,126.25613 v -0.14967 h 0.15066 v -0.15065 h 0.14966 v -0.75229 h -0.14966 v -0.14967 h -0.15066 v -0.15065 h -0.75229 v 0.15065 h -0.14967 v 0.14967 h -0.15065 v 0.75229 h 0.15065 v 0.15065 h 0.14967 v 0.14967 z m -1.05261,0.45098 v -0.14967 h -0.15066 v -0.15065 h -0.14966 v -0.15066 h -0.15066 v -1.35293 h 0.15066 v -0.15066 h 0.14966 v -0.14966 h 0.15066 v -0.15066 h 1.35293 v 0.15066 h 0.15066 v 0.14966 h 0.15065 v 0.15066 h 0.14967 v 1.35293 h -0.14967 v 0.15066 h -0.15065 v 0.15065 h -0.15066 v 0.14967 z"
         style="text-align:center;text-anchor:middle"
         id="path1008" />
      <path
         d="m 119.24931,126.70711 v -0.45098 h 0.90195 v -2.25489 h -0.15066 v 0.15066 h -0.14966 v 0.14966 h -0.15066 v 0.15066 h -0.45097 v -0.45098 h 0.15065 v -0.15065 h 0.14967 v -0.15066 h 0.15065 v -0.14967 h 0.90196 v 2.70587 h 0.90195 v 0.45098 z"
         style="text-align:center;text-anchor:middle"
         id="path1010" />
      <path
         d="m 123.45876,126.25613 v -0.14967 h 0.15066 v -0.15065 h 0.14966 v -1.05261 h -0.14966 v 0.15065 h -0.15066 v 0.14967 h -0.15066 v 0.15065 h -0.14966 v 0.15066 h -0.15066 v 0.15066 h -0.15065 v 0.14966 h -0.15066 v 0.15066 h -0.14967 v 0.15065 h 0.14967 v 0.14967 z m -0.90196,-0.90196 v -0.15065 h 0.14967 v -0.14967 h 0.15066 v -0.15065 h 0.15065 v -0.15066 h 0.15066 v -0.14966 h 0.14966 v -0.15066 h 0.15066 v -0.15066 h 0.15066 v -0.14966 h -0.15066 v -0.15066 h -0.75229 v 0.15066 h -0.14967 v 0.14966 h -0.15065 v 1.05261 z m -0.15065,1.35294 v -0.14967 h -0.15066 v -0.15065 h -0.14966 v -0.15066 h -0.15066 v -2.25489 h 0.15066 v -0.15065 h 0.14966 v -0.15066 h 0.15066 v -0.14967 h 1.35293 v 0.14967 h 0.15066 v 0.15066 h 0.15065 v 0.15065 h 0.14967 v 2.25489 h -0.14967 v 0.15066 h -0.15065 v 0.15065 h -0.15066 v 0.14967 z"
         style="text-align:center;text-anchor:middle"
         id="path1012" />
      <path
         d="m 124.66103,126.70711 v -0.45098 h 0.45098 v 0.45098 z m 0,-1.80391 v -0.45098 h 0.45098 v 0.45098 z"
         style="text-align:center;text-anchor:middle"
         id="path1014" />
      <path
         d="m 127.06658,126.25613 v -0.14967 h 0.15065 v -0.15065 h 0.14967 v -1.05261 h -0.14967 v 0.15065 h -0.15065 v 0.14967 h -0.15066 v 0.15065 h -0.14966 v 0.15066 h -0.15066 v 0.15066 h -0.15066 v 0.14966 h -0.15065 v 0.15066 h -0.14967 v 0.15065 h 0.14967 v 0.14967 z m -0.90196,-0.90196 v -0.15065 h 0.14967 v -0.14967 h 0.15065 v -0.15065 h 0.15066 v -0.15066 h 0.15066 v -0.14966 h 0.14966 v -0.15066 h 0.15066 v -0.15066 h 0.15065 v -0.14966 h -0.15065 v -0.15066 h -0.75229 v 0.15066 h -0.14967 v 0.14966 h -0.15065 v 1.05261 z m -0.15065,1.35294 v -0.14967 h -0.15066 v -0.15065 h -0.14967 v -0.15066 h -0.15065 v -2.25489 h 0.15065 v -0.15065 h 0.14967 v -0.15066 h 0.15066 v -0.14967 h 1.35293 v 0.14967 h 0.15066 v 0.15066 h 0.15065 v 0.15065 h 0.14967 v 2.25489 h -0.14967 v 0.15066 h -0.15065 v 0.15065 h -0.15066 v 0.14967 z"
         style="text-align:center;text-anchor:middle"
         id="path1016" />
      <path
         d="m 129.77245,126.25613 v -0.14967 h 0.15066 v -0.15065 h 0.14966 v -1.05261 h -0.14966 v 0.15065 h -0.15066 v 0.14967 h -0.15066 v 0.15065 h -0.14966 v 0.15066 h -0.15066 v 0.15066 h -0.15065 v 0.14966 h -0.15066 v 0.15066 h -0.14967 v 0.15065 h 0.14967 v 0.14967 z m -0.90196,-0.90196 v -0.15065 h 0.14967 v -0.14967 h 0.15066 v -0.15065 h 0.15065 v -0.15066 h 0.15066 v -0.14966 h 0.14966 v -0.15066 h 0.15066 v -0.15066 h 0.15066 v -0.14966 h -0.15066 v -0.15066 h -0.75229 v 0.15066 h -0.14967 v 0.14966 h -0.15065 v 1.05261 z m -0.15065,1.35294 v -0.14967 h -0.15066 v -0.15065 h -0.14966 v -0.15066 h -0.15066 v -2.25489 h 0.15066 v -0.15065 h 0.14966 v -0.15066 h 0.15066 v -0.14967 h 1.35293 v 0.14967 h 0.15066 v 0.15066 h 0.15065 v 0.15065 h 0.14967 v 2.25489 h -0.14967 v 0.15066 h -0.15065 v 0.15065 h -0.15066 v 0.14967 z"
         style="text-align:center;text-anchor:middle"
         id="path1018" />
      <path
         d="m 133.75592,124.9032 v -0.15066 h 0.15065 v -0.14966 h 0.14967 v -0.30132 h -0.14967 v -0.14966 h -0.15065 v -0.15066 h -1.05262 v 0.90196 z m -1.50359,1.80391 v -3.15685 h 1.80391 v 0.14967 h 0.15065 v 0.15066 h 0.15066 v 0.15065 h 0.14967 v 0.90196 h -0.14967 v 0.15065 h -0.15066 v 0.14967 h -0.15065 v 0.15065 h -1.35294 v 1.35294 z"
         style="text-align:center;text-anchor:middle"
         id="path1020" />
      <path
         d="m 134.95819,126.70711 v -3.15685 h 0.45098 v 0.14967 h 0.15065 v 0.15066 h 0.14967 v 0.15065 h 0.15066 v 0.15066 h 0.15065 v 0.14966 h 0.15066 v -0.14966 h 0.14966 v -0.15066 h 0.15066 v -0.15065 h 0.15066 v -0.15066 h 0.14966 v -0.14967 h 0.45098 v 3.15685 h -0.45098 v -2.25489 h -0.14966 v 0.15066 h -0.15066 v 0.14966 h -0.15066 v 0.15066 h -0.45097 v -0.15066 h -0.15066 v -0.14966 h -0.14967 v -0.15066 h -0.15065 v 2.25489 z"
         style="text-align:center;text-anchor:middle"
         id="path1022" />
      <path
         d="m 140.44525,124.9032 v -0.15066 h 0.15066 v -0.14966 h 0.14967 v -0.30132 h -0.14967 v -0.14966 h -0.15066 v -0.15066 h -1.05261 v 0.90196 z m -1.50358,1.80391 v -3.15685 h 1.80391 v 0.14967 h 0.15065 v 0.15066 h 0.15066 v 0.15065 h 0.14966 v 0.90196 h -0.14966 v 0.15065 h -0.15066 v 0.14967 h -0.15065 v 0.15065 h -1.35294 v 1.35294 z"
         style="text-align:center;text-anchor:middle"
         id="path1024" />
      <path
         d="m 142.09851,126.70711 v -0.14967 h -0.15066 v -0.15065 h -0.14966 v -0.15066 h -0.15066 v -0.45098 h 0.45098 v 0.15066 h 0.15065 v 0.15065 h 0.14967 v 0.14967 h 0.75229 v -0.14967 h 0.15066 v -0.15065 h 0.14966 v -0.30032 h -0.14966 v -0.15066 h -0.15066 v -0.15066 h -1.05261 v -0.15065 h -0.15066 v -0.14967 h -0.14966 v -0.15065 h -0.15066 v -0.90196 h 0.15066 v -0.15065 h 0.14966 v -0.15066 h 0.15066 v -0.14967 h 1.35293 v 0.14967 h 0.15066 v 0.15066 h 0.15065 v 0.15065 h 0.14967 v 0.45098 h -0.45098 v -0.15066 h -0.14966 v -0.14966 h -0.15066 v -0.15066 h -0.75229 v 0.15066 h -0.14967 v 0.14966 h -0.15065 v 0.30132 h 0.15065 v 0.14966 h 0.14967 v 0.15066 h 1.05261 v 0.15065 h 0.15066 v 0.14967 h 0.15065 v 0.15065 h 0.14967 v 0.90196 h -0.14967 v 0.15066 h -0.15065 v 0.15065 h -0.15066 v 0.14967 z"
         style="text-align:center;text-anchor:middle"
         id="path1026" />
      <path
         d="m 145.25535,126.70711 v -2.70587 h -0.90196 v -0.45098 h 2.25489 v 0.45098 h -0.90195 v 2.70587 z"
         style="text-align:center;text-anchor:middle"
         id="path1028" />
      <path
         d="m 146.60928,127.60906 v -0.45097 h 0.14966 v -0.15066 h 0.14967 v -0.15066 h 0.15066 v -0.60064 h 0.45097 v 0.90196 h -0.15065 v 0.14966 h -0.14967 v 0.15066 h -0.15065 v 0.15065 z"
         style="text-align:center;text-anchor:middle"
         id="path1030" />
      <path
         d="m 150.74241,126.25613 v -0.14967 h 0.15066 v -0.15065 h 0.14966 v -0.75229 h -0.14966 v -0.14967 h -0.15066 v -0.15065 h -0.75229 v 0.15065 h -0.14966 v 0.14967 h -0.15066 v 0.75229 h 0.15066 v 0.15065 h 0.14966 v 0.14967 z m -1.05261,0.45098 v -0.14967 h -0.15066 v -0.15065 h -0.14966 v -0.15066 h -0.15066 v -1.35293 h 0.15066 v -0.15066 h 0.14966 v -0.14966 h 0.15066 v -0.15066 h 1.35293 v 0.15066 h 0.15066 v 0.14966 h 0.15066 v 0.15066 h 0.14966 v 1.35293 h -0.14966 v 0.15066 h -0.15066 v 0.15065 h -0.15066 v 0.14967 z"
         style="text-align:center;text-anchor:middle"
         id="path1032" />
      <path
         d="m 152.39566,126.70711 v -0.14967 h -0.15065 v -0.15065 h -0.14967 v -0.15066 h -0.15065 v -2.70587 h 0.45097 v 0.90196 h 1.35294 v 0.45098 h -1.35294 v 1.05261 h 0.15066 v 0.15065 h 0.14967 v 0.14967 h 0.30131 v -0.14967 h 0.15065 v -0.15065 h 0.14967 v -0.60164 h 0.45098 v 0.90196 h -0.14967 v 0.15066 h -0.15065 v 0.15065 h -0.15066 v 0.14967 z"
         style="text-align:center;text-anchor:middle"
         id="path1034" />
      <path
         d="m 154.19957,126.70711 v -3.15685 h 0.45098 v 1.35294 h 0.15065 v -0.15066 h 0.14967 v -0.14966 h 0.15066 v -0.15066 h 0.90195 v 0.15066 h 0.15066 v 0.14966 h 0.15065 v 0.15066 h 0.14967 v 1.80391 h -0.45098 v -1.50359 h -0.14966 v -0.14967 h -0.15066 v -0.15065 h -0.30032 v 0.15065 h -0.15066 v 0.14967 h -0.15065 v 0.15065 h -0.15066 v 0.15066 h -0.14967 v 0.15066 h -0.15065 v 1.05162 z"
         style="text-align:center;text-anchor:middle"
         id="path1036" />
      <path
         d="m 158.70935,125.35417 v -0.15065 h -0.14966 v -0.14967 h -0.15066 v -0.15065 h -0.75229 v 0.15065 h -0.14966 v 0.14967 h -0.15066 v 0.15065 z m -1.35293,1.35294 v -0.14967 h -0.15066 v -0.15065 h -0.14966 v -0.15066 h -0.15066 v -1.35293 h 0.15066 v -0.15066 h 0.14966 v -0.14966 h 0.15066 v -0.15066 h 1.35293 v 0.15066 h 0.15066 v 0.14966 h 0.15065 v 0.15066 h 0.14967 v 0.90195 h -1.80391 v 0.15066 h 0.15066 v 0.15065 h 0.14966 v 0.14967 h 1.50359 v 0.45098 z"
         style="text-align:center;text-anchor:middle"
         id="path1038" />
      <path
         d="m 159.61131,126.70711 v -2.25489 h 0.45098 v 0.45098 h 0.15066 v -0.15066 h 0.14966 v -0.14966 h 0.15066 v -0.15066 h 0.90195 v 0.15066 h 0.15066 v 0.14966 h 0.15066 v 0.15066 h 0.14966 v 0.45097 h -0.45098 v -0.15065 h -0.14966 v -0.14967 h -0.15066 v -0.15065 h -0.30032 v 0.15065 h -0.15066 v 0.14967 h -0.15065 v 0.15065 h -0.15066 v 0.15066 h -0.14966 v 0.15066 h -0.15066 v 1.05162 z"
         style="text-align:center;text-anchor:middle"
         id="path1040" />
      <path
         d="m 162.76815,126.70711 v -0.14967 h -0.15066 v -0.15065 h -0.14966 v -0.15066 h -0.15066 v -1.80391 h 0.45098 v 1.50359 h 0.15065 v 0.15065 h 0.14967 v -0.15065 h 0.15065 v -0.60164 h 0.45098 v 0.60164 h 0.15066 v 0.15065 h 0.15065 v -0.15065 h 0.14967 v -1.50359 h 0.45098 v 1.80391 h -0.14967 v 0.15066 h -0.15065 v 0.15065 h -0.15066 v 0.14967 h -0.45098 v -0.14967 h -0.14966 v -0.15065 h -0.15066 v 0.15065 h -0.15066 v 0.14967 z"
         style="text-align:center;text-anchor:middle"
         id="path1042" />
      <path
         d="m 165.02304,126.70711 v -2.25489 h 0.45098 v 2.25489 z m 0,-2.70587 v -0.45098 h 0.45098 v 0.45098 z"
         style="text-align:center;text-anchor:middle"
         id="path1044" />
      <path
         d="m 165.925,126.70711 v -0.45098 h 1.50359 v -0.14967 h 0.15066 v -0.15065 h -0.15066 v -0.15066 h -1.05261 v -0.14966 h -0.15066 v -0.15066 h -0.14966 v -0.15066 H 165.925 v -0.45097 h 0.15066 v -0.15066 h 0.14966 v -0.14966 h 0.15066 v -0.15066 h 1.80391 v 0.45098 h -1.50359 v 0.15065 h -0.14966 v 0.14967 h 0.14966 v 0.15065 h 1.05261 v 0.15066 h 0.15066 v 0.15066 h 0.15066 v 0.14966 h 0.14966 v 0.45098 h -0.14966 v 0.15066 h -0.15066 v 0.15065 h -0.15066 v 0.14967 z"
         style="text-align:center;text-anchor:middle"
         id="path1046" />
      <path
         d="m 170.43477,125.35417 v -0.15065 h -0.14967 v -0.14967 h -0.15065 v -0.15065 h -0.75229 v 0.15065 h -0.14967 v 0.14967 h -0.15065 v 0.15065 z m -1.35293,1.35294 v -0.14967 h -0.15066 v -0.15065 h -0.14966 v -0.15066 h -0.15066 v -1.35293 h 0.15066 v -0.15066 h 0.14966 v -0.14966 h 0.15066 v -0.15066 h 1.35293 v 0.15066 h 0.15066 v 0.14966 h 0.15065 v 0.15066 h 0.14967 v 0.90195 h -1.80391 v 0.15066 h 0.15065 v 0.15065 h 0.14967 v 0.14967 h 1.50359 v 0.45098 z"
         style="text-align:center;text-anchor:middle"
         id="path1048" />
      <path
         d="m 32.061442,132.6838 v -0.45098 h 1.052611 v -0.15065 h 0.150657 v -0.15066 h 0.149665 v -0.60064 h -1.352933 v -0.14967 h -0.150656 v -0.15065 H 31.76112 v -0.15066 h -0.150656 v -1.35293 h 0.450978 v 1.05261 h 0.150656 v 0.15065 h 0.149665 v 0.14967 h 1.052612 v -1.35293 h 0.450977 v 2.70586 h -0.149665 v 0.14967 h -0.150656 v 0.15065 h -0.150656 v 0.15066 z"
         style="text-align:center;text-anchor:middle"
         id="path1050" />
      <path
         d="m 35.819919,131.33087 v -0.14967 h 0.150657 v -0.15065 h 0.149665 v -0.75229 h -0.149665 v -0.14967 h -0.150657 v -0.15066 h -0.75229 v 0.15066 h -0.149665 v 0.14967 h -0.150656 v 0.75229 h 0.150656 v 0.15065 h 0.149665 v 0.14967 z m -1.052611,0.45098 v -0.14967 h -0.150656 v -0.15066 h -0.149666 v -0.15065 H 34.31633 v -1.35294 h 0.150656 v -0.15065 h 0.149666 v -0.14967 h 0.150656 v -0.15065 h 1.352933 v 0.15065 h 0.150656 v 0.14967 h 0.150656 v 0.15065 h 0.149666 v 1.35294 h -0.149666 v 0.15065 h -0.150656 v 0.15066 h -0.150656 v 0.14967 z"
         style="text-align:center;text-anchor:middle"
         id="path1052" />
      <path
         d="m 37.473174,131.78185 v -0.14967 h -0.150656 v -0.15066 h -0.149665 v -0.15065 h -0.150657 v -1.80391 h 0.450978 v 1.50359 h 0.150656 v 0.15065 h 0.149665 v 0.14967 h 0.301313 v -0.14967 h 0.150656 v -0.15065 h 0.149665 v -0.15066 h 0.150657 v -0.14967 h 0.150656 v -0.15065 h 0.149665 v -1.05261 h 0.450978 v 2.25489 h -0.450978 v -0.45098 h -0.149665 v 0.15065 h -0.150656 v 0.15066 h -0.150657 v 0.14967 z"
         style="text-align:center;text-anchor:middle"
         id="path1054" />
      <path
         d="M 39.728063,129.52696 V 128.625 h 0.450977 v 0.90196 z"
         style="text-align:center;text-anchor:middle"
         id="path1056" />
      <path
         d="m 41.080995,131.78185 v -0.14967 h -0.150656 v -0.15066 h -0.149665 v -0.15065 H 40.630017 V 128.625 h 0.450978 v 2.40555 h 0.150656 v 0.15065 h 0.149665 v 0.14967 h 0.601634 v 0.45098 z"
         style="text-align:center;text-anchor:middle"
         id="path1058" />
      <path
         d="m 42.884906,131.78185 v -0.14967 H 42.73425 v -0.15066 h -0.149665 v -0.15065 H 42.433929 V 128.625 h 0.450977 v 2.40555 h 0.150656 v 0.15065 h 0.149666 v 0.14967 h 0.601634 v 0.45098 z"
         style="text-align:center;text-anchor:middle"
         id="path1060" />
      <path
         d="m 46.568055,131.33087 v -0.14967 h 0.150657 v -0.15065 h 0.149665 v -0.15066 h 0.150656 v -0.14967 h 0.150656 v -0.15065 h 0.149665 v -0.60164 h -1.052611 v 0.15066 h -0.149665 v 0.14967 h -0.150657 v 0.75229 h 0.150657 v 0.15065 h 0.149665 v 0.14967 z m -1.052611,1.35293 v -0.45098 h 1.503589 v -0.15065 h 0.150656 v -0.15066 h 0.149665 v -0.60064 h -0.149665 v 0.15065 h -0.150656 v 0.15066 h -0.150656 v 0.14967 h -0.901956 v -0.14967 h -0.150656 v -0.15066 H 45.6661 v -0.15065 h -0.150656 v -1.35294 H 45.6661 v -0.15065 h 0.149665 v -0.14967 h 0.150656 v -0.15065 h 1.803911 v 2.70586 h -0.149665 v 0.14967 h -0.150656 v 0.15065 h -0.150657 v 0.15066 z"
         style="text-align:center;text-anchor:middle"
         id="path1062" />
      <path
         d="m 50.02522,130.42891 v -0.15065 h -0.149665 v -0.14967 h -0.150656 v -0.15066 h -0.75229 v 0.15066 h -0.149665 v 0.14967 h -0.150657 v 0.15065 z m -1.352933,1.35294 v -0.14967 h -0.150656 v -0.15066 h -0.149665 v -0.15065 H 48.22131 v -1.35294 h 0.150656 v -0.15065 h 0.149665 v -0.14967 h 0.150656 v -0.15065 h 1.352933 v 0.15065 h 0.150657 v 0.14967 h 0.150656 v 0.15065 h 0.149665 v 0.90196 h -1.803911 v 0.15066 h 0.150657 v 0.15065 h 0.149665 v 0.14967 h 1.503589 v 0.45098 z"
         style="text-align:center;text-anchor:middle"
         id="path1064" />
      <path
         d="m 51.378153,131.78185 v -0.14967 h -0.150656 v -0.15066 h -0.149665 v -0.15065 H 50.927176 V 128.625 h 0.450977 v 0.90196 h 1.352933 v 0.45097 h -1.352933 v 1.05262 h 0.150656 v 0.15065 h 0.149666 v 0.14967 h 0.301312 v -0.14967 h 0.150656 v -0.15065 h 0.149666 v -0.60164 h 0.450977 v 0.90196 h -0.149665 v 0.15065 h -0.150656 v 0.15066 h -0.150656 v 0.14967 z"
         style="text-align:center;text-anchor:middle"
         id="path1066" />
      <path
         d="m 55.361624,131.78185 v -0.14967 h -0.150656 v -0.15066 h -0.149665 v -0.15065 h -0.150656 v -0.14967 h -0.150656 v -0.15065 h -0.149666 v -0.15066 h -0.150656 v -1.35293 h 0.450978 v 1.05261 h 0.150656 v 0.15065 h 0.149665 v 0.14967 h 0.150656 v 0.15066 h 0.150657 v 0.15065 h 0.150656 v -0.15065 h 0.149665 v -0.15066 h 0.150656 v -0.14967 h 0.150657 v -0.15065 h 0.149665 v -1.05261 h 0.450977 v 1.35293 h -0.149665 v 0.15066 h -0.150656 v 0.15065 H 56.26358 v 0.14967 h -0.149665 v 0.15065 h -0.150657 v 0.15066 h -0.150656 v 0.14967 z"
         style="text-align:center;text-anchor:middle"
         id="path1068" />
      <path
         d="m 58.669124,131.33087 v -0.14967 h 0.150657 v -0.15065 h 0.149665 v -0.75229 h -0.149665 v -0.14967 h -0.150657 v -0.15066 h -0.75229 v 0.15066 h -0.149665 v 0.14967 h -0.150656 v 0.75229 h 0.150656 v 0.15065 h 0.149665 v 0.14967 z m -1.052611,0.45098 v -0.14967 h -0.150657 v -0.15066 h -0.149665 v -0.15065 h -0.150656 v -1.35294 h 0.150656 v -0.15065 h 0.149665 v -0.14967 h 0.150657 v -0.15065 h 1.352933 v 0.15065 h 0.150656 v 0.14967 h 0.150656 v 0.15065 h 0.149665 v 1.35294 h -0.149665 v 0.15065 h -0.150656 v 0.15066 h -0.150656 v 0.14967 z"
         style="text-align:center;text-anchor:middle"
         id="path1070" />
      <path
         d="m 59.871401,131.78185 v -2.25489 h 0.450978 v 2.25489 z m 0,-2.70587 V 128.625 h 0.450978 v 0.45098 z"
         style="text-align:center;text-anchor:middle"
         id="path1072" />
      <path
         d="m 61.224335,131.78185 v -0.14967 h -0.150656 v -0.15066 h -0.149665 v -0.15065 h -0.150657 v -1.35294 h 0.150657 v -0.15065 h 0.149665 v -0.14967 h 0.150656 v -0.15065 h 1.352933 v 0.15065 h 0.150656 v 0.14967 h 0.150657 v 0.15065 h 0.149665 v 0.45098 h -0.450978 v -0.15065 h -0.149665 v -0.14967 h -0.150656 v -0.15066 h -0.752291 v 0.15066 h -0.149665 v 0.14967 h -0.150656 v 0.75229 h 0.150656 v 0.15065 h 0.149665 v 0.14967 h 0.752291 v -0.14967 h 0.150656 v -0.15065 h 0.149665 v -0.15066 h 0.450978 v 0.45098 h -0.149665 v 0.15065 h -0.150657 v 0.15066 h -0.150656 v 0.14967 z"
         style="text-align:center;text-anchor:middle"
         id="path1074" />
      <path
         d="m 65.283134,130.42891 v -0.15065 h -0.149665 v -0.14967 h -0.150656 v -0.15066 h -0.752291 v 0.15066 h -0.149665 v 0.14967 h -0.150656 v 0.15065 z m -1.352933,1.35294 v -0.14967 h -0.150656 v -0.15066 H 63.62988 v -0.15065 h -0.150657 v -1.35294 h 0.150657 v -0.15065 h 0.149665 v -0.14967 h 0.150656 v -0.15065 h 1.352933 v 0.15065 h 0.150656 v 0.14967 h 0.150656 v 0.15065 h 0.149666 v 0.90196 h -1.803911 v 0.15066 h 0.150656 v 0.15065 h 0.149665 v 0.14967 h 1.50359 v 0.45098 z"
         style="text-align:center;text-anchor:middle"
         id="path1076" />
      <path
         d="m 66.185087,131.78185 v -2.25489 h 0.901956 v 0.15065 h 0.150656 v 0.14967 h 0.150656 v -0.14967 h 0.149665 v -0.15065 h 0.450978 v 0.15065 h 0.150656 v 0.14967 h 0.150656 v 0.15065 h 0.149666 v 1.80392 h -0.450978 v -1.50359 h -0.149665 v -0.14967 h -0.150657 v 0.14967 H 67.53802 v 0.60163 h -0.450977 v -0.60163 h -0.150657 v -0.14967 h -0.149665 v 0.14967 h -0.150656 v 1.50359 z"
         style="text-align:center;text-anchor:middle"
         id="path1078" />
      <path
         d="m 70.694866,131.33087 v -0.45098 h -1.052612 v 0.15066 h -0.149665 v 0.15065 h 0.149665 v 0.14967 z m -1.352933,0.45098 v -0.14967 h -0.150657 v -0.15066 h -0.149665 v -0.15065 h -0.150656 v -0.45098 h 0.150656 v -0.14967 h 0.149665 v -0.15065 h 0.150657 v -0.15066 h 1.352933 v -0.15065 h -0.149665 v -0.14967 h -0.150657 v -0.15066 h -1.052611 v -0.45097 h 1.352933 v 0.15065 h 0.150656 v 0.14967 h 0.150656 v 0.15065 h 0.149665 v 1.80392 z"
         style="text-align:center;text-anchor:middle"
         id="path1080" />
      <path
         d="m 71.596823,131.78185 v -2.25489 H 72.0478 v 2.25489 z m 0,-2.70587 V 128.625 H 72.0478 v 0.45098 z"
         style="text-align:center;text-anchor:middle"
         id="path1082" />
      <path
         d="m 72.949755,131.78185 v -0.14967 h -0.150656 v -0.15066 h -0.149665 v -0.15065 H 72.498777 V 128.625 h 0.450978 v 2.40555 h 0.150656 v 0.15065 h 0.149665 v 0.14967 h 0.601634 v 0.45098 z"
         style="text-align:center;text-anchor:middle"
         id="path1084" />
      <path
         d="m 74.302687,131.78185 v -0.45098 h 0.450977 v 0.45098 z"
         style="text-align:center;text-anchor:middle"
         id="path1086" />
      <path
         d="m 77.384204,131.78185 v -1.50359 h -0.150657 v -0.14967 h -0.149665 v -0.15066 h -0.150656 v -0.15065 H 76.78257 v -0.14967 h -0.149665 v -0.15065 H 76.482248 V 128.625 h 0.450978 v 0.60164 h 0.150656 v 0.14966 h 0.149665 v 0.15066 h 0.150657 v 0.15065 h 0.150656 v 0.14967 h 0.150656 v -0.14967 h 0.149665 v -0.15065 h 0.150657 v -0.15066 h 0.150656 v -0.14966 h 0.149665 V 128.625 h 0.450978 v 0.90196 h -0.149665 v 0.15065 h -0.150657 v 0.14967 h -0.150656 v 0.15065 h -0.149665 v 0.15066 h -0.150656 v 0.14967 h -0.150657 v 1.50359 z"
         style="text-align:center;text-anchor:middle"
         id="path1088" />
      <path
         d="m 80.691702,131.33087 v -0.14967 h 0.150656 v -0.15065 h 0.149665 v -0.75229 h -0.149665 v -0.14967 h -0.150656 v -0.15066 h -0.752291 v 0.15066 h -0.149665 v 0.14967 H 79.63909 v 0.75229 h 0.150656 v 0.15065 h 0.149665 v 0.14967 z m -1.052612,0.45098 v -0.14967 h -0.150656 v -0.15066 h -0.149665 v -0.15065 h -0.150657 v -1.35294 h 0.150657 v -0.15065 h 0.149665 v -0.14967 h 0.150656 v -0.15065 h 1.352933 v 0.15065 h 0.150656 v 0.14967 h 0.150656 v 0.15065 h 0.149666 v 1.35294 h -0.149666 v 0.15065 h -0.150656 v 0.15066 h -0.150656 v 0.14967 z"
         style="text-align:center;text-anchor:middle"
         id="path1090" />
      <path
         d="m 82.344958,131.78185 v -0.14967 h -0.150657 v -0.15066 h -0.149665 v -0.15065 H 81.89398 v -1.80391 h 0.450978 v 1.50359 h 0.150656 v 0.15065 h 0.149665 v 0.14967 h 0.301313 v -0.14967 h 0.150656 v -0.15065 h 0.149665 v -0.15066 h 0.150656 v -0.14967 h 0.150657 v -0.15065 h 0.149665 v -1.05261 h 0.450977 v 2.25489 h -0.450977 v -0.45098 h -0.149665 v 0.15065 h -0.150657 v 0.15066 h -0.150656 v 0.14967 z"
         style="text-align:center;text-anchor:middle"
         id="path1092" />
      <path
         d="m 86.328429,131.78185 v -0.14967 h -0.150657 v -0.15066 h -0.149665 v -0.15065 h -0.150656 v -1.35294 h 0.150656 v -0.15065 h 0.149665 v -0.14967 h 0.150657 v -0.15065 h 1.352933 v 0.15065 h 0.150656 v 0.14967 h 0.150656 v 0.15065 h 0.149665 v 0.45098 h -0.450977 v -0.15065 h -0.149665 v -0.14967 H 87.38104 v -0.15066 h -0.75229 v 0.15066 h -0.149665 v 0.14967 h -0.150656 v 0.75229 h 0.150656 v 0.15065 h 0.149665 v 0.14967 h 0.75229 v -0.14967 h 0.150657 v -0.15065 h 0.149665 v -0.15066 h 0.450977 v 0.45098 h -0.149665 v 0.15065 h -0.150656 v 0.15066 h -0.150656 v 0.14967 z"
         style="text-align:center;text-anchor:middle"
         id="path1094" />
      <path
         d="m 90.387226,131.33087 v -0.45098 h -1.052612 v 0.15066 h -0.149665 v 0.15065 h 0.149665 v 0.14967 z m -1.352933,0.45098 v -0.14967 h -0.150657 v -0.15066 h -0.149665 v -0.15065 h -0.150656 v -0.45098 h 0.150656 v -0.14967 h 0.149665 v -0.15065 h 0.150657 v -0.15066 h 1.352933 v -0.15065 H 90.23756 v -0.14967 h -0.150656 v -0.15066 h -1.052611 v -0.45097 h 1.352933 v 0.15065 h 0.150656 v 0.14967 h 0.150656 v 0.15065 h 0.149665 v 1.80392 z"
         style="text-align:center;text-anchor:middle"
         id="path1096" />
      <path
         d="m 91.289183,131.78185 v -2.25489 h 0.450977 v 0.45097 h 0.150657 v -0.15065 h 0.149665 v -0.14967 h 0.150656 v -0.15065 h 0.901955 v 0.15065 h 0.150657 v 0.14967 h 0.150656 v 0.15065 h 0.149665 v 1.80392 h -0.450978 v -1.50359 h -0.149665 v -0.14967 h -0.150656 v -0.15066 h -0.300321 v 0.15066 h -0.150657 v 0.14967 h -0.150656 v 0.15065 h -0.150656 v 0.15066 h -0.149665 v 0.15065 H 91.74016 v 1.05163 z"
         style="text-align:center;text-anchor:middle"
         id="path1098" />
      <path
         d="m 97.076564,131.33087 v -0.45098 h -1.052611 v 0.15066 h -0.149665 v 0.15065 h 0.149665 v 0.14967 z m -1.352933,0.45098 v -0.14967 h -0.150656 v -0.15066 H 95.42331 v -0.15065 h -0.150656 v -0.45098 h 0.150656 v -0.14967 h 0.149665 v -0.15065 h 0.150656 v -0.15066 h 1.352933 v -0.15065 h -0.149665 v -0.14967 h -0.150656 v -0.15066 h -1.052612 v -0.45097 h 1.352933 v 0.15065 h 0.150657 v 0.14967 h 0.150656 v 0.15065 h 0.149665 v 1.80392 z"
         style="text-align:center;text-anchor:middle"
         id="path1100" />
      <path
         d="m 98.429499,131.78185 v -0.14967 h -0.150656 v -0.15066 h -0.149665 v -0.15065 H 97.978521 V 128.625 h 0.450978 v 2.40555 h 0.150656 v 0.15065 h 0.149665 v 0.14967 h 0.601634 v 0.45098 z"
         style="text-align:center;text-anchor:middle"
         id="path1102" />
      <path
         d="m 99.782431,131.78185 v -0.45098 h 1.503589 v -0.14967 h 0.15066 v -0.15065 h -0.15066 v -0.15066 h -1.05261 v -0.14967 h -0.15066 v -0.15065 h -0.149663 v -0.15066 h -0.150656 v -0.45098 h 0.150656 v -0.15065 h 0.149663 v -0.14967 h 0.15066 v -0.15065 h 1.80391 v 0.45097 h -1.50359 v 0.15066 h -0.14967 v 0.14967 h 0.14967 v 0.15065 h 1.05261 v 0.15066 h 0.15066 v 0.15065 h 0.15065 v 0.14967 h 0.14967 v 0.45098 h -0.14967 v 0.15065 H 101.737 v 0.15066 h -0.15066 v 0.14967 z"
         style="text-align:center;text-anchor:middle"
         id="path1104" />
      <path
         d="m 103.99188,131.33087 v -0.14967 h 0.15066 v -0.15065 h 0.14967 v -0.75229 h -0.14967 v -0.14967 h -0.15066 v -0.15066 h -0.75229 v 0.15066 h -0.14966 v 0.14967 h -0.15066 v 0.75229 h 0.15066 v 0.15065 h 0.14966 v 0.14967 z m -1.05261,0.45098 v -0.14967 h -0.15065 v -0.15066 h -0.14967 v -0.15065 h -0.15066 v -1.35294 h 0.15066 v -0.15065 h 0.14967 v -0.14967 h 0.15065 v -0.15065 h 1.35294 v 0.15065 h 0.15065 v 0.14967 h 0.15066 v 0.15065 h 0.14966 v 1.35294 h -0.14966 v 0.15065 h -0.15066 v 0.15066 h -0.15065 v 0.14967 z"
         style="text-align:center;text-anchor:middle"
         id="path1106" />
      <path
         d="m 106.92275,131.78185 v -0.14967 h -0.15066 v -0.15066 h -0.14966 v -0.15065 h -0.15066 V 128.625 h 0.45098 v 2.40555 h 0.15065 v 0.15065 h 0.14967 v 0.14967 h 0.60163 v 0.45098 z"
         style="text-align:center;text-anchor:middle"
         id="path1108" />
      <path
         d="m 110.07959,130.42891 v -0.15065 h -0.14967 v -0.14967 h -0.15065 v -0.15066 h -0.75229 v 0.15066 h -0.14967 v 0.14967 h -0.15065 v 0.15065 z m -1.35293,1.35294 v -0.14967 H 108.576 v -0.15066 h -0.14967 v -0.15065 h -0.15065 v -1.35294 h 0.15065 v -0.15065 h 0.14967 v -0.14967 h 0.15066 v -0.15065 h 1.35293 v 0.15065 h 0.15066 v 0.14967 h 0.15065 v 0.15065 h 0.14967 v 0.90196 h -1.80391 v 0.15066 h 0.15065 v 0.15065 h 0.14967 v 0.14967 h 1.50359 v 0.45098 z"
         style="text-align:center;text-anchor:middle"
         id="path1110" />
      <path
         d="m 112.78545,131.33087 v -0.45098 h -1.05261 v 0.15066 h -0.14966 v 0.15065 h 0.14966 v 0.14967 z m -1.35293,0.45098 v -0.14967 h -0.15066 v -0.15066 h -0.14966 v -0.15065 h -0.15066 v -0.45098 h 0.15066 v -0.14967 h 0.14966 v -0.15065 h 0.15066 v -0.15066 h 1.35293 v -0.15065 h -0.14966 v -0.14967 h -0.15066 v -0.15066 h -1.05261 v -0.45097 h 1.35293 v 0.15065 h 0.15066 v 0.14967 h 0.15066 v 0.15065 h 0.14966 v 1.80392 z"
         style="text-align:center;text-anchor:middle"
         id="path1112" />
      <path
         d="m 114.58936,131.78185 v -0.14967 h -0.15065 v -0.15066 h -0.14967 v -0.15065 h -0.15066 v -0.14967 h -0.15065 v -0.15065 h -0.14967 v -0.15066 h -0.15065 v -1.35293 h 0.45097 v 1.05261 h 0.15066 v 0.15065 h 0.14967 v 0.14967 h 0.15065 v 0.15066 h 0.15066 v 0.15065 h 0.15065 v -0.15065 h 0.14967 v -0.15066 h 0.15066 v -0.14967 h 0.15065 v -0.15065 h 0.14967 v -1.05261 h 0.45097 v 1.35293 h -0.14966 v 0.15066 h -0.15066 v 0.15065 h -0.15065 v 0.14967 h -0.14967 v 0.15065 H 115.191 v 0.15066 h -0.15066 v 0.14967 z"
         style="text-align:center;text-anchor:middle"
         id="path1114" />
      <path
         d="m 118.19719,130.42891 v -0.15065 h -0.14967 v -0.14967 h -0.15065 v -0.15066 h -0.75229 v 0.15066 h -0.14967 v 0.14967 h -0.15065 v 0.15065 z m -1.35293,1.35294 v -0.14967 h -0.15066 v -0.15066 h -0.14967 v -0.15065 h -0.15065 v -1.35294 h 0.15065 v -0.15065 h 0.14967 v -0.14967 h 0.15066 v -0.15065 h 1.35293 v 0.15065 h 0.15066 v 0.14967 h 0.15065 v 0.15065 h 0.14967 v 0.90196 h -1.80391 v 0.15066 h 0.15065 v 0.15065 h 0.14967 v 0.14967 h 1.50359 v 0.45098 z"
         style="text-align:center;text-anchor:middle"
         id="path1116" />
      <path
         d="m 122.18066,131.33087 v -0.45098 h -1.05262 v 0.15066 h -0.14966 v 0.15065 h 0.14966 v 0.14967 z m -1.35294,0.45098 v -0.14967 h -0.15065 v -0.15066 h -0.14967 v -0.15065 h -0.15065 v -0.45098 h 0.15065 v -0.14967 h 0.14967 v -0.15065 h 0.15065 v -0.15066 h 1.35294 v -0.15065 h -0.14967 v -0.14967 h -0.15066 v -0.15066 h -1.05261 v -0.45097 h 1.35294 v 0.15065 h 0.15065 v 0.14967 h 0.15066 v 0.15065 h 0.14966 v 1.80392 z"
         style="text-align:center;text-anchor:middle"
         id="path1118" />
      <path
         d="m 125.26218,131.78185 v -0.14967 h -0.15066 v -0.15066 h -0.14967 v -0.15065 h -0.15065 v -0.14967 h -0.15066 v -0.15065 h -0.14966 v -0.15066 h -0.15066 v -1.35293 h 0.45098 v 1.05261 h 0.15065 v 0.15065 h 0.14967 v 0.14967 h 0.15066 v 0.15066 h 0.15065 v 0.15065 h 0.15066 v -0.15065 h 0.14966 v -0.15066 h 0.15066 v -0.14967 h 0.15066 v -0.15065 h 0.14966 v -1.05261 h 0.45098 v 1.35293 h -0.14967 v 0.15066 h -0.15065 v 0.15065 h -0.15066 v 0.14967 h -0.14966 v 0.15065 h -0.15066 v 0.15066 h -0.15066 v 0.14967 z"
         style="text-align:center;text-anchor:middle"
         id="path1120" />
      <path
         d="m 128.56967,131.33087 v -0.14967 h 0.15066 v -0.15065 h 0.14966 v -0.75229 h -0.14966 v -0.14967 h -0.15066 v -0.15066 h -0.75229 v 0.15066 h -0.14966 v 0.14967 h -0.15066 v 0.75229 h 0.15066 v 0.15065 h 0.14966 v 0.14967 z m -1.05261,0.45098 v -0.14967 h -0.15065 v -0.15066 h -0.14967 v -0.15065 h -0.15066 v -1.35294 h 0.15066 v -0.15065 h 0.14967 v -0.14967 h 0.15065 v -0.15065 h 1.35293 v 0.15065 h 0.15066 v 0.14967 h 0.15066 v 0.15065 h 0.14966 v 1.35294 h -0.14966 v 0.15065 h -0.15066 v 0.15066 h -0.15066 v 0.14967 z"
         style="text-align:center;text-anchor:middle"
         id="path1122" />
      <path
         d="m 129.77195,131.78185 v -2.25489 h 0.45098 v 2.25489 z m 0,-2.70587 V 128.625 h 0.45098 v 0.45098 z"
         style="text-align:center;text-anchor:middle"
         id="path1124" />
      <path
         d="m 131.12488,131.78185 v -0.14967 h -0.15066 v -0.15066 h -0.14966 v -0.15065 h -0.15066 v -1.35294 h 0.15066 v -0.15065 h 0.14966 v -0.14967 h 0.15066 v -0.15065 h 1.35293 v 0.15065 h 0.15066 v 0.14967 h 0.15066 v 0.15065 h 0.14966 v 0.45098 h -0.45098 v -0.15065 h -0.14966 v -0.14967 h -0.15066 v -0.15066 h -0.75229 v 0.15066 h -0.14966 v 0.14967 h -0.15066 v 0.75229 h 0.15066 v 0.15065 h 0.14966 v 0.14967 h 0.75229 v -0.14967 h 0.15066 v -0.15065 h 0.14966 v -0.15066 h 0.45098 v 0.45098 h -0.14966 v 0.15065 h -0.15066 v 0.15066 h -0.15066 v 0.14967 z"
         style="text-align:center;text-anchor:middle"
         id="path1126" />
      <path
         d="m 135.18368,130.42891 v -0.15065 h -0.14966 v -0.14967 h -0.15066 v -0.15066 h -0.75229 v 0.15066 h -0.14966 v 0.14967 h -0.15066 v 0.15065 z m -1.35293,1.35294 v -0.14967 h -0.15065 v -0.15066 h -0.14967 v -0.15065 h -0.15066 v -1.35294 h 0.15066 v -0.15065 h 0.14967 v -0.14967 h 0.15065 v -0.15065 h 1.35293 v 0.15065 h 0.15066 v 0.14967 h 0.15066 v 0.15065 h 0.14966 v 0.90196 h -1.80391 v 0.15066 h 0.15066 v 0.15065 h 0.14966 v 0.14967 h 1.50359 v 0.45098 z"
         style="text-align:center;text-anchor:middle"
         id="path1128" />
      <path
         d="m 136.08564,131.78185 v -2.25489 h 0.90195 v 0.15065 h 0.15066 v 0.14967 h 0.15066 v -0.14967 h 0.14966 v -0.15065 h 0.45098 v 0.15065 h 0.15065 v 0.14967 h 0.15066 v 0.15065 h 0.14967 v 1.80392 h -0.45098 v -1.50359 h -0.14967 v -0.14967 h -0.15065 v 0.14967 h -0.15066 v 0.60163 h -0.45098 v -0.60163 h -0.15065 v -0.14967 h -0.14967 v 0.14967 h -0.15065 v 1.50359 z"
         style="text-align:center;text-anchor:middle"
         id="path1130" />
      <path
         d="m 140.59541,131.33087 v -0.45098 h -1.05261 v 0.15066 h -0.14966 v 0.15065 h 0.14966 v 0.14967 z m -1.35293,0.45098 v -0.14967 h -0.15066 v -0.15066 h -0.14966 v -0.15065 h -0.15066 v -0.45098 h 0.15066 v -0.14967 h 0.14966 v -0.15065 h 0.15066 v -0.15066 h 1.35293 v -0.15065 h -0.14966 v -0.14967 h -0.15066 v -0.15066 h -1.05261 v -0.45097 h 1.35293 v 0.15065 h 0.15066 v 0.14967 h 0.15066 v 0.15065 h 0.14966 v 1.80392 z"
         style="text-align:center;text-anchor:middle"
         id="path1132" />
      <path
         d="m 141.49737,131.78185 v -2.25489 h 0.45097 v 2.25489 z m 0,-2.70587 V 128.625 h 0.45097 v 0.45098 z"
         style="text-align:center;text-anchor:middle"
         id="path1134" />
      <path
         d="m 142.85031,131.78185 v -0.14967 h -0.15066 v -0.15066 h -0.14967 v -0.15065 h -0.15065 V 128.625 h 0.45098 v 2.40555 h 0.15065 v 0.15065 h 0.14967 v 0.14967 h 0.60163 v 0.45098 z"
         style="text-align:center;text-anchor:middle"
         id="path1136" />
      <path
         d="m 145.48084,131.78185 v -2.25489 h 0.45098 v 2.25489 z m 0,-2.70587 V 128.625 h 0.45098 v 0.45098 z"
         style="text-align:center;text-anchor:middle"
         id="path1138" />
      <path
         d="m 146.3828,131.78185 v -2.70587 h 0.15065 v -0.15066 h 0.14967 v -0.15065 h 0.15065 V 128.625 h 0.90196 v 0.14967 h 0.15065 v 0.15065 h 0.15066 v 0.15066 h 0.14967 v 0.45098 h -0.45098 v -0.15066 h -0.14967 v -0.14966 h -0.15065 v -0.15066 h -0.30132 v 0.15066 h -0.14966 v 0.14966 h -0.15066 v 0.60163 h 1.35294 v 0.45098 h -1.35294 v 1.35294 z"
         style="text-align:center;text-anchor:middle"
         id="path1140" />
      <path
         d="m 150.36627,132.6838 v -0.45098 h 1.05261 v -0.15065 h 0.15065 v -0.15066 h 0.14967 v -0.60064 h -1.35293 v -0.14967 h -0.15066 v -0.15065 h -0.14966 v -0.15066 h -0.15066 v -1.35293 h 0.45098 v 1.05261 h 0.15065 v 0.15065 h 0.14967 v 0.14967 h 1.05261 v -1.35293 h 0.45098 v 2.70586 h -0.14967 v 0.14967 h -0.15065 v 0.15065 h -0.15066 v 0.15066 z"
         style="text-align:center;text-anchor:middle"
         id="path1142" />
      <path
         d="m 154.12474,131.33087 v -0.14967 h 0.15066 v -0.15065 h 0.14966 v -0.75229 h -0.14966 v -0.14967 h -0.15066 v -0.15066 h -0.75229 v 0.15066 h -0.14966 v 0.14967 h -0.15066 v 0.75229 h 0.15066 v 0.15065 h 0.14966 v 0.14967 z m -1.05261,0.45098 v -0.14967 h -0.15066 v -0.15066 h -0.14966 v -0.15065 h -0.15066 v -1.35294 h 0.15066 v -0.15065 h 0.14966 v -0.14967 h 0.15066 v -0.15065 h 1.35293 v 0.15065 h 0.15066 v 0.14967 h 0.15066 v 0.15065 h 0.14966 v 1.35294 h -0.14966 v 0.15065 h -0.15066 v 0.15066 h -0.15066 v 0.14967 z"
         style="text-align:center;text-anchor:middle"
         id="path1144" />
      <path
         d="m 155.778,131.78185 v -0.14967 h -0.15065 v -0.15066 h -0.14967 v -0.15065 h -0.15066 v -1.80391 h 0.45098 v 1.50359 h 0.15066 v 0.15065 h 0.14966 v 0.14967 h 0.30132 v -0.14967 h 0.15065 v -0.15065 h 0.14967 v -0.15066 h 0.15065 v -0.14967 h 0.15066 v -0.15065 h 0.14967 v -1.05261 h 0.45097 v 2.25489 h -0.45097 v -0.45098 h -0.14967 v 0.15065 h -0.15066 v 0.15066 h -0.15065 v 0.14967 z"
         style="text-align:center;text-anchor:middle"
         id="path1146" />
      <path
         d="m 158.03289,131.78185 v -2.25489 h 0.45098 v 0.45097 h 0.15065 v -0.15065 h 0.14967 v -0.14967 h 0.15065 v -0.15065 h 0.90196 v 0.15065 h 0.15066 v 0.14967 h 0.15065 v 0.15065 h 0.14967 v 0.45098 h -0.45098 v -0.15065 h -0.14967 v -0.14967 h -0.15065 v -0.15066 h -0.30032 v 0.15066 h -0.15066 v 0.14967 h -0.15066 v 0.15065 h -0.15065 v 0.15066 h -0.14967 v 0.15065 h -0.15065 v 1.05163 z"
         style="text-align:center;text-anchor:middle"
         id="path1148" />
      <path
         d="m 162.54267,130.42891 v -0.15065 h -0.14966 v -0.14967 h -0.15066 v -0.15066 h -0.75229 v 0.15066 h -0.14967 v 0.14967 h -0.15065 v 0.15065 z m -1.35293,1.35294 v -0.14967 h -0.15066 v -0.15066 h -0.14966 v -0.15065 h -0.15066 v -1.35294 h 0.15066 v -0.15065 h 0.14966 v -0.14967 h 0.15066 v -0.15065 h 1.35293 v 0.15065 h 0.15066 v 0.14967 h 0.15065 v 0.15065 h 0.14967 v 0.90196 h -1.80391 v 0.15066 h 0.15065 v 0.15065 h 0.14967 v 0.14967 h 1.50359 v 0.45098 z"
         style="text-align:center;text-anchor:middle"
         id="path1150" />
      <path
         d="m 44.838977,136.85658 v -0.14966 h -0.150656 v -0.15066 h -0.149665 v -0.15065 h -0.150657 v -2.70587 h 0.450978 v 0.90195 h 1.352933 v 0.45098 h -1.352933 v 1.05261 h 0.150656 v 0.15066 h 0.149665 v 0.14967 h 0.301313 v -0.14967 h 0.150656 v -0.15066 h 0.149665 v -0.60163 h 0.450978 v 0.90196 h -0.149665 v 0.15065 h -0.150656 v 0.15066 h -0.150657 v 0.14966 z"
         style="text-align:center;text-anchor:middle"
         id="path1152" />
      <path
         d="m 48.146477,136.40561 v -0.14967 h 0.150656 v -0.15066 h 0.149665 v -0.75229 h -0.149665 v -0.14966 h -0.150656 v -0.15066 h -0.75229 v 0.15066 h -0.149665 v 0.14966 h -0.150657 v 0.75229 h 0.150657 v 0.15066 h 0.149665 v 0.14967 z m -1.052612,0.45097 v -0.14966 h -0.150656 v -0.15066 h -0.149665 v -0.15065 h -0.150656 v -1.35294 h 0.150656 v -0.15065 h 0.149665 v -0.14967 h 0.150656 v -0.15066 h 1.352933 v 0.15066 h 0.150657 v 0.14967 h 0.150656 v 0.15065 h 0.149665 v 1.35294 h -0.149665 v 0.15065 h -0.150656 v 0.15066 h -0.150657 v 0.14966 z"
         style="text-align:center;text-anchor:middle"
         id="path1154" />
      <path
         d="m 50.852343,136.40561 v -0.14967 h 0.150656 v -0.15066 h 0.149665 v -0.75229 h -0.149665 v -0.14966 h -0.150656 v -0.15066 h -0.75229 v 0.15066 h -0.149665 v 0.14966 h -0.150657 v 0.75229 h 0.150657 v 0.15066 h 0.149665 v 0.14967 z m -1.052612,0.45097 v -0.14966 h -0.150656 v -0.15066 H 49.49941 v -0.15065 h -0.150656 v -1.35294 h 0.150656 v -0.15065 h 0.149665 v -0.14967 h 0.150656 v -0.15066 h 1.352933 v 0.15066 h 0.150657 v 0.14967 h 0.150656 v 0.15065 h 0.149665 v 1.35294 h -0.149665 v 0.15065 h -0.150656 v 0.15066 h -0.150657 v 0.14966 z"
         style="text-align:center;text-anchor:middle"
         id="path1156" />
      <path
         d="m 53.332225,136.85658 v -0.45097 h 1.503589 v -0.14967 h 0.150656 v -0.15066 h -0.150656 v -0.15065 h -1.052612 v -0.14967 h -0.150656 v -0.15065 h -0.149665 v -0.15066 h -0.150656 v -0.45098 h 0.150656 v -0.15065 h 0.149665 v -0.14967 h 0.150656 v -0.15066 h 1.803911 v 0.45098 h -1.503589 v 0.15066 h -0.149665 v 0.14966 h 0.149665 v 0.15066 h 1.052611 v 0.15066 h 0.150657 v 0.15065 h 0.150656 v 0.14967 h 0.149665 v 0.45098 h -0.149665 v 0.15065 h -0.150656 v 0.15066 h -0.150657 v 0.14966 z"
         style="text-align:center;text-anchor:middle"
         id="path1158" />
      <path
         d="m 56.038091,136.85658 v -3.15684 h 0.450977 v 1.35293 h 0.150657 v -0.15065 h 0.149665 v -0.14967 h 0.150656 v -0.15066 h 0.901955 v 0.15066 h 0.150657 v 0.14967 h 0.150656 v 0.15065 h 0.149665 v 1.80391 h -0.450978 v -1.50359 h -0.149665 v -0.14966 H 57.54168 v -0.15066 h -0.300322 v 0.15066 h -0.150656 v 0.14966 h -0.150656 v 0.15066 H 56.78939 v 0.15066 h -0.149665 v 0.15065 h -0.150657 v 1.05162 z"
         style="text-align:center;text-anchor:middle"
         id="path1160" />
      <path
         d="m 59.194934,137.75854 v -0.45098 h 1.052612 v -0.15066 h 0.150656 v -0.15065 h 0.149665 v -0.60064 h -1.352933 v -0.14967 h -0.150656 v -0.15066 h -0.149665 v -0.15065 h -0.150657 v -1.35294 h 0.450978 v 1.05262 h 0.150656 v 0.15065 h 0.149665 v 0.14967 h 1.052612 v -1.35294 h 0.450978 v 2.70587 H 60.84918 v 0.14967 h -0.150657 v 0.15065 h -0.150656 v 0.15066 z"
         style="text-align:center;text-anchor:middle"
         id="path1162" />
      <path
         d="m 63.178405,136.85658 v -0.14966 h -0.150656 v -0.15066 h -0.149665 v -0.15065 h -0.150657 v -2.70587 h 0.450978 v 0.90195 h 1.352933 v 0.45098 h -1.352933 v 1.05261 h 0.150656 v 0.15066 h 0.149665 v 0.14967 h 0.301313 v -0.14967 h 0.150656 v -0.15066 h 0.149665 v -0.60163 h 0.450978 v 0.90196 h -0.149665 v 0.15065 h -0.150656 v 0.15066 H 64.08036 v 0.14966 z"
         style="text-align:center;text-anchor:middle"
         id="path1164" />
      <path
         d="m 66.485905,136.40561 v -0.14967 h 0.150656 v -0.15066 h 0.149666 v -0.75229 h -0.149666 v -0.14966 h -0.150656 v -0.15066 h -0.75229 v 0.15066 H 65.58395 v 0.14966 h -0.150656 v 0.75229 h 0.150656 v 0.15066 h 0.149665 v 0.14967 z m -1.052611,0.45097 v -0.14966 h -0.150657 v -0.15066 h -0.149665 v -0.15065 h -0.150656 v -1.35294 h 0.150656 v -0.15065 h 0.149665 v -0.14967 h 0.150657 v -0.15066 h 1.352933 v 0.15066 h 0.150656 v 0.14967 h 0.150656 v 0.15065 h 0.149665 v 1.35294 h -0.149665 v 0.15065 h -0.150656 v 0.15066 h -0.150656 v 0.14966 z"
         style="text-align:center;text-anchor:middle"
         id="path1166" />
      <path
         d="m 69.416764,136.85658 v -0.14966 h -0.150656 v -0.15066 h -0.149665 v -0.15065 h -0.150656 v -1.35294 h 0.150656 v -0.15065 h 0.149665 v -0.14967 h 0.150656 v -0.15066 h 1.352933 v 0.15066 h 0.150657 v 0.14967 h 0.150656 v 0.15065 h 0.149665 v 0.45098 h -0.450978 v -0.15066 h -0.149665 v -0.14966 h -0.150656 v -0.15066 h -0.75229 v 0.15066 h -0.149665 v 0.14966 h -0.150657 v 0.75229 h 0.150657 v 0.15066 h 0.149665 v 0.14967 h 0.75229 v -0.14967 h 0.150656 v -0.15066 h 0.149665 v -0.15065 h 0.450978 v 0.45098 H 71.07101 v 0.15065 h -0.150656 v 0.15066 h -0.150657 v 0.14966 z"
         style="text-align:center;text-anchor:middle"
         id="path1168" />
      <path
         d="m 73.475563,136.40561 v -0.45098 h -1.052611 v 0.15065 h -0.149665 v 0.15066 h 0.149665 v 0.14967 z m -1.352933,0.45097 v -0.14966 h -0.150656 v -0.15066 h -0.149665 v -0.15065 h -0.150656 v -0.45098 h 0.150656 v -0.14967 h 0.149665 v -0.15065 h 0.150656 v -0.15066 h 1.352933 v -0.15066 h -0.149665 v -0.14966 h -0.150656 v -0.15066 H 72.12263 v -0.45098 h 1.352933 v 0.15066 h 0.150657 v 0.14967 h 0.150656 v 0.15065 h 0.149665 v 1.80391 z"
         style="text-align:center;text-anchor:middle"
         id="path1170" />
      <path
         d="m 74.828496,136.85658 v -0.14966 H 74.67784 v -0.15066 h -0.149665 v -0.15065 h -0.150656 v -2.70587 h 0.450977 v 2.40554 h 0.150656 v 0.15066 h 0.149666 v 0.14967 h 0.601634 v 0.45097 z"
         style="text-align:center;text-anchor:middle"
         id="path1172" />
      <path
         d="m 76.632407,136.85658 v -0.14966 h -0.150656 v -0.15066 h -0.149665 v -0.15065 H 76.18143 v -2.70587 h 0.450977 v 2.40554 h 0.150657 v 0.15066 h 0.149665 v 0.14967 h 0.601634 v 0.45097 z"
         style="text-align:center;text-anchor:middle"
         id="path1174" />
      <path
         d="m 77.985339,136.85658 v -0.45097 h 0.450978 v 0.45097 z m 0,-0.90195 v -2.25489 h 0.450978 v 2.25489 z"
         style="text-align:center;text-anchor:middle"
         id="path1176" />
      <path
         d="m 80.164901,136.85658 v -0.45097 h 0.901955 v -2.25489 h -0.901955 v -0.45098 h 2.254888 v 0.45098 h -0.901955 v 2.25489 h 0.901955 v 0.45097 z"
         style="text-align:center;text-anchor:middle"
         id="path1178" />
      <path
         d="m 83.321746,136.85658 v -0.14966 H 83.17109 v -0.15066 h -0.149665 v -0.15065 h -0.150657 v -2.70587 h 0.450978 v 0.90195 h 1.352933 v 0.45098 h -1.352933 v 1.05261 h 0.150656 v 0.15066 h 0.149665 v 0.14967 h 0.301313 v -0.14967 h 0.150656 v -0.15066 h 0.149665 v -0.60163 h 0.450978 v 0.90196 h -0.149665 v 0.15065 h -0.150656 v 0.15066 h -0.150657 v 0.14966 z"
         style="text-align:center;text-anchor:middle"
         id="path1180" />
      <path
         d="m 85.125655,134.60169 v -0.90195 h 0.450978 v 0.90195 z"
         style="text-align:center;text-anchor:middle"
         id="path1182" />
      <path
         d="m 86.478587,136.85658 v -0.14966 h -0.150656 v -0.15066 h -0.149665 v -0.15065 H 86.02761 v -2.70587 h 0.450977 v 2.40554 h 0.150657 v 0.15066 h 0.149665 v 0.14967 h 0.601634 v 0.45097 z"
         style="text-align:center;text-anchor:middle"
         id="path1184" />
      <path
         d="m 88.282497,136.85658 v -0.14966 H 88.13184 v -0.15066 h -0.149665 v -0.15065 h -0.150656 v -2.70587 h 0.450978 v 2.40554 h 0.150656 v 0.15066 h 0.149665 v 0.14967 h 0.601634 v 0.45097 z"
         style="text-align:center;text-anchor:middle"
         id="path1186" />
      <path
         d="m 92.416625,136.40561 v -0.14967 h 0.150656 v -0.15066 h 0.149665 v -0.75229 h -0.149665 v -0.14966 h -0.150656 v -0.15066 h -1.052612 v 0.60164 h 0.150656 v 0.15065 h 0.149665 v 0.14967 h 0.150657 v 0.15065 h 0.150656 v 0.15066 h 0.150656 v 0.14967 z m -1.50359,0.45097 v -3.15684 h 0.450978 v 0.90195 h 1.352933 v 0.15066 h 0.150656 v 0.14967 h 0.150656 v 0.15065 h 0.149666 v 1.35294 h -0.149666 v 0.15065 h -0.150656 v 0.15066 h -0.150656 v 0.14966 h -0.901955 v -0.14966 h -0.150657 v -0.15066 h -0.149665 v -0.15065 h -0.150656 v 0.45097 z"
         style="text-align:center;text-anchor:middle"
         id="path1188" />
      <path
         d="m 95.422814,135.50365 v -0.15066 h -0.149665 v -0.14966 h -0.150657 v -0.15066 h -0.75229 v 0.15066 h -0.149665 v 0.14966 h -0.150656 v 0.15066 z m -1.352933,1.35293 v -0.14966 h -0.150657 v -0.15066 h -0.149665 v -0.15065 h -0.150656 v -1.35294 h 0.150656 v -0.15065 h 0.149665 v -0.14967 h 0.150657 v -0.15066 h 1.352933 v 0.15066 h 0.150656 v 0.14967 h 0.150656 v 0.15065 h 0.149665 v 0.90196 h -1.80391 v 0.15065 h 0.150656 v 0.15066 h 0.149665 v 0.14967 h 1.503589 v 0.45097 z"
         style="text-align:center;text-anchor:middle"
         id="path1190" />
      <path
         d="m 99.105963,136.40561 v -0.14967 h 0.150656 v -0.15066 h 0.149666 v -0.75229 h -0.149666 v -0.14966 h -0.150656 v -0.15066 h -0.300321 v 0.15066 h -0.150656 v 0.14966 h -0.150657 v 0.15066 h -0.150656 v 0.15066 h -0.149665 v 0.15065 h -0.150656 v 0.60065 z m -1.503589,1.35293 v -3.15685 h 0.450978 v 0.45098 h 0.150656 v -0.15065 h 0.149665 v -0.14967 h 0.150656 v -0.15066 h 0.901956 v 0.15066 h 0.150656 v 0.14967 h 0.150656 v 0.15065 h 0.149665 v 1.35294 h -0.149665 v 0.15065 h -0.150656 v 0.15066 h -0.150656 v 0.14966 h -1.352933 v 0.90196 z"
         style="text-align:center;text-anchor:middle"
         id="path1192" />
      <path
         d="m 100.75922,136.85658 v -0.14966 h -0.15066 v -0.15066 h -0.14967 v -0.15065 h -0.15065 v -2.70587 h 0.45098 v 2.40554 h 0.15065 v 0.15066 h 0.14967 v 0.14967 h 0.60163 v 0.45097 z"
         style="text-align:center;text-anchor:middle"
         id="path1194" />
      <path
         d="m 103.91606,136.40561 v -0.45098 h -1.05261 v 0.15065 h -0.14967 v 0.15066 h 0.14967 v 0.14967 z m -1.35293,0.45097 v -0.14966 h -0.15066 v -0.15066 h -0.14966 v -0.15065 h -0.15066 v -0.45098 h 0.15066 v -0.14967 h 0.14966 v -0.15065 h 0.15066 v -0.15066 h 1.35293 v -0.15066 h -0.14966 v -0.14966 h -0.15066 v -0.15066 h -1.05261 v -0.45098 h 1.35293 v 0.15066 h 0.15066 v 0.14967 h 0.15065 v 0.15065 h 0.14967 v 1.80391 z"
         style="text-align:center;text-anchor:middle"
         id="path1196" />
      <path
         d="m 105.26899,137.75854 v -0.45098 h 1.05261 v -0.15066 h 0.15066 v -0.15065 h 0.14967 v -0.60064 h -1.35294 v -0.14967 h -0.15065 v -0.15066 h -0.14967 v -0.15065 h -0.15066 v -1.35294 h 0.45098 v 1.05262 h 0.15066 v 0.15065 h 0.14966 v 0.14967 h 1.05262 v -1.35294 h 0.45097 v 2.70587 h -0.14966 v 0.14967 h -0.15066 v 0.15065 h -0.15065 v 0.15066 z"
         style="text-align:center;text-anchor:middle"
         id="path1198" />
      <path
         d="m 109.32779,135.50365 v -0.15066 h -0.14966 v -0.14966 h -0.15066 v -0.15066 h -0.75229 v 0.15066 h -0.14966 v 0.14966 h -0.15066 v 0.15066 z m -1.35293,1.35293 v -0.14966 h -0.15066 v -0.15066 h -0.14966 v -0.15065 h -0.15066 v -1.35294 h 0.15066 v -0.15065 h 0.14966 v -0.14967 h 0.15066 v -0.15066 h 1.35293 v 0.15066 h 0.15066 v 0.14967 h 0.15066 v 0.15065 h 0.14966 v 0.90196 h -1.80391 v 0.15065 h 0.15066 v 0.15066 h 0.14966 v 0.14967 h 1.50359 v 0.45097 z"
         style="text-align:center;text-anchor:middle"
         id="path1200" />
      <path
         d="m 112.03366,136.40561 v -0.60065 H 111.884 v -0.15065 h -0.15066 v -0.15066 h -0.15066 v -0.15066 h -0.14966 v -0.14966 h -0.15066 v -0.15066 h -0.30131 v 0.15066 h -0.14967 v 0.14966 h -0.15065 v 0.75229 h 0.15065 v 0.15066 h 0.14967 v 0.14967 z m -1.35293,0.45097 v -0.14966 h -0.15066 v -0.15066 h -0.14966 v -0.15065 h -0.15066 v -1.35294 h 0.15066 v -0.15065 h 0.14966 v -0.14967 h 0.15066 v -0.15066 h 0.90195 v 0.15066 h 0.15066 v 0.14967 h 0.15066 v 0.15065 h 0.14966 v -1.35293 h 0.45098 v 3.15684 z"
         style="text-align:center;text-anchor:middle"
         id="path1202" />
      <path
         d="m 114.21322,136.85658 v -2.25489 h 0.45098 v 0.45098 h 0.15065 v -0.15065 h 0.14967 v -0.14967 h 0.15065 v -0.15066 h 0.90196 v 0.15066 h 0.15065 v 0.14967 h 0.15066 v 0.15065 h 0.14967 v 1.80391 h -0.45098 v -1.50359 h -0.14967 v -0.14966 h -0.15065 v -0.15066 h -0.30032 v 0.15066 h -0.15066 v 0.14966 h -0.15066 v 0.15066 h -0.15065 v 0.15066 h -0.14967 v 0.15065 h -0.15065 v 1.05162 z"
         style="text-align:center;text-anchor:middle"
         id="path1204" />
      <path
         d="m 118.72299,135.50365 v -0.15066 h -0.14966 v -0.14966 h -0.15066 v -0.15066 h -0.75229 v 0.15066 h -0.14966 v 0.14966 h -0.15066 v 0.15066 z m -1.35293,1.35293 v -0.14966 h -0.15066 v -0.15066 h -0.14966 v -0.15065 h -0.15066 v -1.35294 h 0.15066 v -0.15065 h 0.14966 v -0.14967 h 0.15066 v -0.15066 h 1.35293 v 0.15066 h 0.15066 v 0.14967 h 0.15065 v 0.15065 h 0.14967 v 0.90196 h -1.80391 v 0.15065 h 0.15066 v 0.15066 h 0.14966 v 0.14967 h 1.50359 v 0.45097 z"
         style="text-align:center;text-anchor:middle"
         id="path1206" />
      <path
         d="m 119.62495,136.85658 v -0.45097 h 0.15066 v -0.14967 h 0.14966 v -0.15066 h 0.15066 v -0.15065 h 0.15066 v -0.14967 h 0.14966 v -0.15065 h -0.14966 v -0.15066 h -0.15066 v -0.15066 h -0.15066 v -0.14966 h -0.14966 v -0.15066 h -0.15066 v -0.45098 h 0.45098 v 0.15066 h 0.15066 v 0.14967 h 0.14966 v 0.15065 h 0.15066 v 0.15066 h 0.15065 v 0.14966 h 0.15066 v -0.14966 h 0.14967 v -0.15066 h 0.15065 v -0.15065 h 0.15066 v -0.14967 h 0.14966 v -0.15066 h 0.45098 v 0.45098 h -0.14966 v 0.15066 h -0.15066 v 0.14966 h -0.15066 v 0.15066 h -0.14966 v 0.15066 h -0.15066 v 0.15065 h 0.15066 v 0.14967 h 0.14966 v 0.15065 h 0.15066 v 0.15066 h 0.15066 v 0.14967 h 0.14966 v 0.45097 h -0.45098 v -0.14966 h -0.14966 v -0.15066 h -0.15066 v -0.15065 h -0.15065 v -0.14967 h -0.14967 v -0.15066 h -0.15066 v 0.15066 h -0.15065 v 0.14967 h -0.15066 v 0.15065 h -0.14966 v 0.15066 h -0.15066 v 0.14966 z"
         style="text-align:center;text-anchor:middle"
         id="path1208" />
      <path
         d="m 122.78179,136.85658 v -0.14966 h -0.15065 v -0.15066 h -0.14967 v -0.15065 h -0.15065 v -2.70587 h 0.45097 v 0.90195 h 1.35294 v 0.45098 h -1.35294 v 1.05261 h 0.15066 v 0.15066 h 0.14967 v 0.14967 h 0.30131 v -0.14967 h 0.15065 v -0.15066 h 0.14967 v -0.60163 h 0.45098 v 0.90196 h -0.14967 v 0.15065 h -0.15065 v 0.15066 h -0.15066 v 0.14966 z"
         style="text-align:center;text-anchor:middle"
         id="path1210" />
      <path
         d="m 127.3669,136.40561 v -0.14967 h 0.15066 v -0.15066 h 0.14966 v -0.75229 h -0.14966 v -0.14966 h -0.15066 v -0.15066 h -1.05261 v 0.60164 h 0.15065 v 0.15065 h 0.14967 v 0.14967 h 0.15066 v 0.15065 h 0.15065 v 0.15066 h 0.15066 v 0.14967 z m -1.50359,0.45097 v -3.15684 h 0.45098 v 0.90195 h 1.35293 v 0.15066 h 0.15066 v 0.14967 h 0.15065 v 0.15065 h 0.14967 v 1.35294 h -0.14967 v 0.15065 h -0.15065 v 0.15066 h -0.15066 v 0.14966 h -0.90195 v -0.14966 h -0.15066 v -0.15066 h -0.14967 v -0.15065 h -0.15065 v 0.45097 z"
         style="text-align:center;text-anchor:middle"
         id="path1212" />
      <path
         d="m 128.56917,136.85658 v -2.25489 h 0.45098 v 0.45098 h 0.15066 v -0.15065 h 0.14966 v -0.14967 h 0.15066 v -0.15066 h 0.90196 v 0.15066 h 0.15065 v 0.14967 h 0.15066 v 0.15065 h 0.14966 v 0.45098 h -0.45097 v -0.15066 h -0.14967 v -0.14966 h -0.15066 v -0.15066 h -0.30032 v 0.15066 h -0.15065 v 0.14966 h -0.15066 v 0.15066 h -0.15066 v 0.15066 h -0.14966 v 0.15065 h -0.15066 v 1.05162 z"
         style="text-align:center;text-anchor:middle"
         id="path1214" />
      <path
         d="m 132.77864,136.40561 v -0.14967 h 0.15065 v -0.15066 h 0.14967 v -0.75229 h -0.14967 v -0.14966 h -0.15065 v -0.15066 h -0.75229 v 0.15066 h -0.14967 v 0.14966 h -0.15066 v 0.75229 h 0.15066 v 0.15066 h 0.14967 v 0.14967 z m -1.05262,0.45097 v -0.14966 h -0.15065 v -0.15066 h -0.14967 v -0.15065 h -0.15065 v -1.35294 h 0.15065 v -0.15065 h 0.14967 v -0.14967 h 0.15065 v -0.15066 h 1.35294 v 0.15066 h 0.15065 v 0.14967 h 0.15066 v 0.15065 h 0.14966 v 1.35294 h -0.14966 v 0.15065 h -0.15066 v 0.15066 h -0.15065 v 0.14966 z"
         style="text-align:center;text-anchor:middle"
         id="path1216" />
      <path
         d="m 135.78482,136.40561 v -0.45098 h -1.05261 v 0.15065 h -0.14967 v 0.15066 h 0.14967 v 0.14967 z m -1.35293,0.45097 v -0.14966 h -0.15066 v -0.15066 h -0.14966 v -0.15065 h -0.15066 v -0.45098 h 0.15066 v -0.14967 h 0.14966 v -0.15065 h 0.15066 v -0.15066 h 1.35293 v -0.15066 h -0.14966 v -0.14966 h -0.15066 v -0.15066 h -1.05261 v -0.45098 h 1.35293 v 0.15066 h 0.15066 v 0.14967 h 0.15065 v 0.15065 h 0.14967 v 1.80391 z"
         style="text-align:center;text-anchor:middle"
         id="path1218" />
      <path
         d="m 138.49068,136.40561 v -0.60065 h -0.14966 v -0.15065 h -0.15066 v -0.15066 h -0.15065 v -0.15066 h -0.14967 v -0.14966 h -0.15065 v -0.15066 h -0.30132 v 0.15066 h -0.14966 v 0.14966 h -0.15066 v 0.75229 h 0.15066 v 0.15066 h 0.14966 v 0.14967 z m -1.35293,0.45097 v -0.14966 h -0.15065 v -0.15066 h -0.14967 v -0.15065 h -0.15066 v -1.35294 h 0.15066 v -0.15065 h 0.14967 v -0.14967 h 0.15065 v -0.15066 h 0.90196 v 0.15066 h 0.15065 v 0.14967 h 0.15066 v 0.15065 h 0.14966 v -1.35293 h 0.45098 v 3.15684 z"
         style="text-align:center;text-anchor:middle"
         id="path1220" />
      <path
         d="m 139.84362,136.85658 v -0.14966 h -0.15066 v -0.15066 h -0.14967 v -0.15065 h -0.15065 v -1.35294 h 0.15065 v -0.15065 h 0.14967 v -0.14967 h 0.15066 v -0.15066 h 1.35293 v 0.15066 h 0.15066 v 0.14967 h 0.15065 v 0.15065 h 0.14967 v 0.45098 h -0.45098 v -0.15066 h -0.14967 v -0.14966 h -0.15065 v -0.15066 h -0.75229 v 0.15066 h -0.14967 v 0.14966 h -0.15065 v 0.75229 h 0.15065 v 0.15066 h 0.14967 v 0.14967 h 0.75229 v -0.14967 h 0.15065 v -0.15066 h 0.14967 v -0.15065 h 0.45098 v 0.45098 h -0.14967 v 0.15065 h -0.15065 v 0.15066 h -0.15066 v 0.14966 z"
         style="text-align:center;text-anchor:middle"
         id="path1222" />
      <path
         d="m 143.90242,136.40561 v -0.45098 h -1.05261 v 0.15065 h -0.14967 v 0.15066 h 0.14967 v 0.14967 z m -1.35293,0.45097 v -0.14966 h -0.15066 v -0.15066 h -0.14966 v -0.15065 h -0.15066 v -0.45098 h 0.15066 v -0.14967 h 0.14966 v -0.15065 h 0.15066 v -0.15066 h 1.35293 v -0.15066 h -0.14966 v -0.14966 h -0.15066 v -0.15066 h -1.05261 v -0.45098 h 1.35293 v 0.15066 h 0.15066 v 0.14967 h 0.15065 v 0.15065 h 0.14967 v 1.80391 z"
         style="text-align:center;text-anchor:middle"
         id="path1224" />
      <path
         d="m 144.80437,136.85658 v -0.45097 h 1.50359 v -0.14967 h 0.15066 v -0.15066 h -0.15066 v -0.15065 h -1.05261 v -0.14967 h -0.15066 v -0.15065 h -0.14966 v -0.15066 h -0.15066 v -0.45098 h 0.15066 v -0.15065 h 0.14966 v -0.14967 h 0.15066 v -0.15066 h 1.80391 v 0.45098 h -1.50359 v 0.15066 h -0.14966 v 0.14966 h 0.14966 v 0.15066 h 1.05261 v 0.15066 h 0.15066 v 0.15065 h 0.15066 v 0.14967 h 0.14966 v 0.45098 h -0.14966 v 0.15065 h -0.15066 v 0.15066 h -0.15066 v 0.14966 z"
         style="text-align:center;text-anchor:middle"
         id="path1226" />
      <path
         d="m 147.96122,136.85658 v -0.14966 h -0.15066 v -0.15066 h -0.14967 v -0.15065 h -0.15065 v -2.70587 h 0.45098 v 0.90195 h 1.35293 v 0.45098 h -1.35293 v 1.05261 h 0.15065 v 0.15066 h 0.14967 v 0.14967 h 0.30131 v -0.14967 h 0.15066 v -0.15066 h 0.14966 v -0.60163 h 0.45098 v 0.90196 h -0.14967 v 0.15065 h -0.15065 v 0.15066 h -0.15066 v 0.14966 z"
         style="text-align:center;text-anchor:middle"
         id="path1228" />
      <path
         d="m 149.76513,136.85658 v -0.45097 h 0.45098 v 0.45097 z m 0,-0.90195 v -2.25489 h 0.45098 v 2.25489 z"
         style="text-align:center;text-anchor:middle"
         id="path1230" />
      <text
         xml:space="preserve"
         style="font-size:3.88056px;font-family:Retron2000;-inkscape-font-specification:Retron2000;text-align:center;text-anchor:middle;fill:#ffffff;stroke-width:0.0636696"
         x="67.638832"
         y="129.94475"
         id="text1261"><tspan
           sodipodi:role="line"
           id="tspan1259"
           style="stroke-width:0.0636696"
           x="67.638832"
           y="129.94475" /></text>
    </g>
    <g
       transform="matrix(0.26458333,0,0,0.26458333,20.977541,105.99313)"
       id="text750"
       style="font-size:18.6667px;font-family:Retron2000;-inkscape-font-specification:Retron2000;text-align:center;text-anchor:middle;white-space:pre;shape-inside:url(#rect752);display:inline;fill:#ffffff" />
    <g
       transform="matrix(0.26458333,0,0,0.26458333,20.977541,105.99313)"
       id="text930"
       style="font-size:14.6667px;font-family:Retron2000;-inkscape-font-specification:Retron2000;text-align:center;text-anchor:middle;white-space:pre;shape-inside:url(#rect932);fill:#ffffff" />
  </g>
</svg>
